<?xml version="1.0" encoding="utf-8" standalone="no"?>
<!DOCTYPE svg PUBLIC "-//W3C//DTD SVG 1.1//EN"
  "http://www.w3.org/Graphics/SVG/1.1/DTD/svg11.dtd">
<svg xmlns:xlink="http://www.w3.org/1999/xlink" width="725.70125pt" height="379.358125pt" viewBox="0 0 725.70125 379.358125" xmlns="http://www.w3.org/2000/svg" version="1.1">
 <metadata>
  <rdf:RDF xmlns:dc="http://purl.org/dc/elements/1.1/" xmlns:cc="http://creativecommons.org/ns#" xmlns:rdf="http://www.w3.org/1999/02/22-rdf-syntax-ns#">
   <cc:Work>
    <dc:type rdf:resource="http://purl.org/dc/dcmitype/StillImage"/>
    <dc:date>2026-03-06T23:31:36.346792</dc:date>
    <dc:format>image/svg+xml</dc:format>
    <dc:creator>
     <cc:Agent>
      <dc:title>Matplotlib v3.10.0, https://matplotlib.org/</dc:title>
     </cc:Agent>
    </dc:creator>
   </cc:Work>
  </rdf:RDF>
 </metadata>
 <defs>
  <style type="text/css">*{stroke-linejoin: round; stroke-linecap: butt}</style>
 </defs>
 <g id="figure_1">
  <g id="patch_1">
   <path d="M 0 379.358125 
L 725.70125 379.358125 
L 725.70125 0 
L 0 0 
z
" style="fill: #ffffff"/>
  </g>
  <g id="axes_1">
   <g id="patch_2">
    <path d="M 48.90125 339.84 
L 718.50125 339.84 
L 718.50125 7.2 
L 48.90125 7.2 
z
" style="fill: #ffffff"/>
   </g>
   <g id="matplotlib.axis_1">
    <g id="xtick_1">
     <g id="line2d_1">
      <path d="M 79.297029 339.84 
L 79.297029 7.2 
" clip-path="url(#pdce74d78aa)" style="fill: none; stroke-dasharray: 0.8,1.32; stroke-dashoffset: 0; stroke: #bdc3c7; stroke-opacity: 0.5; stroke-width: 0.8"/>
     </g>
     <g id="line2d_2">
      <defs>
       <path id="ma60ec3f389" d="M 0 0 
L 0 3.5 
" style="stroke: #000000; stroke-width: 0.8"/>
      </defs>
      <g>
       <use xlink:href="#ma60ec3f389" x="79.297029" y="339.84" style="stroke: #000000; stroke-width: 0.8"/>
      </g>
     </g>
     <g id="text_1">
      <!-- 0 -->
      <g transform="translate(76.115779 354.438438) scale(0.1 -0.1)">
       <defs>
        <path id="DejaVuSans-30" d="M 2034 4250 
Q 1547 4250 1301 3770 
Q 1056 3291 1056 2328 
Q 1056 1369 1301 889 
Q 1547 409 2034 409 
Q 2525 409 2770 889 
Q 3016 1369 3016 2328 
Q 3016 3291 2770 3770 
Q 2525 4250 2034 4250 
z
M 2034 4750 
Q 2819 4750 3233 4129 
Q 3647 3509 3647 2328 
Q 3647 1150 3233 529 
Q 2819 -91 2034 -91 
Q 1250 -91 836 529 
Q 422 1150 422 2328 
Q 422 3509 836 4129 
Q 1250 4750 2034 4750 
z
" transform="scale(0.015625)"/>
       </defs>
       <use xlink:href="#DejaVuSans-30"/>
      </g>
     </g>
    </g>
    <g id="xtick_2">
     <g id="line2d_3">
      <path d="M 180.758339 339.84 
L 180.758339 7.2 
" clip-path="url(#pdce74d78aa)" style="fill: none; stroke-dasharray: 0.8,1.32; stroke-dashoffset: 0; stroke: #bdc3c7; stroke-opacity: 0.5; stroke-width: 0.8"/>
     </g>
     <g id="line2d_4">
      <g>
       <use xlink:href="#ma60ec3f389" x="180.758339" y="339.84" style="stroke: #000000; stroke-width: 0.8"/>
      </g>
     </g>
     <g id="text_2">
      <!-- 500 -->
      <g transform="translate(171.214589 354.438438) scale(0.1 -0.1)">
       <defs>
        <path id="DejaVuSans-35" d="M 691 4666 
L 3169 4666 
L 3169 4134 
L 1269 4134 
L 1269 2991 
Q 1406 3038 1543 3061 
Q 1681 3084 1819 3084 
Q 2600 3084 3056 2656 
Q 3513 2228 3513 1497 
Q 3513 744 3044 326 
Q 2575 -91 1722 -91 
Q 1428 -91 1123 -41 
Q 819 9 494 109 
L 494 744 
Q 775 591 1075 516 
Q 1375 441 1709 441 
Q 2250 441 2565 725 
Q 2881 1009 2881 1497 
Q 2881 1984 2565 2268 
Q 2250 2553 1709 2553 
Q 1456 2553 1204 2497 
Q 953 2441 691 2322 
L 691 4666 
z
" transform="scale(0.015625)"/>
       </defs>
       <use xlink:href="#DejaVuSans-35"/>
       <use xlink:href="#DejaVuSans-30" transform="translate(63.623047 0)"/>
       <use xlink:href="#DejaVuSans-30" transform="translate(127.246094 0)"/>
      </g>
     </g>
    </g>
    <g id="xtick_3">
     <g id="line2d_5">
      <path d="M 282.219648 339.84 
L 282.219648 7.2 
" clip-path="url(#pdce74d78aa)" style="fill: none; stroke-dasharray: 0.8,1.32; stroke-dashoffset: 0; stroke: #bdc3c7; stroke-opacity: 0.5; stroke-width: 0.8"/>
     </g>
     <g id="line2d_6">
      <g>
       <use xlink:href="#ma60ec3f389" x="282.219648" y="339.84" style="stroke: #000000; stroke-width: 0.8"/>
      </g>
     </g>
     <g id="text_3">
      <!-- 1000 -->
      <g transform="translate(269.494648 354.438438) scale(0.1 -0.1)">
       <defs>
        <path id="DejaVuSans-31" d="M 794 531 
L 1825 531 
L 1825 4091 
L 703 3866 
L 703 4441 
L 1819 4666 
L 2450 4666 
L 2450 531 
L 3481 531 
L 3481 0 
L 794 0 
L 794 531 
z
" transform="scale(0.015625)"/>
       </defs>
       <use xlink:href="#DejaVuSans-31"/>
       <use xlink:href="#DejaVuSans-30" transform="translate(63.623047 0)"/>
       <use xlink:href="#DejaVuSans-30" transform="translate(127.246094 0)"/>
       <use xlink:href="#DejaVuSans-30" transform="translate(190.869141 0)"/>
      </g>
     </g>
    </g>
    <g id="xtick_4">
     <g id="line2d_7">
      <path d="M 383.680958 339.84 
L 383.680958 7.2 
" clip-path="url(#pdce74d78aa)" style="fill: none; stroke-dasharray: 0.8,1.32; stroke-dashoffset: 0; stroke: #bdc3c7; stroke-opacity: 0.5; stroke-width: 0.8"/>
     </g>
     <g id="line2d_8">
      <g>
       <use xlink:href="#ma60ec3f389" x="383.680958" y="339.84" style="stroke: #000000; stroke-width: 0.8"/>
      </g>
     </g>
     <g id="text_4">
      <!-- 1500 -->
      <g transform="translate(370.955958 354.438438) scale(0.1 -0.1)">
       <use xlink:href="#DejaVuSans-31"/>
       <use xlink:href="#DejaVuSans-35" transform="translate(63.623047 0)"/>
       <use xlink:href="#DejaVuSans-30" transform="translate(127.246094 0)"/>
       <use xlink:href="#DejaVuSans-30" transform="translate(190.869141 0)"/>
      </g>
     </g>
    </g>
    <g id="xtick_5">
     <g id="line2d_9">
      <path d="M 485.142267 339.84 
L 485.142267 7.2 
" clip-path="url(#pdce74d78aa)" style="fill: none; stroke-dasharray: 0.8,1.32; stroke-dashoffset: 0; stroke: #bdc3c7; stroke-opacity: 0.5; stroke-width: 0.8"/>
     </g>
     <g id="line2d_10">
      <g>
       <use xlink:href="#ma60ec3f389" x="485.142267" y="339.84" style="stroke: #000000; stroke-width: 0.8"/>
      </g>
     </g>
     <g id="text_5">
      <!-- 2000 -->
      <g transform="translate(472.417267 354.438438) scale(0.1 -0.1)">
       <defs>
        <path id="DejaVuSans-32" d="M 1228 531 
L 3431 531 
L 3431 0 
L 469 0 
L 469 531 
Q 828 903 1448 1529 
Q 2069 2156 2228 2338 
Q 2531 2678 2651 2914 
Q 2772 3150 2772 3378 
Q 2772 3750 2511 3984 
Q 2250 4219 1831 4219 
Q 1534 4219 1204 4116 
Q 875 4013 500 3803 
L 500 4441 
Q 881 4594 1212 4672 
Q 1544 4750 1819 4750 
Q 2544 4750 2975 4387 
Q 3406 4025 3406 3419 
Q 3406 3131 3298 2873 
Q 3191 2616 2906 2266 
Q 2828 2175 2409 1742 
Q 1991 1309 1228 531 
z
" transform="scale(0.015625)"/>
       </defs>
       <use xlink:href="#DejaVuSans-32"/>
       <use xlink:href="#DejaVuSans-30" transform="translate(63.623047 0)"/>
       <use xlink:href="#DejaVuSans-30" transform="translate(127.246094 0)"/>
       <use xlink:href="#DejaVuSans-30" transform="translate(190.869141 0)"/>
      </g>
     </g>
    </g>
    <g id="xtick_6">
     <g id="line2d_11">
      <path d="M 586.603577 339.84 
L 586.603577 7.2 
" clip-path="url(#pdce74d78aa)" style="fill: none; stroke-dasharray: 0.8,1.32; stroke-dashoffset: 0; stroke: #bdc3c7; stroke-opacity: 0.5; stroke-width: 0.8"/>
     </g>
     <g id="line2d_12">
      <g>
       <use xlink:href="#ma60ec3f389" x="586.603577" y="339.84" style="stroke: #000000; stroke-width: 0.8"/>
      </g>
     </g>
     <g id="text_6">
      <!-- 2500 -->
      <g transform="translate(573.878577 354.438438) scale(0.1 -0.1)">
       <use xlink:href="#DejaVuSans-32"/>
       <use xlink:href="#DejaVuSans-35" transform="translate(63.623047 0)"/>
       <use xlink:href="#DejaVuSans-30" transform="translate(127.246094 0)"/>
       <use xlink:href="#DejaVuSans-30" transform="translate(190.869141 0)"/>
      </g>
     </g>
    </g>
    <g id="xtick_7">
     <g id="line2d_13">
      <path d="M 688.064886 339.84 
L 688.064886 7.2 
" clip-path="url(#pdce74d78aa)" style="fill: none; stroke-dasharray: 0.8,1.32; stroke-dashoffset: 0; stroke: #bdc3c7; stroke-opacity: 0.5; stroke-width: 0.8"/>
     </g>
     <g id="line2d_14">
      <g>
       <use xlink:href="#ma60ec3f389" x="688.064886" y="339.84" style="stroke: #000000; stroke-width: 0.8"/>
      </g>
     </g>
     <g id="text_7">
      <!-- 3000 -->
      <g transform="translate(675.339886 354.438438) scale(0.1 -0.1)">
       <defs>
        <path id="DejaVuSans-33" d="M 2597 2516 
Q 3050 2419 3304 2112 
Q 3559 1806 3559 1356 
Q 3559 666 3084 287 
Q 2609 -91 1734 -91 
Q 1441 -91 1130 -33 
Q 819 25 488 141 
L 488 750 
Q 750 597 1062 519 
Q 1375 441 1716 441 
Q 2309 441 2620 675 
Q 2931 909 2931 1356 
Q 2931 1769 2642 2001 
Q 2353 2234 1838 2234 
L 1294 2234 
L 1294 2753 
L 1863 2753 
Q 2328 2753 2575 2939 
Q 2822 3125 2822 3475 
Q 2822 3834 2567 4026 
Q 2313 4219 1838 4219 
Q 1578 4219 1281 4162 
Q 984 4106 628 3988 
L 628 4550 
Q 988 4650 1302 4700 
Q 1616 4750 1894 4750 
Q 2613 4750 3031 4423 
Q 3450 4097 3450 3541 
Q 3450 3153 3228 2886 
Q 3006 2619 2597 2516 
z
" transform="scale(0.015625)"/>
       </defs>
       <use xlink:href="#DejaVuSans-33"/>
       <use xlink:href="#DejaVuSans-30" transform="translate(63.623047 0)"/>
       <use xlink:href="#DejaVuSans-30" transform="translate(127.246094 0)"/>
       <use xlink:href="#DejaVuSans-30" transform="translate(190.869141 0)"/>
      </g>
     </g>
    </g>
    <g id="text_8">
     <!-- Token separation ($x$) -->
     <g transform="translate(321.36125 369.638125) scale(0.12 -0.12)">
      <defs>
       <path id="DejaVuSans-54" d="M -19 4666 
L 3928 4666 
L 3928 4134 
L 2272 4134 
L 2272 0 
L 1638 0 
L 1638 4134 
L -19 4134 
L -19 4666 
z
" transform="scale(0.015625)"/>
       <path id="DejaVuSans-6f" d="M 1959 3097 
Q 1497 3097 1228 2736 
Q 959 2375 959 1747 
Q 959 1119 1226 758 
Q 1494 397 1959 397 
Q 2419 397 2687 759 
Q 2956 1122 2956 1747 
Q 2956 2369 2687 2733 
Q 2419 3097 1959 3097 
z
M 1959 3584 
Q 2709 3584 3137 3096 
Q 3566 2609 3566 1747 
Q 3566 888 3137 398 
Q 2709 -91 1959 -91 
Q 1206 -91 779 398 
Q 353 888 353 1747 
Q 353 2609 779 3096 
Q 1206 3584 1959 3584 
z
" transform="scale(0.015625)"/>
       <path id="DejaVuSans-6b" d="M 581 4863 
L 1159 4863 
L 1159 1991 
L 2875 3500 
L 3609 3500 
L 1753 1863 
L 3688 0 
L 2938 0 
L 1159 1709 
L 1159 0 
L 581 0 
L 581 4863 
z
" transform="scale(0.015625)"/>
       <path id="DejaVuSans-65" d="M 3597 1894 
L 3597 1613 
L 953 1613 
Q 991 1019 1311 708 
Q 1631 397 2203 397 
Q 2534 397 2845 478 
Q 3156 559 3463 722 
L 3463 178 
Q 3153 47 2828 -22 
Q 2503 -91 2169 -91 
Q 1331 -91 842 396 
Q 353 884 353 1716 
Q 353 2575 817 3079 
Q 1281 3584 2069 3584 
Q 2775 3584 3186 3129 
Q 3597 2675 3597 1894 
z
M 3022 2063 
Q 3016 2534 2758 2815 
Q 2500 3097 2075 3097 
Q 1594 3097 1305 2825 
Q 1016 2553 972 2059 
L 3022 2063 
z
" transform="scale(0.015625)"/>
       <path id="DejaVuSans-6e" d="M 3513 2113 
L 3513 0 
L 2938 0 
L 2938 2094 
Q 2938 2591 2744 2837 
Q 2550 3084 2163 3084 
Q 1697 3084 1428 2787 
Q 1159 2491 1159 1978 
L 1159 0 
L 581 0 
L 581 3500 
L 1159 3500 
L 1159 2956 
Q 1366 3272 1645 3428 
Q 1925 3584 2291 3584 
Q 2894 3584 3203 3211 
Q 3513 2838 3513 2113 
z
" transform="scale(0.015625)"/>
       <path id="DejaVuSans-20" transform="scale(0.015625)"/>
       <path id="DejaVuSans-73" d="M 2834 3397 
L 2834 2853 
Q 2591 2978 2328 3040 
Q 2066 3103 1784 3103 
Q 1356 3103 1142 2972 
Q 928 2841 928 2578 
Q 928 2378 1081 2264 
Q 1234 2150 1697 2047 
L 1894 2003 
Q 2506 1872 2764 1633 
Q 3022 1394 3022 966 
Q 3022 478 2636 193 
Q 2250 -91 1575 -91 
Q 1294 -91 989 -36 
Q 684 19 347 128 
L 347 722 
Q 666 556 975 473 
Q 1284 391 1588 391 
Q 1994 391 2212 530 
Q 2431 669 2431 922 
Q 2431 1156 2273 1281 
Q 2116 1406 1581 1522 
L 1381 1569 
Q 847 1681 609 1914 
Q 372 2147 372 2553 
Q 372 3047 722 3315 
Q 1072 3584 1716 3584 
Q 2034 3584 2315 3537 
Q 2597 3491 2834 3397 
z
" transform="scale(0.015625)"/>
       <path id="DejaVuSans-70" d="M 1159 525 
L 1159 -1331 
L 581 -1331 
L 581 3500 
L 1159 3500 
L 1159 2969 
Q 1341 3281 1617 3432 
Q 1894 3584 2278 3584 
Q 2916 3584 3314 3078 
Q 3713 2572 3713 1747 
Q 3713 922 3314 415 
Q 2916 -91 2278 -91 
Q 1894 -91 1617 61 
Q 1341 213 1159 525 
z
M 3116 1747 
Q 3116 2381 2855 2742 
Q 2594 3103 2138 3103 
Q 1681 3103 1420 2742 
Q 1159 2381 1159 1747 
Q 1159 1113 1420 752 
Q 1681 391 2138 391 
Q 2594 391 2855 752 
Q 3116 1113 3116 1747 
z
" transform="scale(0.015625)"/>
       <path id="DejaVuSans-61" d="M 2194 1759 
Q 1497 1759 1228 1600 
Q 959 1441 959 1056 
Q 959 750 1161 570 
Q 1363 391 1709 391 
Q 2188 391 2477 730 
Q 2766 1069 2766 1631 
L 2766 1759 
L 2194 1759 
z
M 3341 1997 
L 3341 0 
L 2766 0 
L 2766 531 
Q 2569 213 2275 61 
Q 1981 -91 1556 -91 
Q 1019 -91 701 211 
Q 384 513 384 1019 
Q 384 1609 779 1909 
Q 1175 2209 1959 2209 
L 2766 2209 
L 2766 2266 
Q 2766 2663 2505 2880 
Q 2244 3097 1772 3097 
Q 1472 3097 1187 3025 
Q 903 2953 641 2809 
L 641 3341 
Q 956 3463 1253 3523 
Q 1550 3584 1831 3584 
Q 2591 3584 2966 3190 
Q 3341 2797 3341 1997 
z
" transform="scale(0.015625)"/>
       <path id="DejaVuSans-72" d="M 2631 2963 
Q 2534 3019 2420 3045 
Q 2306 3072 2169 3072 
Q 1681 3072 1420 2755 
Q 1159 2438 1159 1844 
L 1159 0 
L 581 0 
L 581 3500 
L 1159 3500 
L 1159 2956 
Q 1341 3275 1631 3429 
Q 1922 3584 2338 3584 
Q 2397 3584 2469 3576 
Q 2541 3569 2628 3553 
L 2631 2963 
z
" transform="scale(0.015625)"/>
       <path id="DejaVuSans-74" d="M 1172 4494 
L 1172 3500 
L 2356 3500 
L 2356 3053 
L 1172 3053 
L 1172 1153 
Q 1172 725 1289 603 
Q 1406 481 1766 481 
L 2356 481 
L 2356 0 
L 1766 0 
Q 1100 0 847 248 
Q 594 497 594 1153 
L 594 3053 
L 172 3053 
L 172 3500 
L 594 3500 
L 594 4494 
L 1172 4494 
z
" transform="scale(0.015625)"/>
       <path id="DejaVuSans-69" d="M 603 3500 
L 1178 3500 
L 1178 0 
L 603 0 
L 603 3500 
z
M 603 4863 
L 1178 4863 
L 1178 4134 
L 603 4134 
L 603 4863 
z
" transform="scale(0.015625)"/>
       <path id="DejaVuSans-28" d="M 1984 4856 
Q 1566 4138 1362 3434 
Q 1159 2731 1159 2009 
Q 1159 1288 1364 580 
Q 1569 -128 1984 -844 
L 1484 -844 
Q 1016 -109 783 600 
Q 550 1309 550 2009 
Q 550 2706 781 3412 
Q 1013 4119 1484 4856 
L 1984 4856 
z
" transform="scale(0.015625)"/>
       <path id="DejaVuSans-Oblique-78" d="M 3841 3500 
L 2234 1784 
L 3219 0 
L 2559 0 
L 1819 1388 
L 531 0 
L -166 0 
L 1556 1844 
L 641 3500 
L 1300 3500 
L 1972 2234 
L 3144 3500 
L 3841 3500 
z
" transform="scale(0.015625)"/>
       <path id="DejaVuSans-29" d="M 513 4856 
L 1013 4856 
Q 1481 4119 1714 3412 
Q 1947 2706 1947 2009 
Q 1947 1309 1714 600 
Q 1481 -109 1013 -844 
L 513 -844 
Q 928 -128 1133 580 
Q 1338 1288 1338 2009 
Q 1338 2731 1133 3434 
Q 928 4138 513 4856 
z
" transform="scale(0.015625)"/>
      </defs>
      <use xlink:href="#DejaVuSans-54" transform="translate(0 0.015625)"/>
      <use xlink:href="#DejaVuSans-6f" transform="translate(61.083984 0.015625)"/>
      <use xlink:href="#DejaVuSans-6b" transform="translate(122.265625 0.015625)"/>
      <use xlink:href="#DejaVuSans-65" transform="translate(180.175781 0.015625)"/>
      <use xlink:href="#DejaVuSans-6e" transform="translate(241.699219 0.015625)"/>
      <use xlink:href="#DejaVuSans-20" transform="translate(305.078125 0.015625)"/>
      <use xlink:href="#DejaVuSans-73" transform="translate(336.865234 0.015625)"/>
      <use xlink:href="#DejaVuSans-65" transform="translate(388.964844 0.015625)"/>
      <use xlink:href="#DejaVuSans-70" transform="translate(450.488281 0.015625)"/>
      <use xlink:href="#DejaVuSans-61" transform="translate(513.964844 0.015625)"/>
      <use xlink:href="#DejaVuSans-72" transform="translate(575.244141 0.015625)"/>
      <use xlink:href="#DejaVuSans-61" transform="translate(616.357422 0.015625)"/>
      <use xlink:href="#DejaVuSans-74" transform="translate(677.636719 0.015625)"/>
      <use xlink:href="#DejaVuSans-69" transform="translate(716.845703 0.015625)"/>
      <use xlink:href="#DejaVuSans-6f" transform="translate(744.628906 0.015625)"/>
      <use xlink:href="#DejaVuSans-6e" transform="translate(805.810547 0.015625)"/>
      <use xlink:href="#DejaVuSans-20" transform="translate(869.189453 0.015625)"/>
      <use xlink:href="#DejaVuSans-28" transform="translate(900.976562 0.015625)"/>
      <use xlink:href="#DejaVuSans-Oblique-78" transform="translate(939.990234 0.015625)"/>
      <use xlink:href="#DejaVuSans-29" transform="translate(999.169922 0.015625)"/>
     </g>
    </g>
   </g>
   <g id="matplotlib.axis_2">
    <g id="ytick_1">
     <g id="line2d_15">
      <path d="M 48.90125 322.187452 
L 718.50125 322.187452 
" clip-path="url(#pdce74d78aa)" style="fill: none; stroke-dasharray: 0.8,1.32; stroke-dashoffset: 0; stroke: #bdc3c7; stroke-opacity: 0.5; stroke-width: 0.8"/>
     </g>
     <g id="line2d_16">
      <defs>
       <path id="m48185d783e" d="M 0 0 
L -3.5 0 
" style="stroke: #000000; stroke-width: 0.8"/>
      </defs>
      <g>
       <use xlink:href="#m48185d783e" x="48.90125" y="322.187452" style="stroke: #000000; stroke-width: 0.8"/>
      </g>
     </g>
     <g id="text_9">
      <!-- 0 -->
      <g transform="translate(35.53875 325.98667) scale(0.1 -0.1)">
       <use xlink:href="#DejaVuSans-30"/>
      </g>
     </g>
    </g>
    <g id="ytick_2">
     <g id="line2d_17">
      <path d="M 48.90125 275.28589 
L 718.50125 275.28589 
" clip-path="url(#pdce74d78aa)" style="fill: none; stroke-dasharray: 0.8,1.32; stroke-dashoffset: 0; stroke: #bdc3c7; stroke-opacity: 0.5; stroke-width: 0.8"/>
     </g>
     <g id="line2d_18">
      <g>
       <use xlink:href="#m48185d783e" x="48.90125" y="275.28589" style="stroke: #000000; stroke-width: 0.8"/>
      </g>
     </g>
     <g id="text_10">
      <!-- 20 -->
      <g transform="translate(29.17625 279.085108) scale(0.1 -0.1)">
       <use xlink:href="#DejaVuSans-32"/>
       <use xlink:href="#DejaVuSans-30" transform="translate(63.623047 0)"/>
      </g>
     </g>
    </g>
    <g id="ytick_3">
     <g id="line2d_19">
      <path d="M 48.90125 228.384328 
L 718.50125 228.384328 
" clip-path="url(#pdce74d78aa)" style="fill: none; stroke-dasharray: 0.8,1.32; stroke-dashoffset: 0; stroke: #bdc3c7; stroke-opacity: 0.5; stroke-width: 0.8"/>
     </g>
     <g id="line2d_20">
      <g>
       <use xlink:href="#m48185d783e" x="48.90125" y="228.384328" style="stroke: #000000; stroke-width: 0.8"/>
      </g>
     </g>
     <g id="text_11">
      <!-- 40 -->
      <g transform="translate(29.17625 232.183546) scale(0.1 -0.1)">
       <defs>
        <path id="DejaVuSans-34" d="M 2419 4116 
L 825 1625 
L 2419 1625 
L 2419 4116 
z
M 2253 4666 
L 3047 4666 
L 3047 1625 
L 3713 1625 
L 3713 1100 
L 3047 1100 
L 3047 0 
L 2419 0 
L 2419 1100 
L 313 1100 
L 313 1709 
L 2253 4666 
z
" transform="scale(0.015625)"/>
       </defs>
       <use xlink:href="#DejaVuSans-34"/>
       <use xlink:href="#DejaVuSans-30" transform="translate(63.623047 0)"/>
      </g>
     </g>
    </g>
    <g id="ytick_4">
     <g id="line2d_21">
      <path d="M 48.90125 181.482765 
L 718.50125 181.482765 
" clip-path="url(#pdce74d78aa)" style="fill: none; stroke-dasharray: 0.8,1.32; stroke-dashoffset: 0; stroke: #bdc3c7; stroke-opacity: 0.5; stroke-width: 0.8"/>
     </g>
     <g id="line2d_22">
      <g>
       <use xlink:href="#m48185d783e" x="48.90125" y="181.482765" style="stroke: #000000; stroke-width: 0.8"/>
      </g>
     </g>
     <g id="text_12">
      <!-- 60 -->
      <g transform="translate(29.17625 185.281984) scale(0.1 -0.1)">
       <defs>
        <path id="DejaVuSans-36" d="M 2113 2584 
Q 1688 2584 1439 2293 
Q 1191 2003 1191 1497 
Q 1191 994 1439 701 
Q 1688 409 2113 409 
Q 2538 409 2786 701 
Q 3034 994 3034 1497 
Q 3034 2003 2786 2293 
Q 2538 2584 2113 2584 
z
M 3366 4563 
L 3366 3988 
Q 3128 4100 2886 4159 
Q 2644 4219 2406 4219 
Q 1781 4219 1451 3797 
Q 1122 3375 1075 2522 
Q 1259 2794 1537 2939 
Q 1816 3084 2150 3084 
Q 2853 3084 3261 2657 
Q 3669 2231 3669 1497 
Q 3669 778 3244 343 
Q 2819 -91 2113 -91 
Q 1303 -91 875 529 
Q 447 1150 447 2328 
Q 447 3434 972 4092 
Q 1497 4750 2381 4750 
Q 2619 4750 2861 4703 
Q 3103 4656 3366 4563 
z
" transform="scale(0.015625)"/>
       </defs>
       <use xlink:href="#DejaVuSans-36"/>
       <use xlink:href="#DejaVuSans-30" transform="translate(63.623047 0)"/>
      </g>
     </g>
    </g>
    <g id="ytick_5">
     <g id="line2d_23">
      <path d="M 48.90125 134.581203 
L 718.50125 134.581203 
" clip-path="url(#pdce74d78aa)" style="fill: none; stroke-dasharray: 0.8,1.32; stroke-dashoffset: 0; stroke: #bdc3c7; stroke-opacity: 0.5; stroke-width: 0.8"/>
     </g>
     <g id="line2d_24">
      <g>
       <use xlink:href="#m48185d783e" x="48.90125" y="134.581203" style="stroke: #000000; stroke-width: 0.8"/>
      </g>
     </g>
     <g id="text_13">
      <!-- 80 -->
      <g transform="translate(29.17625 138.380422) scale(0.1 -0.1)">
       <defs>
        <path id="DejaVuSans-38" d="M 2034 2216 
Q 1584 2216 1326 1975 
Q 1069 1734 1069 1313 
Q 1069 891 1326 650 
Q 1584 409 2034 409 
Q 2484 409 2743 651 
Q 3003 894 3003 1313 
Q 3003 1734 2745 1975 
Q 2488 2216 2034 2216 
z
M 1403 2484 
Q 997 2584 770 2862 
Q 544 3141 544 3541 
Q 544 4100 942 4425 
Q 1341 4750 2034 4750 
Q 2731 4750 3128 4425 
Q 3525 4100 3525 3541 
Q 3525 3141 3298 2862 
Q 3072 2584 2669 2484 
Q 3125 2378 3379 2068 
Q 3634 1759 3634 1313 
Q 3634 634 3220 271 
Q 2806 -91 2034 -91 
Q 1263 -91 848 271 
Q 434 634 434 1313 
Q 434 1759 690 2068 
Q 947 2378 1403 2484 
z
M 1172 3481 
Q 1172 3119 1398 2916 
Q 1625 2713 2034 2713 
Q 2441 2713 2670 2916 
Q 2900 3119 2900 3481 
Q 2900 3844 2670 4047 
Q 2441 4250 2034 4250 
Q 1625 4250 1398 4047 
Q 1172 3844 1172 3481 
z
" transform="scale(0.015625)"/>
       </defs>
       <use xlink:href="#DejaVuSans-38"/>
       <use xlink:href="#DejaVuSans-30" transform="translate(63.623047 0)"/>
      </g>
     </g>
    </g>
    <g id="ytick_6">
     <g id="line2d_25">
      <path d="M 48.90125 87.679641 
L 718.50125 87.679641 
" clip-path="url(#pdce74d78aa)" style="fill: none; stroke-dasharray: 0.8,1.32; stroke-dashoffset: 0; stroke: #bdc3c7; stroke-opacity: 0.5; stroke-width: 0.8"/>
     </g>
     <g id="line2d_26">
      <g>
       <use xlink:href="#m48185d783e" x="48.90125" y="87.679641" style="stroke: #000000; stroke-width: 0.8"/>
      </g>
     </g>
     <g id="text_14">
      <!-- 100 -->
      <g transform="translate(22.81375 91.47886) scale(0.1 -0.1)">
       <use xlink:href="#DejaVuSans-31"/>
       <use xlink:href="#DejaVuSans-30" transform="translate(63.623047 0)"/>
       <use xlink:href="#DejaVuSans-30" transform="translate(127.246094 0)"/>
      </g>
     </g>
    </g>
    <g id="ytick_7">
     <g id="line2d_27">
      <path d="M 48.90125 40.778079 
L 718.50125 40.778079 
" clip-path="url(#pdce74d78aa)" style="fill: none; stroke-dasharray: 0.8,1.32; stroke-dashoffset: 0; stroke: #bdc3c7; stroke-opacity: 0.5; stroke-width: 0.8"/>
     </g>
     <g id="line2d_28">
      <g>
       <use xlink:href="#m48185d783e" x="48.90125" y="40.778079" style="stroke: #000000; stroke-width: 0.8"/>
      </g>
     </g>
     <g id="text_15">
      <!-- 120 -->
      <g transform="translate(22.81375 44.577298) scale(0.1 -0.1)">
       <use xlink:href="#DejaVuSans-31"/>
       <use xlink:href="#DejaVuSans-32" transform="translate(63.623047 0)"/>
       <use xlink:href="#DejaVuSans-30" transform="translate(127.246094 0)"/>
      </g>
     </g>
    </g>
    <g id="text_16">
     <!-- Attention score -->
     <g transform="translate(16.318125 219.237188) rotate(-90) scale(0.12 -0.12)">
      <defs>
       <path id="DejaVuSans-41" d="M 2188 4044 
L 1331 1722 
L 3047 1722 
L 2188 4044 
z
M 1831 4666 
L 2547 4666 
L 4325 0 
L 3669 0 
L 3244 1197 
L 1141 1197 
L 716 0 
L 50 0 
L 1831 4666 
z
" transform="scale(0.015625)"/>
       <path id="DejaVuSans-63" d="M 3122 3366 
L 3122 2828 
Q 2878 2963 2633 3030 
Q 2388 3097 2138 3097 
Q 1578 3097 1268 2742 
Q 959 2388 959 1747 
Q 959 1106 1268 751 
Q 1578 397 2138 397 
Q 2388 397 2633 464 
Q 2878 531 3122 666 
L 3122 134 
Q 2881 22 2623 -34 
Q 2366 -91 2075 -91 
Q 1284 -91 818 406 
Q 353 903 353 1747 
Q 353 2603 823 3093 
Q 1294 3584 2113 3584 
Q 2378 3584 2631 3529 
Q 2884 3475 3122 3366 
z
" transform="scale(0.015625)"/>
      </defs>
      <use xlink:href="#DejaVuSans-41"/>
      <use xlink:href="#DejaVuSans-74" transform="translate(66.658203 0)"/>
      <use xlink:href="#DejaVuSans-74" transform="translate(105.867188 0)"/>
      <use xlink:href="#DejaVuSans-65" transform="translate(145.076172 0)"/>
      <use xlink:href="#DejaVuSans-6e" transform="translate(206.599609 0)"/>
      <use xlink:href="#DejaVuSans-74" transform="translate(269.978516 0)"/>
      <use xlink:href="#DejaVuSans-69" transform="translate(309.1875 0)"/>
      <use xlink:href="#DejaVuSans-6f" transform="translate(336.970703 0)"/>
      <use xlink:href="#DejaVuSans-6e" transform="translate(398.152344 0)"/>
      <use xlink:href="#DejaVuSans-20" transform="translate(461.53125 0)"/>
      <use xlink:href="#DejaVuSans-73" transform="translate(493.318359 0)"/>
      <use xlink:href="#DejaVuSans-63" transform="translate(545.417969 0)"/>
      <use xlink:href="#DejaVuSans-6f" transform="translate(600.398438 0)"/>
      <use xlink:href="#DejaVuSans-72" transform="translate(661.580078 0)"/>
      <use xlink:href="#DejaVuSans-65" transform="translate(700.443359 0)"/>
     </g>
    </g>
   </g>
   <g id="line2d_29">
    <path d="M 48.90125 322.187452 
L 718.50125 322.187452 
" clip-path="url(#pdce74d78aa)" style="fill: none; stroke: #000000; stroke-opacity: 0.4; stroke-width: 0.8; stroke-linecap: square"/>
   </g>
   <g id="patch_3">
    <path d="M 48.90125 339.84 
L 48.90125 7.2 
" style="fill: none; stroke: #000000; stroke-width: 0.8; stroke-linejoin: miter; stroke-linecap: square"/>
   </g>
   <g id="patch_4">
    <path d="M 48.90125 339.84 
L 718.50125 339.84 
" style="fill: none; stroke: #000000; stroke-width: 0.8; stroke-linejoin: miter; stroke-linecap: square"/>
   </g>
   <g id="line2d_30">
    <path d="M 79.337614 22.32 
L 79.94695 74.647489 
L 80.556287 101.451053 
L 81.165623 109.797504 
L 81.77496 123.362143 
L 82.384297 126.318932 
L 82.993634 136.16378 
L 83.60297 137.47836 
L 84.212307 145.058588 
L 84.821643 146.056345 
L 85.43098 151.768555 
L 86.040316 153.101151 
L 86.649653 157.099567 
L 87.25899 159.102739 
L 88.477663 164.312733 
L 89.087 165.308683 
L 89.696337 168.862655 
L 90.305673 168.709576 
L 90.915009 172.813435 
L 91.524346 171.895895 
L 92.133683 176.171389 
L 92.74302 175.043623 
L 93.352356 178.878529 
L 93.961692 178.366518 
L 94.571029 180.785962 
L 95.180365 182.141755 
L 95.789703 181.696793 
L 96.399039 186.539251 
L 97.008375 181.802219 
L 97.617713 190.807346 
L 98.227049 182.895999 
L 98.836385 192.001677 
L 99.445722 188.756601 
L 100.055058 187.094407 
L 100.664396 199.04116 
L 101.273732 182.649785 
L 101.883068 200.741052 
L 102.492406 193.031048 
L 103.101742 188.6911 
L 103.711078 204.799628 
L 104.320415 192.24442 
L 104.929751 193.223954 
L 105.539089 205.79896 
L 106.148423 197.306836 
L 106.757761 191.749648 
L 107.367099 209.017377 
L 108.585771 193.910515 
L 109.195108 203.951937 
L 109.804446 211.346174 
L 110.41378 198.45244 
L 111.023118 197.628445 
L 111.632456 212.016166 
L 112.24179 209.948827 
L 112.851128 200.717704 
L 113.460465 199.491472 
L 114.0698 216.288332 
L 114.679137 211.456305 
L 115.288475 204.404548 
L 115.897809 200.654797 
L 116.507147 214.175575 
L 117.116485 219.339589 
L 117.725822 205.997296 
L 118.335157 206.704414 
L 118.944494 204.36295 
L 119.553832 225.018162 
L 120.163166 214.846329 
L 120.772504 208.696841 
L 121.381841 208.368031 
L 121.991176 207.319337 
L 122.600514 229.994243 
L 123.209851 215.038528 
L 125.037861 208.064751 
L 125.647195 227.441042 
L 126.256533 225.347134 
L 126.86587 212.971753 
L 127.475208 215.575829 
L 128.084543 209.91469 
L 128.69388 215.160933 
L 129.303218 234.744872 
L 129.912552 221.952422 
L 130.52189 216.674118 
L 131.131227 216.956571 
L 131.740562 212.419951 
L 132.349899 216.944182 
L 132.959237 235.205293 
L 133.568575 229.428092 
L 134.177912 216.188291 
L 134.787244 222.67151 
L 135.396581 213.910378 
L 136.005919 217.049428 
L 136.615256 226.340471 
L 137.224594 240.494511 
L 137.833932 224.972646 
L 138.443263 219.065249 
L 139.0526 226.02168 
L 139.661938 213.426976 
L 140.271276 222.177256 
L 140.880613 226.241746 
L 141.489951 244.136331 
L 142.099288 230.102755 
L 142.70862 219.404937 
L 143.317957 230.053643 
L 143.927295 217.494292 
L 144.536633 221.61251 
L 145.14597 224.151309 
L 145.755308 237.845778 
L 146.364639 244.871279 
L 146.973977 226.516962 
L 147.583314 223.914872 
L 148.192652 231.73473 
L 148.801989 219.689842 
L 149.411327 222.95127 
L 150.020658 228.035979 
L 150.629996 235.527206 
L 151.239334 250.85794 
L 151.848671 231.726125 
L 152.458009 225.775296 
L 153.067346 231.646185 
L 153.676684 229.280532 
L 154.286015 220.535852 
L 154.895353 228.285772 
L 155.504691 231.836998 
L 156.114028 241.232241 
L 156.723366 254.202569 
L 157.332703 229.655932 
L 157.942035 230.277233 
L 158.551372 232.60645 
L 159.16071 232.898673 
L 159.770047 224.015619 
L 160.379385 226.444698 
L 160.988723 236.672085 
L 161.59806 234.16032 
L 162.207392 258.069272 
L 163.426067 230.06563 
L 164.035404 234.001229 
L 164.644742 234.924575 
L 165.25408 235.13913 
L 165.863411 223.756362 
L 166.472749 231.679311 
L 167.082086 236.910955 
L 167.691424 237.882259 
L 168.300761 255.790138 
L 168.910099 253.869545 
L 169.51943 231.005552 
L 170.128768 236.650454 
L 170.738105 235.969538 
L 171.347443 238.568059 
L 171.956781 233.403902 
L 172.566118 224.641429 
L 173.175456 239.73456 
L 173.784787 236.311141 
L 174.394125 244.182858 
L 175.003462 258.256207 
L 175.6128 256.302318 
L 176.222138 233.926908 
L 176.831475 236.928417 
L 177.440806 240.995196 
L 178.050144 236.898967 
L 178.659482 242.888782 
L 179.268819 224.225075 
L 179.878157 237.612947 
L 180.487494 240.74332 
L 181.096832 239.673353 
L 181.706163 252.171411 
L 182.315501 261.399104 
L 182.924839 256.691441 
L 183.53417 232.383853 
L 184.143508 242.456621 
L 184.752845 241.202058 
L 185.362183 240.503224 
L 185.97152 244.914407 
L 186.580858 230.326471 
L 187.190195 233.445232 
L 187.799533 245.09852 
L 188.408871 240.705479 
L 189.018208 246.943512 
L 189.627546 260.313769 
L 190.236883 263.849407 
L 190.846221 252.968917 
L 191.455546 232.691981 
L 192.064884 247.37493 
L 192.674221 242.685302 
L 193.283559 242.169274 
L 193.892897 249.209813 
L 194.502234 232.183718 
L 195.111572 235.567954 
L 195.720909 243.492022 
L 196.330247 247.266467 
L 196.939584 242.505751 
L 197.548922 258.514767 
L 198.15826 264.842771 
L 198.767585 264.422007 
L 199.98626 234.128151 
L 200.595598 254.079502 
L 201.204935 241.020558 
L 201.814273 247.222606 
L 202.42361 250.316485 
L 203.032948 236.466565 
L 203.642286 236.273417 
L 204.860961 251.276544 
L 205.470298 243.574197 
L 206.688961 264.833624 
L 207.298299 268.221904 
L 207.907636 263.563769 
L 208.516974 243.444529 
L 209.126311 240.127413 
L 209.735649 255.98966 
L 210.344987 243.880751 
L 210.954324 247.575293 
L 211.563662 255.909532 
L 212.172999 237.464671 
L 212.782337 240.356621 
L 213.391675 240.8235 
L 214.001012 254.038911 
L 214.610337 248.633916 
L 215.219675 247.99616 
L 215.829013 264.224762 
L 216.43835 266.607918 
L 217.047688 273.171344 
L 218.266363 245.060482 
L 218.8757 242.328035 
L 219.485038 259.399762 
L 220.094376 246.747259 
L 220.703713 247.055343 
L 221.313051 261.28985 
L 221.922388 241.209063 
L 222.531714 243.013647 
L 223.141051 240.522815 
L 223.750389 251.346755 
L 224.359726 256.211747 
L 224.969064 247.202317 
L 226.187739 266.779234 
L 226.797077 271.821875 
L 227.406414 273.096504 
L 228.015752 263.233303 
L 228.625089 245.223188 
L 229.234427 246.013787 
L 229.843765 258.180964 
L 230.45309 255.36058 
L 231.062427 243.633803 
L 231.671765 262.857402 
L 232.281103 253.35541 
L 232.89044 240.208104 
L 233.499778 247.833257 
L 234.109115 241.529616 
L 234.718453 260.413925 
L 235.32779 254.185773 
L 235.937128 251.029614 
L 237.155803 268.702067 
L 237.765128 275.248948 
L 238.374466 273.714101 
L 238.983804 271.131236 
L 239.593141 248.89537 
L 240.202479 247.926606 
L 240.811816 254.021229 
L 241.421154 263.582926 
L 242.030492 249.404835 
L 242.639829 250.791353 
L 243.249167 269.150134 
L 243.858504 247.028854 
L 244.467842 246.727802 
L 245.077179 247.060325 
L 245.686505 246.39655 
L 246.295842 260.577458 
L 246.90518 259.30237 
L 247.514517 251.525013 
L 248.733193 268.452906 
L 249.34253 275.505803 
L 249.951868 277.84343 
L 250.561205 275.146045 
L 251.170543 266.581698 
L 251.779881 246.105392 
L 252.389218 253.297763 
L 252.998556 257.844984 
L 253.607881 265.532333 
L 254.217219 251.476553 
L 254.826556 251.34395 
L 255.435894 273.962641 
L 256.045231 250.029451 
L 256.654569 249.253889 
L 257.263906 249.476053 
L 257.873244 247.622146 
L 259.091919 264.545289 
L 259.701257 258.021077 
L 260.310594 253.753103 
L 260.919932 268.439491 
L 261.529257 269.626201 
L 262.138595 281.376438 
L 262.747932 277.917925 
L 263.35727 278.712533 
L 263.966608 269.296495 
L 264.575945 249.206902 
L 265.185283 254.514499 
L 265.79462 257.943687 
L 266.403958 267.561872 
L 267.013295 260.635758 
L 267.622633 248.570625 
L 268.231971 266.914686 
L 268.841308 270.76369 
L 269.450633 247.13284 
L 270.059971 253.631069 
L 270.669309 251.220526 
L 271.278646 249.295541 
L 271.887984 261.859355 
L 272.497321 264.479336 
L 273.106659 263.829386 
L 273.715997 252.741489 
L 274.325334 269.914921 
L 274.934672 270.753313 
L 275.544009 279.02758 
L 276.153347 285.026564 
L 276.762672 276.799146 
L 277.37201 283.375619 
L 277.981347 259.692512 
L 278.590685 253.830756 
L 279.200022 256.049842 
L 280.418698 269.802074 
L 281.028035 262.483796 
L 281.637373 251.787647 
L 282.856048 278.224989 
L 283.465385 251.710762 
L 284.074723 253.668373 
L 284.684048 256.033682 
L 285.293386 250.138236 
L 286.512061 265.024339 
L 287.121399 269.279709 
L 287.730736 260.998911 
L 288.340074 258.412521 
L 288.949411 271.636099 
L 290.168087 278.875484 
L 290.777424 289.812628 
L 291.386762 277.870562 
L 291.996099 286.262654 
L 292.605437 271.181341 
L 293.214774 253.182752 
L 293.824112 260.571254 
L 294.43345 257.330482 
L 295.042787 272.172187 
L 295.652125 268.638315 
L 296.261438 263.048435 
L 296.870775 253.047796 
L 297.480113 270.726212 
L 298.08945 280.387931 
L 298.698788 252.440629 
L 299.308126 257.100522 
L 299.917463 257.276597 
L 300.526801 254.474936 
L 301.136138 256.029665 
L 301.745476 266.260719 
L 302.354814 270.452726 
L 302.964151 268.280069 
L 303.573489 260.849687 
L 304.182826 263.213256 
L 304.792164 279.209 
L 305.401501 274.290307 
L 306.010839 286.215235 
L 306.620177 289.586182 
L 307.229514 281.532859 
L 307.838852 287.438704 
L 308.448189 277.071759 
L 309.057527 256.170556 
L 309.666865 260.979995 
L 310.276202 261.158365 
L 310.88554 266.354319 
L 311.494877 277.502055 
L 312.10419 265.556858 
L 312.713528 263.24479 
L 313.322865 255.552972 
L 313.932203 280.935694 
L 314.54154 278.282134 
L 315.150878 251.922352 
L 315.760216 262.013231 
L 316.369553 257.379938 
L 316.978891 259.086965 
L 317.588228 255.728 
L 318.197566 267.4111 
L 318.806904 272.270089 
L 319.416241 271.273675 
L 320.025579 268.299284 
L 320.634916 259.058682 
L 321.244254 276.225271 
L 321.853592 278.487811 
L 322.462929 279.953154 
L 323.072267 289.793135 
L 323.681604 291.764142 
L 324.290942 283.128479 
L 324.900279 289.907037 
L 325.509617 281.333901 
L 326.118955 258.464791 
L 326.728292 263.257081 
L 327.33763 262.773482 
L 327.946943 266.166767 
L 328.55628 276.64544 
L 329.165618 275.166956 
L 329.774955 265.620136 
L 330.384293 262.015333 
L 330.993631 262.757402 
L 331.602968 287.878545 
L 332.212306 275.866335 
L 332.821643 252.115299 
L 333.430981 266.87587 
L 334.040318 257.73131 
L 334.649656 262.8497 
L 335.258994 257.461743 
L 335.868331 265.804342 
L 336.477669 276.384376 
L 337.087006 270.940695 
L 337.696344 276.747627 
L 338.305682 260.959456 
L 338.915019 269.570755 
L 339.524357 279.936528 
L 340.133694 281.400404 
L 340.743032 283.290147 
L 341.352369 293.399971 
L 341.961707 294.21813 
L 342.571045 284.107535 
L 343.180357 293.488804 
L 343.789695 284.842456 
L 344.399033 265.529694 
L 345.00837 261.209799 
L 345.617708 268.065621 
L 346.227045 264.24069 
L 346.836383 274.640158 
L 347.445721 280.969128 
L 348.055058 272.235528 
L 348.664396 268.458103 
L 349.273733 261.018583 
L 349.883071 270.348839 
L 350.492409 289.823629 
L 351.101746 278.705425 
L 351.711084 253.223451 
L 352.320421 268.739282 
L 352.929759 262.396651 
L 353.539096 261.604512 
L 354.148434 265.188123 
L 354.757772 258.334268 
L 355.367109 280.654327 
L 355.976447 271.917161 
L 356.585784 278.826144 
L 357.195122 273.661026 
L 357.80446 262.456239 
L 358.413797 275.932471 
L 359.632448 285.720626 
L 360.241785 283.349976 
L 360.851123 296.996704 
L 361.46046 296.082919 
L 362.069798 288.52141 
L 362.679135 292.058952 
L 363.288473 293.65588 
L 363.897811 275.723051 
L 364.507148 261.851416 
L 365.116486 268.795698 
L 365.725823 267.503595 
L 366.335161 269.581221 
L 366.944499 278.355928 
L 367.553836 283.779391 
L 368.163174 273.031763 
L 368.772511 271.053197 
L 369.381849 263.907183 
L 369.991187 269.23137 
L 370.600524 291.227098 
L 371.209862 286.101026 
L 371.819199 262.213088 
L 372.428537 260.758731 
L 373.037874 274.153647 
L 373.647212 258.291695 
L 374.256525 269.760821 
L 374.865862 262.700682 
L 375.4752 264.719821 
L 376.084538 285.626534 
L 376.693875 271.077727 
L 377.303213 284.106864 
L 378.521888 266.028595 
L 379.131226 275.302743 
L 379.740563 282.676244 
L 380.349901 288.14603 
L 380.959238 284.340245 
L 381.568576 294.071567 
L 382.177913 300.069882 
L 382.787251 296.067443 
L 383.396589 289.19121 
L 384.005901 297.570924 
L 384.615239 292.862977 
L 385.224577 275.074372 
L 385.833914 264.670937 
L 386.443252 270.051867 
L 387.052589 271.712402 
L 387.661927 268.99378 
L 388.271265 280.828183 
L 388.880602 284.181485 
L 389.48994 281.212806 
L 390.099277 271.723499 
L 390.708615 271.713981 
L 391.317952 264.599057 
L 392.536628 297.104221 
L 393.755303 263.723576 
L 394.36464 262.792792 
L 394.973978 278.172965 
L 395.583316 259.624386 
L 396.192653 270.858023 
L 396.801991 269.006107 
L 397.411328 260.161136 
L 398.020666 287.885386 
L 398.630004 275.980792 
L 399.239341 280.827526 
L 399.848654 284.465817 
L 400.457992 270.989253 
L 401.067329 270.49763 
L 402.286004 287.3125 
L 402.895342 288.926572 
L 403.504679 288.509537 
L 404.114017 294.165891 
L 404.723355 304.613231 
L 405.332692 297.371176 
L 405.94203 293.771569 
L 406.551367 295.643434 
L 407.160705 300.489843 
L 408.37938 269.701233 
L 408.988718 269.113233 
L 409.598055 273.039653 
L 410.207393 274.173301 
L 410.81673 271.199322 
L 411.426068 286.39551 
L 412.035406 285.085378 
L 412.644743 284.063902 
L 413.254081 274.439764 
L 413.863418 273.208719 
L 414.472756 269.705415 
L 415.082094 272.839487 
L 415.691406 300.544627 
L 416.910082 275.82671 
L 417.519419 259.866324 
L 418.128757 273.983404 
L 418.738094 276.882896 
L 419.347432 259.255771 
L 419.95677 278.500375 
L 420.566107 266.221506 
L 421.175445 265.881996 
L 421.784782 287.655312 
L 422.39412 281.808626 
L 423.003457 278.955907 
L 423.612795 289.646492 
L 424.222133 276.483709 
L 424.83147 270.730376 
L 425.440808 278.672747 
L 426.050145 284.828632 
L 426.659483 292.792204 
L 427.268821 289.164353 
L 427.878158 292.929768 
L 428.487496 297.96825 
L 429.096833 307.597659 
L 429.706171 299.058622 
L 430.315508 295.284293 
L 430.924821 299.151305 
L 431.534159 300.819244 
L 432.143496 294.246696 
L 432.752834 271.588056 
L 433.362172 273.426929 
L 433.971509 271.176439 
L 434.580847 278.883419 
L 435.190184 272.958846 
L 435.799522 278.088056 
L 436.40886 291.896832 
L 437.018197 284.409119 
L 437.627535 288.148595 
L 438.236872 273.285429 
L 438.84621 277.782589 
L 439.455547 270.922084 
L 440.064885 273.439462 
L 440.674223 300.137137 
L 441.28356 295.482023 
L 441.892898 283.079796 
L 442.502235 265.792136 
L 443.111573 267.332288 
L 443.720911 282.513923 
L 444.330248 270.231118 
L 444.939586 265.232431 
L 445.548923 282.531466 
L 446.158261 264.691968 
L 446.767574 270.590934 
L 447.376911 291.880041 
L 447.986249 282.264126 
L 448.595587 282.834324 
L 449.204924 289.112304 
L 449.814262 285.090372 
L 450.423599 270.145677 
L 451.032937 279.814682 
L 451.642274 283.367537 
L 452.251612 291.965522 
L 452.86095 295.160036 
L 453.470287 290.020237 
L 454.079625 298.844353 
L 454.688962 300.12919 
L 455.2983 312.252947 
L 455.907638 298.52051 
L 456.516975 298.686335 
L 457.126313 301.310476 
L 457.73565 301.950718 
L 458.344988 301.598429 
L 458.954325 275.944588 
L 459.563663 276.270295 
L 460.173001 272.477832 
L 460.782338 278.502196 
L 461.391676 279.811784 
L 462.000989 273.548189 
L 462.610326 287.632053 
L 463.219664 291.635821 
L 463.829001 288.657636 
L 464.438339 287.649784 
L 465.047677 277.386963 
L 465.657014 277.554696 
L 466.266352 276.912341 
L 466.875689 270.336883 
L 467.485027 299.497709 
L 468.094365 301.158392 
L 469.31304 276.909778 
L 469.922377 262.936004 
L 470.531715 279.665789 
L 471.141052 281.53391 
L 471.75039 269.480868 
L 472.359728 269.951281 
L 472.969065 285.576474 
L 473.578403 265.243331 
L 474.18774 272.567424 
L 474.797078 295.274303 
L 475.406416 284.013935 
L 476.015753 286.21226 
L 476.625091 287.558 
L 477.234428 293.446095 
L 477.843741 275.160117 
L 478.453079 276.293683 
L 479.062416 285.555916 
L 479.671754 286.12121 
L 480.281091 299.473573 
L 480.890429 292.957636 
L 482.109104 298.928135 
L 482.718442 304.953183 
L 483.327779 312.689482 
L 483.937117 303.850182 
L 484.546455 298.606805 
L 485.155792 304.593137 
L 485.76513 302.848099 
L 486.374467 306.610291 
L 487.593142 273.442123 
L 488.20248 280.785418 
L 488.811818 272.572899 
L 489.421155 284.857257 
L 490.030493 279.346957 
L 490.63983 276.525464 
L 491.249168 291.894061 
L 491.858506 292.177561 
L 492.467843 293.207527 
L 493.077156 288.226553 
L 493.686494 284.334958 
L 494.295831 276.016875 
L 494.905194 283.572967 
L 495.514506 271.199134 
L 496.123869 285.236971 
L 496.733182 309.642193 
L 497.342544 295.663696 
L 497.951857 292.498439 
L 498.561219 271.508827 
L 499.170532 268.838987 
L 499.779894 281.414583 
L 500.389207 284.880768 
L 500.99852 271.861613 
L 501.607882 270.263506 
L 502.217195 288.043075 
L 502.826557 272.656837 
L 503.43587 267.842478 
L 504.045233 291.481214 
L 504.654545 293.995041 
L 505.263908 284.277755 
L 505.873221 290.142946 
L 506.482583 291.838262 
L 507.091896 293.073596 
L 507.701258 275.453354 
L 508.310571 279.001906 
L 508.919933 289.81751 
L 509.529246 285.825689 
L 510.138608 303.595929 
L 510.747921 294.592448 
L 511.966596 300.66907 
L 512.575959 303.229172 
L 513.185272 314.412971 
L 513.794634 310.403518 
L 514.403947 304.066457 
L 515.013309 300.596551 
L 515.622622 309.360967 
L 516.231984 303.352353 
L 516.841297 310.171789 
L 517.45061 290.425149 
L 518.059972 275.549119 
L 518.669285 284.113622 
L 519.278647 273.696907 
L 519.88796 286.141229 
L 520.497323 283.89836 
L 521.106635 277.681225 
L 522.325311 296.101101 
L 523.543986 293.453167 
L 524.153348 290.807276 
L 524.762661 282.454545 
L 525.372023 280.992508 
L 525.981336 283.544681 
L 526.590698 275.317893 
L 527.200011 284.283229 
L 527.809374 313.301939 
L 528.418686 299.298181 
L 529.028049 296.029381 
L 530.246724 266.222239 
L 530.856037 281.040493 
L 531.465399 284.307817 
L 532.074712 286.264689 
L 532.684025 267.451029 
L 533.293387 279.686288 
L 533.9027 289.282659 
L 534.512062 272.072777 
L 535.121375 272.116576 
L 535.730738 292.078357 
L 536.34005 299.234158 
L 536.949413 284.536068 
L 537.558725 293.378514 
L 538.168088 291.794466 
L 538.777401 297.594869 
L 539.996076 274.018789 
L 540.605438 290.792489 
L 541.214751 287.077338 
L 542.433426 304.09453 
L 543.042789 297.611202 
L 543.652101 299.284527 
L 544.261464 304.314339 
L 544.870777 304.094298 
L 545.480139 316.344539 
L 546.089452 314.44469 
L 546.698814 307.067088 
L 547.308127 303.857121 
L 547.91744 307.046638 
L 548.526802 311.014814 
L 549.136115 305.750001 
L 549.745477 311.380265 
L 550.35479 281.893682 
L 550.964152 281.105963 
L 551.573465 285.555655 
L 552.182828 274.683348 
L 552.79214 291.080871 
L 553.401503 284.145192 
L 554.010816 281.95089 
L 554.620178 286.138538 
L 555.229491 298.743966 
L 555.838853 297.466822 
L 556.448166 295.620302 
L 557.057528 296.20523 
L 557.666841 287.241226 
L 558.276203 285.068833 
L 558.885516 282.118046 
L 559.494879 287.142094 
L 560.104191 273.950099 
L 561.322867 315.16848 
L 561.932229 301.513507 
L 562.541542 298.744172 
L 563.150904 286.928518 
L 563.760217 269.9806 
L 564.36953 277.673362 
L 564.978892 287.940568 
L 565.588205 287.749569 
L 566.197567 280.655512 
L 566.80688 268.881967 
L 567.416242 290.795611 
L 568.025555 287.010891 
L 568.634918 270.865372 
L 569.24423 278.621917 
L 569.853593 294.469117 
L 570.462906 303.348688 
L 571.072268 284.827429 
L 571.681581 296.339287 
L 572.290943 293.861373 
L 572.900256 297.949486 
L 573.509618 296.269532 
L 574.118931 274.276011 
L 574.728293 288.282757 
L 575.337606 290.739058 
L 575.946969 292.149948 
L 576.556281 300.51664 
L 577.165644 306.882062 
L 577.774957 298.066065 
L 578.993632 307.146695 
L 579.602945 305.008822 
L 580.212307 319.701837 
L 581.430982 312.342114 
L 582.040295 305.245732 
L 582.649657 307.94463 
L 583.25897 313.222659 
L 583.868333 308.898912 
L 584.477645 312.892562 
L 585.087008 304.622702 
L 585.69632 279.691244 
L 586.305683 285.573103 
L 586.914996 287.190515 
L 587.524358 275.81097 
L 588.133671 295.237826 
L 588.743033 285.900576 
L 589.352346 284.1052 
L 589.961708 287.76149 
L 591.180384 304.343848 
L 591.789696 294.159741 
L 592.399059 302.812888 
L 593.008372 291.266894 
L 593.617734 290.633406 
L 594.227047 284.2943 
L 595.445722 288.4132 
L 596.055035 274.495961 
L 596.664397 299.123705 
L 597.27371 315.26445 
L 598.492385 298.935759 
L 599.101747 295.400261 
L 599.71106 274.227928 
L 600.320423 274.970426 
L 600.929735 288.183933 
L 601.539098 289.030316 
L 602.148411 290.998626 
L 602.757773 274.292999 
L 603.367086 277.181139 
L 603.976448 294.535298 
L 604.585761 287.350758 
L 605.195123 272.084997 
L 605.804436 281.390872 
L 606.413798 295.873584 
L 607.023111 305.688126 
L 607.632474 291.159388 
L 608.241786 291.813625 
L 608.851149 302.270113 
L 609.460462 292.549132 
L 610.069774 306.991755 
L 610.679137 284.361957 
L 611.28845 279.799989 
L 611.897812 294.285641 
L 612.507125 291.028621 
L 613.116487 297.520143 
L 613.7258 301.595665 
L 614.335162 311.442302 
L 614.944475 298.399541 
L 615.553837 305.521699 
L 616.16315 309.220977 
L 616.772513 306.004323 
L 617.381825 318.710201 
L 617.991188 320.179007 
L 618.600501 317.365955 
L 619.209863 309.667088 
L 619.819176 308.632404 
L 620.428538 311.333928 
L 621.037851 316.1437 
L 621.647213 310.091266 
L 622.256526 316.034025 
L 622.865888 305.661128 
L 623.475201 280.94281 
L 624.084564 288.259751 
L 624.693876 289.548699 
L 625.303239 279.661558 
L 625.912552 290.504037 
L 626.521864 296.346546 
L 627.131227 282.214839 
L 627.74054 290.658414 
L 628.349902 291.099 
L 628.959215 304.200273 
L 629.568577 304.29971 
L 630.17789 295.698665 
L 630.787252 307.103959 
L 631.396565 290.222185 
L 632.005928 294.890254 
L 632.61524 285.772844 
L 633.224603 287.738036 
L 633.833915 293.382502 
L 634.443278 276.343368 
L 635.052591 292.627061 
L 635.661953 313.039612 
L 636.271266 316.985558 
L 636.880628 302.010209 
L 637.489941 302.753016 
L 638.099303 290.726787 
L 638.708616 273.301786 
L 639.927291 289.661353 
L 640.536654 293.207666 
L 641.145967 291.294643 
L 641.755279 280.234417 
L 642.364642 274.581147 
L 642.973955 296.171142 
L 643.583317 293.202616 
L 644.19263 278.356478 
L 644.801992 277.407015 
L 646.020667 305.42437 
L 646.62998 303.46329 
L 647.239342 291.523742 
L 647.848655 296.279435 
L 648.458018 304.80439 
L 649.06733 294.005335 
L 649.676693 309.973997 
L 650.286006 288.631836 
L 650.895368 278.746571 
L 651.504681 297.704479 
L 652.114043 290.978478 
L 652.723356 300.399921 
L 653.332718 298.644022 
L 653.942031 312.78255 
L 654.551393 307.753743 
L 655.160706 300.224371 
L 655.770069 312.285874 
L 656.379381 308.135393 
L 656.988694 311.873311 
L 657.598057 319.645144 
L 658.207369 324.72 
L 658.816732 317.525356 
L 659.426045 314.498982 
L 660.035407 309.269768 
L 660.64472 313.170263 
L 661.254082 317.949815 
L 661.863395 313.942211 
L 662.472757 315.526827 
L 663.08207 316.354157 
L 664.300745 280.617175 
L 664.910108 295.269143 
L 665.51942 288.010549 
L 666.128783 282.671453 
L 666.738096 293.982114 
L 667.347458 297.837214 
L 667.956771 286.338561 
L 668.566133 289.383081 
L 669.175446 296.080003 
L 669.784808 298.539063 
L 670.394121 313.433012 
L 671.003483 295.558017 
L 671.612796 307.066386 
L 672.222159 302.949696 
L 672.831471 290.546588 
L 673.440784 299.167566 
L 674.050147 282.888053 
L 674.659459 295.35629 
L 675.268822 291.672622 
L 675.878135 280.616477 
L 676.487497 292.218331 
L 677.09681 314.4483 
L 677.706172 320.413108 
L 678.315485 306.917662 
L 678.924847 304.87257 
L 679.53416 299.425973 
L 680.143523 282.649653 
L 680.752835 275.174287 
L 681.362198 289.363627 
L 681.971511 292.21196 
L 682.580873 296.268213 
L 683.190186 292.339815 
L 683.799548 279.856079 
L 684.408861 278.956435 
L 685.018223 296.18402 
L 685.627536 299.243101 
L 686.236898 279.58831 
L 686.846211 281.000586 
L 687.455574 285.619648 
L 688.064886 304.839586 
L 688.064886 304.839586 
" clip-path="url(#pdce74d78aa)" style="fill: none; stroke: #0047ab; stroke-opacity: 0.9; stroke-width: 1.2; stroke-linecap: square"/>
   </g>
   <g id="line2d_31">
    <path d="M 79.337614 22.342835 
L 79.94695 76.99309 
L 80.556287 101.461484 
L 81.77496 123.496347 
L 82.384297 128.419509 
L 82.993634 136.547844 
L 83.60297 139.27344 
L 84.212307 145.797029 
L 84.821643 147.456182 
L 85.43098 152.93398 
L 86.040316 154.052359 
L 86.649653 158.724497 
L 87.25899 159.595163 
L 87.868326 163.583058 
L 88.477663 164.384817 
L 89.087 167.761121 
L 89.696337 168.60557 
L 90.305673 171.423989 
L 90.915009 172.377749 
L 91.524346 174.686863 
L 92.133683 175.783688 
L 92.74302 177.633584 
L 93.961692 180.326981 
L 94.571029 181.716213 
L 95.180365 182.815136 
L 95.789703 184.319647 
L 96.399039 185.13505 
L 97.008375 186.719175 
L 97.617713 187.315428 
L 98.227049 188.937223 
L 98.836385 189.378134 
L 99.445722 190.993308 
L 100.055058 191.339781 
L 100.664396 192.90497 
L 101.273732 193.212568 
L 101.883068 194.688353 
L 102.492406 195.005198 
L 103.101742 196.358563 
L 103.711078 196.723638 
L 104.320415 197.929758 
L 104.929751 198.371734 
L 105.539089 199.415131 
L 106.148423 199.951896 
L 106.757761 200.826897 
L 107.976436 202.176128 
L 108.585771 202.913753 
L 109.195108 203.4726 
L 109.804446 204.297336 
L 110.41378 204.724704 
L 111.023118 205.61753 
L 111.632456 205.93938 
L 112.24179 206.876014 
L 112.851128 207.122026 
L 113.460465 208.075118 
L 114.0698 208.276544 
L 114.679137 209.217911 
L 115.288475 209.40546 
L 115.897809 210.308146 
L 116.507147 210.510023 
L 117.116485 211.350238 
L 117.725822 211.590399 
L 118.335157 212.349033 
L 118.944494 212.645901 
L 119.553832 213.309693 
L 120.163166 213.675281 
L 121.381841 214.676975 
L 125.037861 217.500693 
L 125.647195 217.715104 
L 126.256533 218.378119 
L 126.86587 218.545046 
L 127.475208 219.223337 
L 128.084543 219.364047 
L 128.69388 220.037187 
L 129.303218 220.173033 
L 129.912552 220.821215 
L 130.52189 220.972104 
L 131.131227 221.577565 
L 131.740562 221.760662 
L 132.349899 222.308919 
L 132.959237 222.53751 
L 133.568575 223.018298 
L 134.177912 223.301102 
L 135.396581 224.049636 
L 138.443263 225.699791 
L 139.0526 226.187985 
L 139.661938 226.345385 
L 140.271276 226.860805 
L 140.880613 226.985229 
L 141.489951 227.512693 
L 142.099288 227.620412 
L 142.70862 228.143936 
L 143.317957 228.251328 
L 143.927295 228.755364 
L 144.536633 228.877776 
L 145.14597 229.348385 
L 145.755308 229.499018 
L 146.364639 229.924802 
L 146.973977 230.113881 
L 147.583314 230.486788 
L 148.801989 231.036677 
L 153.067346 233.038185 
L 153.676684 233.160441 
L 154.286015 233.583311 
L 154.895353 233.681417 
L 155.504691 234.113346 
L 156.114028 234.200551 
L 156.723366 234.628401 
L 157.332703 234.718007 
L 157.942035 235.129058 
L 158.551372 235.233482 
L 159.16071 235.616365 
L 159.770047 235.746221 
L 160.379385 236.091722 
L 160.988723 236.255122 
L 162.207392 236.758848 
L 164.644742 237.744916 
L 165.25408 237.909209 
L 165.863411 238.224484 
L 166.472749 238.351566 
L 167.082086 238.69354 
L 167.691424 238.792105 
L 168.300761 239.151352 
L 168.910099 239.231734 
L 169.51943 239.597532 
L 170.128768 239.670937 
L 170.738105 240.032165 
L 171.347443 240.109758 
L 171.956781 240.455695 
L 172.566118 240.547865 
L 173.175456 240.868991 
L 173.784787 240.984511 
L 174.394125 241.273228 
L 175.6128 241.669811 
L 178.050144 242.4462 
L 179.878157 243.105625 
L 180.487494 243.210204 
L 181.096832 243.508991 
L 181.706163 243.590633 
L 182.315501 243.903305 
L 182.924839 243.971069 
L 183.53417 244.288256 
L 184.143508 244.351863 
L 184.752845 244.663906 
L 185.362183 244.732975 
L 185.97152 245.030643 
L 186.580858 245.114041 
L 187.190195 245.389246 
L 187.799533 245.494345 
L 189.018208 245.872963 
L 191.455546 246.620611 
L 193.283559 247.100762 
L 193.892897 247.347909 
L 194.502234 247.435665 
L 195.111572 247.701499 
L 195.720909 247.770553 
L 196.330247 248.047568 
L 196.939584 248.105984 
L 197.548922 248.385827 
L 198.15826 248.442224 
L 198.767585 248.716356 
L 199.376922 248.77917 
L 199.98626 249.039549 
L 200.595598 249.11642 
L 201.204935 249.356076 
L 201.814273 249.453327 
L 203.032948 249.788992 
L 205.470298 250.452535 
L 207.298299 250.874884 
L 207.907636 251.098875 
L 208.516974 251.173648 
L 209.126311 251.413451 
L 209.735649 251.472831 
L 210.344987 251.721586 
L 210.954324 251.772908 
L 211.563662 252.023062 
L 212.172999 252.074034 
L 212.782337 252.317987 
L 213.391675 252.376069 
L 214.001012 252.60672 
L 214.610337 252.678609 
L 215.219675 252.889873 
L 216.43835 253.168318 
L 218.8757 253.714982 
L 220.703713 254.171776 
L 221.313051 254.254925 
L 221.922388 254.460151 
L 222.531714 254.524659 
L 223.141051 254.743312 
L 223.750389 254.795124 
L 224.359726 255.020848 
L 224.969064 255.066661 
L 225.578401 255.29261 
L 226.187739 255.339395 
L 226.797077 255.558693 
L 227.406414 255.613139 
L 228.015752 255.819468 
L 228.625089 255.887504 
L 229.843765 256.161854 
L 231.671765 256.576743 
L 242.030492 258.741534 
L 243.249167 258.975157 
L 245.077179 259.307938 
L 251.170543 260.522516 
L 251.779881 260.563395 
L 252.389218 260.753707 
L 252.998556 260.79173 
L 253.607881 260.980348 
L 254.217219 261.021339 
L 254.826556 261.202598 
L 255.435894 261.252017 
L 256.654569 261.483339 
L 258.482582 261.847466 
L 263.35727 262.682552 
L 263.966608 262.847793 
L 264.575945 262.891694 
L 265.185283 263.065067 
L 265.79462 263.101967 
L 266.403958 263.278281 
L 267.013295 263.313546 
L 267.622633 263.487407 
L 268.231971 263.526394 
L 268.841308 263.692607 
L 270.059971 263.894251 
L 271.887984 264.169385 
L 275.544009 264.806798 
L 277.37201 265.064442 
L 277.981347 265.219849 
L 278.590685 265.259097 
L 279.200022 265.421291 
L 279.80936 265.454933 
L 280.418698 265.619031 
L 281.028035 265.652082 
L 281.637373 265.813057 
L 282.24671 265.850482 
L 283.465385 266.049877 
L 285.293386 266.375607 
L 288.949411 266.920212 
L 290.777424 267.237733 
L 292.605437 267.464013 
L 293.214774 267.616347 
L 293.824112 267.647304 
L 294.43345 267.800617 
L 295.042787 267.831896 
L 296.261438 268.017693 
L 298.08945 268.334103 
L 299.917463 268.579031 
L 306.010839 269.494989 
L 306.620177 269.527053 
L 307.229514 269.670584 
L 307.838852 269.699329 
L 309.057527 269.872892 
L 310.88554 270.178847 
L 312.713528 270.39933 
L 316.369553 270.925186 
L 319.416241 271.303796 
L 321.244254 271.600726 
L 323.072267 271.791446 
L 324.900279 272.078348 
L 326.728292 272.288241 
L 330.384293 272.784122 
L 333.430981 273.139582 
L 335.258994 273.420664 
L 337.087006 273.601174 
L 338.915019 273.870966 
L 340.743032 274.071468 
L 345.617708 274.694222 
L 347.445721 274.875302 
L 349.273733 275.142057 
L 351.101746 275.313526 
L 352.929759 275.567859 
L 355.367109 275.84219 
L 401.676667 280.854484 
L 403.504679 280.999549 
L 405.332692 281.220238 
L 407.160705 281.364173 
L 408.988718 281.568996 
L 412.644743 281.907543 
L 416.910082 282.341337 
L 418.738094 282.476752 
L 420.566107 282.685114 
L 422.39412 282.829375 
L 426.050145 283.185129 
L 431.534159 283.665867 
L 433.362172 283.868409 
L 435.190184 284.002301 
L 437.627535 284.230022 
L 444.939586 284.900686 
L 446.767574 285.025281 
L 448.595587 285.216032 
L 451.032937 285.418939 
L 457.126313 285.91855 
L 458.954325 286.105373 
L 460.782338 286.225279 
L 462.610326 286.408061 
L 465.657014 286.645401 
L 480.890429 287.887513 
L 490.030493 288.591084 
L 493.077156 288.842939 
L 511.966596 290.25048 
L 515.013309 290.501541 
L 516.841297 290.606373 
L 519.88796 290.846213 
L 527.200011 291.350056 
L 529.028049 291.5083 
L 530.856037 291.610116 
L 533.9027 291.841153 
L 542.433426 292.412577 
L 544.870777 292.581668 
L 547.91744 292.804377 
L 560.104191 293.606008 
L 564.978892 293.93986 
L 569.24423 294.197215 
L 572.290943 294.418127 
L 575.337606 294.597358 
L 583.868333 295.15358 
L 586.914996 295.321027 
L 590.571021 295.557247 
L 667.956771 299.993715 
L 671.003483 300.138769 
L 677.09681 300.472431 
L 681.362198 300.675074 
L 684.408861 300.849225 
L 688.064886 301.028169 
L 688.064886 301.028169 
" clip-path="url(#pdce74d78aa)" style="fill: none; stroke-dasharray: 9.25,4; stroke-dashoffset: 0; stroke: #2e8b57; stroke-width: 2.5"/>
   </g>
   <g id="legend_1">
    <g id="patch_5">
     <path d="M 524.10125 44.578125 
L 711.50125 44.578125 
Q 713.50125 44.578125 713.50125 42.578125 
L 713.50125 14.2 
Q 713.50125 12.2 711.50125 12.2 
L 524.10125 12.2 
Q 522.10125 12.2 522.10125 14.2 
L 522.10125 42.578125 
Q 522.10125 44.578125 524.10125 44.578125 
z
" style="fill: #ffffff; opacity: 0.8; stroke: #bdc3c7; stroke-linejoin: miter"/>
    </g>
    <g id="line2d_32">
     <path d="M 526.10125 20.298437 
L 536.10125 20.298437 
L 546.10125 20.298437 
" style="fill: none; stroke: #0047ab; stroke-opacity: 0.9; stroke-width: 1.2; stroke-linecap: square"/>
    </g>
    <g id="text_17">
     <!-- Discrete Sum ($n=128$) -->
     <g transform="translate(554.10125 23.798437) scale(0.1 -0.1)">
      <defs>
       <path id="DejaVuSans-44" d="M 1259 4147 
L 1259 519 
L 2022 519 
Q 2988 519 3436 956 
Q 3884 1394 3884 2338 
Q 3884 3275 3436 3711 
Q 2988 4147 2022 4147 
L 1259 4147 
z
M 628 4666 
L 1925 4666 
Q 3281 4666 3915 4102 
Q 4550 3538 4550 2338 
Q 4550 1131 3912 565 
Q 3275 0 1925 0 
L 628 0 
L 628 4666 
z
" transform="scale(0.015625)"/>
       <path id="DejaVuSans-53" d="M 3425 4513 
L 3425 3897 
Q 3066 4069 2747 4153 
Q 2428 4238 2131 4238 
Q 1616 4238 1336 4038 
Q 1056 3838 1056 3469 
Q 1056 3159 1242 3001 
Q 1428 2844 1947 2747 
L 2328 2669 
Q 3034 2534 3370 2195 
Q 3706 1856 3706 1288 
Q 3706 609 3251 259 
Q 2797 -91 1919 -91 
Q 1588 -91 1214 -16 
Q 841 59 441 206 
L 441 856 
Q 825 641 1194 531 
Q 1563 422 1919 422 
Q 2459 422 2753 634 
Q 3047 847 3047 1241 
Q 3047 1584 2836 1778 
Q 2625 1972 2144 2069 
L 1759 2144 
Q 1053 2284 737 2584 
Q 422 2884 422 3419 
Q 422 4038 858 4394 
Q 1294 4750 2059 4750 
Q 2388 4750 2728 4690 
Q 3069 4631 3425 4513 
z
" transform="scale(0.015625)"/>
       <path id="DejaVuSans-75" d="M 544 1381 
L 544 3500 
L 1119 3500 
L 1119 1403 
Q 1119 906 1312 657 
Q 1506 409 1894 409 
Q 2359 409 2629 706 
Q 2900 1003 2900 1516 
L 2900 3500 
L 3475 3500 
L 3475 0 
L 2900 0 
L 2900 538 
Q 2691 219 2414 64 
Q 2138 -91 1772 -91 
Q 1169 -91 856 284 
Q 544 659 544 1381 
z
M 1991 3584 
L 1991 3584 
z
" transform="scale(0.015625)"/>
       <path id="DejaVuSans-6d" d="M 3328 2828 
Q 3544 3216 3844 3400 
Q 4144 3584 4550 3584 
Q 5097 3584 5394 3201 
Q 5691 2819 5691 2113 
L 5691 0 
L 5113 0 
L 5113 2094 
Q 5113 2597 4934 2840 
Q 4756 3084 4391 3084 
Q 3944 3084 3684 2787 
Q 3425 2491 3425 1978 
L 3425 0 
L 2847 0 
L 2847 2094 
Q 2847 2600 2669 2842 
Q 2491 3084 2119 3084 
Q 1678 3084 1418 2786 
Q 1159 2488 1159 1978 
L 1159 0 
L 581 0 
L 581 3500 
L 1159 3500 
L 1159 2956 
Q 1356 3278 1631 3431 
Q 1906 3584 2284 3584 
Q 2666 3584 2933 3390 
Q 3200 3197 3328 2828 
z
" transform="scale(0.015625)"/>
       <path id="DejaVuSans-Oblique-6e" d="M 3566 2113 
L 3156 0 
L 2578 0 
L 2988 2091 
Q 3016 2238 3031 2350 
Q 3047 2463 3047 2528 
Q 3047 2791 2881 2937 
Q 2716 3084 2419 3084 
Q 1956 3084 1622 2776 
Q 1288 2469 1184 1941 
L 800 0 
L 225 0 
L 903 3500 
L 1478 3500 
L 1363 2950 
Q 1603 3253 1940 3418 
Q 2278 3584 2650 3584 
Q 3113 3584 3367 3334 
Q 3622 3084 3622 2631 
Q 3622 2519 3608 2391 
Q 3594 2263 3566 2113 
z
" transform="scale(0.015625)"/>
       <path id="DejaVuSans-3d" d="M 678 2906 
L 4684 2906 
L 4684 2381 
L 678 2381 
L 678 2906 
z
M 678 1631 
L 4684 1631 
L 4684 1100 
L 678 1100 
L 678 1631 
z
" transform="scale(0.015625)"/>
      </defs>
      <use xlink:href="#DejaVuSans-44" transform="translate(0 0.015625)"/>
      <use xlink:href="#DejaVuSans-69" transform="translate(77.001953 0.015625)"/>
      <use xlink:href="#DejaVuSans-73" transform="translate(104.785156 0.015625)"/>
      <use xlink:href="#DejaVuSans-63" transform="translate(156.884766 0.015625)"/>
      <use xlink:href="#DejaVuSans-72" transform="translate(211.865234 0.015625)"/>
      <use xlink:href="#DejaVuSans-65" transform="translate(252.978516 0.015625)"/>
      <use xlink:href="#DejaVuSans-74" transform="translate(314.501953 0.015625)"/>
      <use xlink:href="#DejaVuSans-65" transform="translate(353.710938 0.015625)"/>
      <use xlink:href="#DejaVuSans-20" transform="translate(415.234375 0.015625)"/>
      <use xlink:href="#DejaVuSans-53" transform="translate(447.021484 0.015625)"/>
      <use xlink:href="#DejaVuSans-75" transform="translate(510.498047 0.015625)"/>
      <use xlink:href="#DejaVuSans-6d" transform="translate(573.876953 0.015625)"/>
      <use xlink:href="#DejaVuSans-20" transform="translate(671.289062 0.015625)"/>
      <use xlink:href="#DejaVuSans-28" transform="translate(703.076172 0.015625)"/>
      <use xlink:href="#DejaVuSans-Oblique-6e" transform="translate(742.089844 0.015625)"/>
      <use xlink:href="#DejaVuSans-3d" transform="translate(824.951172 0.015625)"/>
      <use xlink:href="#DejaVuSans-31" transform="translate(928.222656 0.015625)"/>
      <use xlink:href="#DejaVuSans-32" transform="translate(991.845703 0.015625)"/>
      <use xlink:href="#DejaVuSans-38" transform="translate(1055.46875 0.015625)"/>
      <use xlink:href="#DejaVuSans-29" transform="translate(1119.091797 0.015625)"/>
     </g>
    </g>
    <g id="line2d_33">
     <path d="M 526.10125 34.978125 
L 536.10125 34.978125 
L 546.10125 34.978125 
" style="fill: none; stroke-dasharray: 9.25,4; stroke-dashoffset: 0; stroke: #2e8b57; stroke-width: 2.5"/>
    </g>
    <g id="text_18">
     <!-- Integral Approximation by $I_n(x)$ -->
     <g transform="translate(554.10125 38.478125) scale(0.1 -0.1)">
      <defs>
       <path id="DejaVuSans-49" d="M 628 4666 
L 1259 4666 
L 1259 0 
L 628 0 
L 628 4666 
z
" transform="scale(0.015625)"/>
       <path id="DejaVuSans-67" d="M 2906 1791 
Q 2906 2416 2648 2759 
Q 2391 3103 1925 3103 
Q 1463 3103 1205 2759 
Q 947 2416 947 1791 
Q 947 1169 1205 825 
Q 1463 481 1925 481 
Q 2391 481 2648 825 
Q 2906 1169 2906 1791 
z
M 3481 434 
Q 3481 -459 3084 -895 
Q 2688 -1331 1869 -1331 
Q 1566 -1331 1297 -1286 
Q 1028 -1241 775 -1147 
L 775 -588 
Q 1028 -725 1275 -790 
Q 1522 -856 1778 -856 
Q 2344 -856 2625 -561 
Q 2906 -266 2906 331 
L 2906 616 
Q 2728 306 2450 153 
Q 2172 0 1784 0 
Q 1141 0 747 490 
Q 353 981 353 1791 
Q 353 2603 747 3093 
Q 1141 3584 1784 3584 
Q 2172 3584 2450 3431 
Q 2728 3278 2906 2969 
L 2906 3500 
L 3481 3500 
L 3481 434 
z
" transform="scale(0.015625)"/>
       <path id="DejaVuSans-6c" d="M 603 4863 
L 1178 4863 
L 1178 0 
L 603 0 
L 603 4863 
z
" transform="scale(0.015625)"/>
       <path id="DejaVuSans-78" d="M 3513 3500 
L 2247 1797 
L 3578 0 
L 2900 0 
L 1881 1375 
L 863 0 
L 184 0 
L 1544 1831 
L 300 3500 
L 978 3500 
L 1906 2253 
L 2834 3500 
L 3513 3500 
z
" transform="scale(0.015625)"/>
       <path id="DejaVuSans-62" d="M 3116 1747 
Q 3116 2381 2855 2742 
Q 2594 3103 2138 3103 
Q 1681 3103 1420 2742 
Q 1159 2381 1159 1747 
Q 1159 1113 1420 752 
Q 1681 391 2138 391 
Q 2594 391 2855 752 
Q 3116 1113 3116 1747 
z
M 1159 2969 
Q 1341 3281 1617 3432 
Q 1894 3584 2278 3584 
Q 2916 3584 3314 3078 
Q 3713 2572 3713 1747 
Q 3713 922 3314 415 
Q 2916 -91 2278 -91 
Q 1894 -91 1617 61 
Q 1341 213 1159 525 
L 1159 0 
L 581 0 
L 581 4863 
L 1159 4863 
L 1159 2969 
z
" transform="scale(0.015625)"/>
       <path id="DejaVuSans-79" d="M 2059 -325 
Q 1816 -950 1584 -1140 
Q 1353 -1331 966 -1331 
L 506 -1331 
L 506 -850 
L 844 -850 
Q 1081 -850 1212 -737 
Q 1344 -625 1503 -206 
L 1606 56 
L 191 3500 
L 800 3500 
L 1894 763 
L 2988 3500 
L 3597 3500 
L 2059 -325 
z
" transform="scale(0.015625)"/>
       <path id="DejaVuSans-Oblique-49" d="M 1081 4666 
L 1716 4666 
L 806 0 
L 172 0 
L 1081 4666 
z
" transform="scale(0.015625)"/>
      </defs>
      <use xlink:href="#DejaVuSans-49" transform="translate(0 0.015625)"/>
      <use xlink:href="#DejaVuSans-6e" transform="translate(29.492188 0.015625)"/>
      <use xlink:href="#DejaVuSans-74" transform="translate(92.871094 0.015625)"/>
      <use xlink:href="#DejaVuSans-65" transform="translate(132.080078 0.015625)"/>
      <use xlink:href="#DejaVuSans-67" transform="translate(193.603516 0.015625)"/>
      <use xlink:href="#DejaVuSans-72" transform="translate(257.080078 0.015625)"/>
      <use xlink:href="#DejaVuSans-61" transform="translate(298.193359 0.015625)"/>
      <use xlink:href="#DejaVuSans-6c" transform="translate(359.472656 0.015625)"/>
      <use xlink:href="#DejaVuSans-20" transform="translate(387.255859 0.015625)"/>
      <use xlink:href="#DejaVuSans-41" transform="translate(419.042969 0.015625)"/>
      <use xlink:href="#DejaVuSans-70" transform="translate(487.451172 0.015625)"/>
      <use xlink:href="#DejaVuSans-70" transform="translate(550.927734 0.015625)"/>
      <use xlink:href="#DejaVuSans-72" transform="translate(614.404297 0.015625)"/>
      <use xlink:href="#DejaVuSans-6f" transform="translate(655.517578 0.015625)"/>
      <use xlink:href="#DejaVuSans-78" transform="translate(716.699219 0.015625)"/>
      <use xlink:href="#DejaVuSans-69" transform="translate(775.878906 0.015625)"/>
      <use xlink:href="#DejaVuSans-6d" transform="translate(803.662109 0.015625)"/>
      <use xlink:href="#DejaVuSans-61" transform="translate(901.074219 0.015625)"/>
      <use xlink:href="#DejaVuSans-74" transform="translate(962.353516 0.015625)"/>
      <use xlink:href="#DejaVuSans-69" transform="translate(1001.5625 0.015625)"/>
      <use xlink:href="#DejaVuSans-6f" transform="translate(1029.345703 0.015625)"/>
      <use xlink:href="#DejaVuSans-6e" transform="translate(1090.527344 0.015625)"/>
      <use xlink:href="#DejaVuSans-20" transform="translate(1153.90625 0.015625)"/>
      <use xlink:href="#DejaVuSans-62" transform="translate(1185.693359 0.015625)"/>
      <use xlink:href="#DejaVuSans-79" transform="translate(1249.169922 0.015625)"/>
      <use xlink:href="#DejaVuSans-20" transform="translate(1308.349609 0.015625)"/>
      <use xlink:href="#DejaVuSans-Oblique-49" transform="translate(1340.136719 0.015625)"/>
      <use xlink:href="#DejaVuSans-Oblique-6e" transform="translate(1369.628906 -16.390625) scale(0.7)"/>
      <use xlink:href="#DejaVuSans-28" transform="translate(1416.728516 0.015625)"/>
      <use xlink:href="#DejaVuSans-Oblique-78" transform="translate(1455.742188 0.015625)"/>
      <use xlink:href="#DejaVuSans-29" transform="translate(1514.921875 0.015625)"/>
     </g>
    </g>
   </g>
  </g>
 </g>
 <defs>
  <clipPath id="pdce74d78aa">
   <rect x="48.90125" y="7.2" width="669.6" height="332.64"/>
  </clipPath>
 </defs>
</svg>
