<?xml version="1.0" encoding="utf-8" standalone="no"?>
<!DOCTYPE svg PUBLIC "-//W3C//DTD SVG 1.1//EN"
  "http://www.w3.org/Graphics/SVG/1.1/DTD/svg11.dtd">
<svg xmlns:xlink="http://www.w3.org/1999/xlink" width="720pt" height="432pt" viewBox="0 0 720 432" xmlns="http://www.w3.org/2000/svg" version="1.1">
 <metadata>
  <rdf:RDF xmlns:dc="http://purl.org/dc/elements/1.1/" xmlns:cc="http://creativecommons.org/ns#" xmlns:rdf="http://www.w3.org/1999/02/22-rdf-syntax-ns#">
   <cc:Work>
    <dc:type rdf:resource="http://purl.org/dc/dcmitype/StillImage"/>
    <dc:date>2026-03-06T22:46:56.486998</dc:date>
    <dc:format>image/svg+xml</dc:format>
    <dc:creator>
     <cc:Agent>
      <dc:title>Matplotlib v3.10.0, https://matplotlib.org/</dc:title>
     </cc:Agent>
    </dc:creator>
   </cc:Work>
  </rdf:RDF>
 </metadata>
 <defs>
  <style type="text/css">*{stroke-linejoin: round; stroke-linecap: butt}</style>
 </defs>
 <g id="figure_1">
  <g id="patch_1">
   <path d="M 0 432 
L 720 432 
L 720 0 
L 0 0 
z
" style="fill: #ffffff"/>
  </g>
  <g id="axes_1">
   <g id="patch_2">
    <path d="M 48.89 387.16 
L 696.6 387.16 
L 696.6 10.8 
L 48.89 10.8 
z
" style="fill: #ffffff"/>
   </g>
   <g id="matplotlib.axis_1">
    <g id="xtick_1">
     <g id="line2d_1">
      <path d="M 48.89 387.16 
L 48.89 10.8 
" clip-path="url(#p1ed003bf6d)" style="fill: none; stroke-dasharray: 2.96,1.28; stroke-dashoffset: 0; stroke: #b0b0b0; stroke-opacity: 0.7; stroke-width: 0.8"/>
     </g>
     <g id="line2d_2">
      <defs>
       <path id="m61d37d4d0e" d="M 0 0 
L 0 3.5 
" style="stroke: #000000; stroke-width: 0.8"/>
      </defs>
      <g>
       <use xlink:href="#m61d37d4d0e" x="48.89" y="387.16" style="stroke: #000000; stroke-width: 0.8"/>
      </g>
     </g>
     <g id="text_1">
      <!-- 0 -->
      <g transform="translate(45.70875 401.758438) scale(0.1 -0.1)">
       <defs>
        <path id="DejaVuSans-30" d="M 2034 4250 
Q 1547 4250 1301 3770 
Q 1056 3291 1056 2328 
Q 1056 1369 1301 889 
Q 1547 409 2034 409 
Q 2525 409 2770 889 
Q 3016 1369 3016 2328 
Q 3016 3291 2770 3770 
Q 2525 4250 2034 4250 
z
M 2034 4750 
Q 2819 4750 3233 4129 
Q 3647 3509 3647 2328 
Q 3647 1150 3233 529 
Q 2819 -91 2034 -91 
Q 1250 -91 836 529 
Q 422 1150 422 2328 
Q 422 3509 836 4129 
Q 1250 4750 2034 4750 
z
" transform="scale(0.015625)"/>
       </defs>
       <use xlink:href="#DejaVuSans-30"/>
      </g>
     </g>
    </g>
    <g id="xtick_2">
     <g id="line2d_3">
      <path d="M 156.841667 387.16 
L 156.841667 10.8 
" clip-path="url(#p1ed003bf6d)" style="fill: none; stroke-dasharray: 2.96,1.28; stroke-dashoffset: 0; stroke: #b0b0b0; stroke-opacity: 0.7; stroke-width: 0.8"/>
     </g>
     <g id="line2d_4">
      <g>
       <use xlink:href="#m61d37d4d0e" x="156.841667" y="387.16" style="stroke: #000000; stroke-width: 0.8"/>
      </g>
     </g>
     <g id="text_2">
      <!-- 500 -->
      <g transform="translate(147.297917 401.758438) scale(0.1 -0.1)">
       <defs>
        <path id="DejaVuSans-35" d="M 691 4666 
L 3169 4666 
L 3169 4134 
L 1269 4134 
L 1269 2991 
Q 1406 3038 1543 3061 
Q 1681 3084 1819 3084 
Q 2600 3084 3056 2656 
Q 3513 2228 3513 1497 
Q 3513 744 3044 326 
Q 2575 -91 1722 -91 
Q 1428 -91 1123 -41 
Q 819 9 494 109 
L 494 744 
Q 775 591 1075 516 
Q 1375 441 1709 441 
Q 2250 441 2565 725 
Q 2881 1009 2881 1497 
Q 2881 1984 2565 2268 
Q 2250 2553 1709 2553 
Q 1456 2553 1204 2497 
Q 953 2441 691 2322 
L 691 4666 
z
" transform="scale(0.015625)"/>
       </defs>
       <use xlink:href="#DejaVuSans-35"/>
       <use xlink:href="#DejaVuSans-30" transform="translate(63.623047 0)"/>
       <use xlink:href="#DejaVuSans-30" transform="translate(127.246094 0)"/>
      </g>
     </g>
    </g>
    <g id="xtick_3">
     <g id="line2d_5">
      <path d="M 264.793333 387.16 
L 264.793333 10.8 
" clip-path="url(#p1ed003bf6d)" style="fill: none; stroke-dasharray: 2.96,1.28; stroke-dashoffset: 0; stroke: #b0b0b0; stroke-opacity: 0.7; stroke-width: 0.8"/>
     </g>
     <g id="line2d_6">
      <g>
       <use xlink:href="#m61d37d4d0e" x="264.793333" y="387.16" style="stroke: #000000; stroke-width: 0.8"/>
      </g>
     </g>
     <g id="text_3">
      <!-- 1000 -->
      <g transform="translate(252.068333 401.758438) scale(0.1 -0.1)">
       <defs>
        <path id="DejaVuSans-31" d="M 794 531 
L 1825 531 
L 1825 4091 
L 703 3866 
L 703 4441 
L 1819 4666 
L 2450 4666 
L 2450 531 
L 3481 531 
L 3481 0 
L 794 0 
L 794 531 
z
" transform="scale(0.015625)"/>
       </defs>
       <use xlink:href="#DejaVuSans-31"/>
       <use xlink:href="#DejaVuSans-30" transform="translate(63.623047 0)"/>
       <use xlink:href="#DejaVuSans-30" transform="translate(127.246094 0)"/>
       <use xlink:href="#DejaVuSans-30" transform="translate(190.869141 0)"/>
      </g>
     </g>
    </g>
    <g id="xtick_4">
     <g id="line2d_7">
      <path d="M 372.745 387.16 
L 372.745 10.8 
" clip-path="url(#p1ed003bf6d)" style="fill: none; stroke-dasharray: 2.96,1.28; stroke-dashoffset: 0; stroke: #b0b0b0; stroke-opacity: 0.7; stroke-width: 0.8"/>
     </g>
     <g id="line2d_8">
      <g>
       <use xlink:href="#m61d37d4d0e" x="372.745" y="387.16" style="stroke: #000000; stroke-width: 0.8"/>
      </g>
     </g>
     <g id="text_4">
      <!-- 1500 -->
      <g transform="translate(360.02 401.758438) scale(0.1 -0.1)">
       <use xlink:href="#DejaVuSans-31"/>
       <use xlink:href="#DejaVuSans-35" transform="translate(63.623047 0)"/>
       <use xlink:href="#DejaVuSans-30" transform="translate(127.246094 0)"/>
       <use xlink:href="#DejaVuSans-30" transform="translate(190.869141 0)"/>
      </g>
     </g>
    </g>
    <g id="xtick_5">
     <g id="line2d_9">
      <path d="M 480.696667 387.16 
L 480.696667 10.8 
" clip-path="url(#p1ed003bf6d)" style="fill: none; stroke-dasharray: 2.96,1.28; stroke-dashoffset: 0; stroke: #b0b0b0; stroke-opacity: 0.7; stroke-width: 0.8"/>
     </g>
     <g id="line2d_10">
      <g>
       <use xlink:href="#m61d37d4d0e" x="480.696667" y="387.16" style="stroke: #000000; stroke-width: 0.8"/>
      </g>
     </g>
     <g id="text_5">
      <!-- 2000 -->
      <g transform="translate(467.971667 401.758438) scale(0.1 -0.1)">
       <defs>
        <path id="DejaVuSans-32" d="M 1228 531 
L 3431 531 
L 3431 0 
L 469 0 
L 469 531 
Q 828 903 1448 1529 
Q 2069 2156 2228 2338 
Q 2531 2678 2651 2914 
Q 2772 3150 2772 3378 
Q 2772 3750 2511 3984 
Q 2250 4219 1831 4219 
Q 1534 4219 1204 4116 
Q 875 4013 500 3803 
L 500 4441 
Q 881 4594 1212 4672 
Q 1544 4750 1819 4750 
Q 2544 4750 2975 4387 
Q 3406 4025 3406 3419 
Q 3406 3131 3298 2873 
Q 3191 2616 2906 2266 
Q 2828 2175 2409 1742 
Q 1991 1309 1228 531 
z
" transform="scale(0.015625)"/>
       </defs>
       <use xlink:href="#DejaVuSans-32"/>
       <use xlink:href="#DejaVuSans-30" transform="translate(63.623047 0)"/>
       <use xlink:href="#DejaVuSans-30" transform="translate(127.246094 0)"/>
       <use xlink:href="#DejaVuSans-30" transform="translate(190.869141 0)"/>
      </g>
     </g>
    </g>
    <g id="xtick_6">
     <g id="line2d_11">
      <path d="M 588.648333 387.16 
L 588.648333 10.8 
" clip-path="url(#p1ed003bf6d)" style="fill: none; stroke-dasharray: 2.96,1.28; stroke-dashoffset: 0; stroke: #b0b0b0; stroke-opacity: 0.7; stroke-width: 0.8"/>
     </g>
     <g id="line2d_12">
      <g>
       <use xlink:href="#m61d37d4d0e" x="588.648333" y="387.16" style="stroke: #000000; stroke-width: 0.8"/>
      </g>
     </g>
     <g id="text_6">
      <!-- 2500 -->
      <g transform="translate(575.923333 401.758438) scale(0.1 -0.1)">
       <use xlink:href="#DejaVuSans-32"/>
       <use xlink:href="#DejaVuSans-35" transform="translate(63.623047 0)"/>
       <use xlink:href="#DejaVuSans-30" transform="translate(127.246094 0)"/>
       <use xlink:href="#DejaVuSans-30" transform="translate(190.869141 0)"/>
      </g>
     </g>
    </g>
    <g id="xtick_7">
     <g id="line2d_13">
      <path d="M 696.6 387.16 
L 696.6 10.8 
" clip-path="url(#p1ed003bf6d)" style="fill: none; stroke-dasharray: 2.96,1.28; stroke-dashoffset: 0; stroke: #b0b0b0; stroke-opacity: 0.7; stroke-width: 0.8"/>
     </g>
     <g id="line2d_14">
      <g>
       <use xlink:href="#m61d37d4d0e" x="696.6" y="387.16" style="stroke: #000000; stroke-width: 0.8"/>
      </g>
     </g>
     <g id="text_7">
      <!-- 3000 -->
      <g transform="translate(683.875 401.758438) scale(0.1 -0.1)">
       <defs>
        <path id="DejaVuSans-33" d="M 2597 2516 
Q 3050 2419 3304 2112 
Q 3559 1806 3559 1356 
Q 3559 666 3084 287 
Q 2609 -91 1734 -91 
Q 1441 -91 1130 -33 
Q 819 25 488 141 
L 488 750 
Q 750 597 1062 519 
Q 1375 441 1716 441 
Q 2309 441 2620 675 
Q 2931 909 2931 1356 
Q 2931 1769 2642 2001 
Q 2353 2234 1838 2234 
L 1294 2234 
L 1294 2753 
L 1863 2753 
Q 2328 2753 2575 2939 
Q 2822 3125 2822 3475 
Q 2822 3834 2567 4026 
Q 2313 4219 1838 4219 
Q 1578 4219 1281 4162 
Q 984 4106 628 3988 
L 628 4550 
Q 988 4650 1302 4700 
Q 1616 4750 1894 4750 
Q 2613 4750 3031 4423 
Q 3450 4097 3450 3541 
Q 3450 3153 3228 2886 
Q 3006 2619 2597 2516 
z
" transform="scale(0.015625)"/>
       </defs>
       <use xlink:href="#DejaVuSans-33"/>
       <use xlink:href="#DejaVuSans-30" transform="translate(63.623047 0)"/>
       <use xlink:href="#DejaVuSans-30" transform="translate(127.246094 0)"/>
       <use xlink:href="#DejaVuSans-30" transform="translate(190.869141 0)"/>
      </g>
     </g>
    </g>
    <g id="text_8">
     <!-- $x$ -->
     <g transform="translate(369.145 416.95625) scale(0.12 -0.12)">
      <defs>
       <path id="DejaVuSans-Oblique-78" d="M 3841 3500 
L 2234 1784 
L 3219 0 
L 2559 0 
L 1819 1388 
L 531 0 
L -166 0 
L 1556 1844 
L 641 3500 
L 1300 3500 
L 1972 2234 
L 3144 3500 
L 3841 3500 
z
" transform="scale(0.015625)"/>
      </defs>
      <use xlink:href="#DejaVuSans-Oblique-78" transform="translate(0 0.3125)"/>
     </g>
    </g>
   </g>
   <g id="matplotlib.axis_2">
    <g id="ytick_1">
     <g id="line2d_15">
      <path d="M 48.89 355.664839 
L 696.6 355.664839 
" clip-path="url(#p1ed003bf6d)" style="fill: none; stroke-dasharray: 2.96,1.28; stroke-dashoffset: 0; stroke: #b0b0b0; stroke-opacity: 0.7; stroke-width: 0.8"/>
     </g>
     <g id="line2d_16">
      <defs>
       <path id="m3f02cab5d2" d="M 0 0 
L -3.5 0 
" style="stroke: #000000; stroke-width: 0.8"/>
      </defs>
      <g>
       <use xlink:href="#m3f02cab5d2" x="48.89" y="355.664839" style="stroke: #000000; stroke-width: 0.8"/>
      </g>
     </g>
     <g id="text_9">
      <!-- 0 -->
      <g transform="translate(35.5275 359.464058) scale(0.1 -0.1)">
       <use xlink:href="#DejaVuSans-30"/>
      </g>
     </g>
    </g>
    <g id="ytick_2">
     <g id="line2d_17">
      <path d="M 48.89 300.618423 
L 696.6 300.618423 
" clip-path="url(#p1ed003bf6d)" style="fill: none; stroke-dasharray: 2.96,1.28; stroke-dashoffset: 0; stroke: #b0b0b0; stroke-opacity: 0.7; stroke-width: 0.8"/>
     </g>
     <g id="line2d_18">
      <g>
       <use xlink:href="#m3f02cab5d2" x="48.89" y="300.618423" style="stroke: #000000; stroke-width: 0.8"/>
      </g>
     </g>
     <g id="text_10">
      <!-- 2 -->
      <g transform="translate(35.5275 304.417642) scale(0.1 -0.1)">
       <use xlink:href="#DejaVuSans-32"/>
      </g>
     </g>
    </g>
    <g id="ytick_3">
     <g id="line2d_19">
      <path d="M 48.89 245.572008 
L 696.6 245.572008 
" clip-path="url(#p1ed003bf6d)" style="fill: none; stroke-dasharray: 2.96,1.28; stroke-dashoffset: 0; stroke: #b0b0b0; stroke-opacity: 0.7; stroke-width: 0.8"/>
     </g>
     <g id="line2d_20">
      <g>
       <use xlink:href="#m3f02cab5d2" x="48.89" y="245.572008" style="stroke: #000000; stroke-width: 0.8"/>
      </g>
     </g>
     <g id="text_11">
      <!-- 4 -->
      <g transform="translate(35.5275 249.371227) scale(0.1 -0.1)">
       <defs>
        <path id="DejaVuSans-34" d="M 2419 4116 
L 825 1625 
L 2419 1625 
L 2419 4116 
z
M 2253 4666 
L 3047 4666 
L 3047 1625 
L 3713 1625 
L 3713 1100 
L 3047 1100 
L 3047 0 
L 2419 0 
L 2419 1100 
L 313 1100 
L 313 1709 
L 2253 4666 
z
" transform="scale(0.015625)"/>
       </defs>
       <use xlink:href="#DejaVuSans-34"/>
      </g>
     </g>
    </g>
    <g id="ytick_4">
     <g id="line2d_21">
      <path d="M 48.89 190.525592 
L 696.6 190.525592 
" clip-path="url(#p1ed003bf6d)" style="fill: none; stroke-dasharray: 2.96,1.28; stroke-dashoffset: 0; stroke: #b0b0b0; stroke-opacity: 0.7; stroke-width: 0.8"/>
     </g>
     <g id="line2d_22">
      <g>
       <use xlink:href="#m3f02cab5d2" x="48.89" y="190.525592" style="stroke: #000000; stroke-width: 0.8"/>
      </g>
     </g>
     <g id="text_12">
      <!-- 6 -->
      <g transform="translate(35.5275 194.324811) scale(0.1 -0.1)">
       <defs>
        <path id="DejaVuSans-36" d="M 2113 2584 
Q 1688 2584 1439 2293 
Q 1191 2003 1191 1497 
Q 1191 994 1439 701 
Q 1688 409 2113 409 
Q 2538 409 2786 701 
Q 3034 994 3034 1497 
Q 3034 2003 2786 2293 
Q 2538 2584 2113 2584 
z
M 3366 4563 
L 3366 3988 
Q 3128 4100 2886 4159 
Q 2644 4219 2406 4219 
Q 1781 4219 1451 3797 
Q 1122 3375 1075 2522 
Q 1259 2794 1537 2939 
Q 1816 3084 2150 3084 
Q 2853 3084 3261 2657 
Q 3669 2231 3669 1497 
Q 3669 778 3244 343 
Q 2819 -91 2113 -91 
Q 1303 -91 875 529 
Q 447 1150 447 2328 
Q 447 3434 972 4092 
Q 1497 4750 2381 4750 
Q 2619 4750 2861 4703 
Q 3103 4656 3366 4563 
z
" transform="scale(0.015625)"/>
       </defs>
       <use xlink:href="#DejaVuSans-36"/>
      </g>
     </g>
    </g>
    <g id="ytick_5">
     <g id="line2d_23">
      <path d="M 48.89 135.479177 
L 696.6 135.479177 
" clip-path="url(#p1ed003bf6d)" style="fill: none; stroke-dasharray: 2.96,1.28; stroke-dashoffset: 0; stroke: #b0b0b0; stroke-opacity: 0.7; stroke-width: 0.8"/>
     </g>
     <g id="line2d_24">
      <g>
       <use xlink:href="#m3f02cab5d2" x="48.89" y="135.479177" style="stroke: #000000; stroke-width: 0.8"/>
      </g>
     </g>
     <g id="text_13">
      <!-- 8 -->
      <g transform="translate(35.5275 139.278396) scale(0.1 -0.1)">
       <defs>
        <path id="DejaVuSans-38" d="M 2034 2216 
Q 1584 2216 1326 1975 
Q 1069 1734 1069 1313 
Q 1069 891 1326 650 
Q 1584 409 2034 409 
Q 2484 409 2743 651 
Q 3003 894 3003 1313 
Q 3003 1734 2745 1975 
Q 2488 2216 2034 2216 
z
M 1403 2484 
Q 997 2584 770 2862 
Q 544 3141 544 3541 
Q 544 4100 942 4425 
Q 1341 4750 2034 4750 
Q 2731 4750 3128 4425 
Q 3525 4100 3525 3541 
Q 3525 3141 3298 2862 
Q 3072 2584 2669 2484 
Q 3125 2378 3379 2068 
Q 3634 1759 3634 1313 
Q 3634 634 3220 271 
Q 2806 -91 2034 -91 
Q 1263 -91 848 271 
Q 434 634 434 1313 
Q 434 1759 690 2068 
Q 947 2378 1403 2484 
z
M 1172 3481 
Q 1172 3119 1398 2916 
Q 1625 2713 2034 2713 
Q 2441 2713 2670 2916 
Q 2900 3119 2900 3481 
Q 2900 3844 2670 4047 
Q 2441 4250 2034 4250 
Q 1625 4250 1398 4047 
Q 1172 3844 1172 3481 
z
" transform="scale(0.015625)"/>
       </defs>
       <use xlink:href="#DejaVuSans-38"/>
      </g>
     </g>
    </g>
    <g id="ytick_6">
     <g id="line2d_25">
      <path d="M 48.89 80.432761 
L 696.6 80.432761 
" clip-path="url(#p1ed003bf6d)" style="fill: none; stroke-dasharray: 2.96,1.28; stroke-dashoffset: 0; stroke: #b0b0b0; stroke-opacity: 0.7; stroke-width: 0.8"/>
     </g>
     <g id="line2d_26">
      <g>
       <use xlink:href="#m3f02cab5d2" x="48.89" y="80.432761" style="stroke: #000000; stroke-width: 0.8"/>
      </g>
     </g>
     <g id="text_14">
      <!-- 10 -->
      <g transform="translate(29.165 84.23198) scale(0.1 -0.1)">
       <use xlink:href="#DejaVuSans-31"/>
       <use xlink:href="#DejaVuSans-30" transform="translate(63.623047 0)"/>
      </g>
     </g>
    </g>
    <g id="ytick_7">
     <g id="line2d_27">
      <path d="M 48.89 25.386346 
L 696.6 25.386346 
" clip-path="url(#p1ed003bf6d)" style="fill: none; stroke-dasharray: 2.96,1.28; stroke-dashoffset: 0; stroke: #b0b0b0; stroke-opacity: 0.7; stroke-width: 0.8"/>
     </g>
     <g id="line2d_28">
      <g>
       <use xlink:href="#m3f02cab5d2" x="48.89" y="25.386346" style="stroke: #000000; stroke-width: 0.8"/>
      </g>
     </g>
     <g id="text_15">
      <!-- 12 -->
      <g transform="translate(29.165 29.185564) scale(0.1 -0.1)">
       <use xlink:href="#DejaVuSans-31"/>
       <use xlink:href="#DejaVuSans-32" transform="translate(63.623047 0)"/>
      </g>
     </g>
    </g>
    <g id="text_16">
     <!-- $Ci(x) - Ci(x/b)$ -->
     <g transform="translate(22.669375 240.38) rotate(-90) scale(0.12 -0.12)">
      <defs>
       <path id="DejaVuSans-Oblique-43" d="M 4447 4306 
L 4319 3641 
Q 4019 3944 3683 4091 
Q 3347 4238 2956 4238 
Q 2422 4238 2017 3981 
Q 1613 3725 1319 3200 
Q 1131 2863 1032 2486 
Q 934 2109 934 1728 
Q 934 1091 1264 756 
Q 1594 422 2222 422 
Q 2656 422 3056 561 
Q 3456 700 3834 978 
L 3688 231 
Q 3316 72 2936 -9 
Q 2556 -91 2175 -91 
Q 1278 -91 773 396 
Q 269 884 269 1753 
Q 269 2309 461 2846 
Q 653 3384 1013 3828 
Q 1394 4300 1883 4525 
Q 2372 4750 3022 4750 
Q 3422 4750 3780 4639 
Q 4138 4528 4447 4306 
z
" transform="scale(0.015625)"/>
       <path id="DejaVuSans-Oblique-69" d="M 1172 4863 
L 1747 4863 
L 1606 4134 
L 1031 4134 
L 1172 4863 
z
M 909 3500 
L 1484 3500 
L 800 0 
L 225 0 
L 909 3500 
z
" transform="scale(0.015625)"/>
       <path id="DejaVuSans-28" d="M 1984 4856 
Q 1566 4138 1362 3434 
Q 1159 2731 1159 2009 
Q 1159 1288 1364 580 
Q 1569 -128 1984 -844 
L 1484 -844 
Q 1016 -109 783 600 
Q 550 1309 550 2009 
Q 550 2706 781 3412 
Q 1013 4119 1484 4856 
L 1984 4856 
z
" transform="scale(0.015625)"/>
       <path id="DejaVuSans-29" d="M 513 4856 
L 1013 4856 
Q 1481 4119 1714 3412 
Q 1947 2706 1947 2009 
Q 1947 1309 1714 600 
Q 1481 -109 1013 -844 
L 513 -844 
Q 928 -128 1133 580 
Q 1338 1288 1338 2009 
Q 1338 2731 1133 3434 
Q 928 4138 513 4856 
z
" transform="scale(0.015625)"/>
       <path id="DejaVuSans-2212" d="M 678 2272 
L 4684 2272 
L 4684 1741 
L 678 1741 
L 678 2272 
z
" transform="scale(0.015625)"/>
       <path id="DejaVuSans-2f" d="M 1625 4666 
L 2156 4666 
L 531 -594 
L 0 -594 
L 1625 4666 
z
" transform="scale(0.015625)"/>
       <path id="DejaVuSans-Oblique-62" d="M 3169 2138 
Q 3169 2591 2961 2847 
Q 2753 3103 2388 3103 
Q 2122 3103 1889 2973 
Q 1656 2844 1484 2597 
Q 1303 2338 1198 1995 
Q 1094 1653 1094 1313 
Q 1094 881 1298 636 
Q 1503 391 1863 391 
Q 2134 391 2365 517 
Q 2597 644 2772 891 
Q 2950 1147 3059 1487 
Q 3169 1828 3169 2138 
z
M 1381 2969 
Q 1594 3256 1914 3420 
Q 2234 3584 2584 3584 
Q 3122 3584 3439 3221 
Q 3756 2859 3756 2241 
Q 3756 1734 3570 1259 
Q 3384 784 3041 416 
Q 2816 172 2522 40 
Q 2228 -91 1906 -91 
Q 1566 -91 1316 65 
Q 1066 222 909 531 
L 806 0 
L 231 0 
L 1178 4863 
L 1753 4863 
L 1381 2969 
z
" transform="scale(0.015625)"/>
      </defs>
      <use xlink:href="#DejaVuSans-Oblique-43" transform="translate(0 0.015625)"/>
      <use xlink:href="#DejaVuSans-Oblique-69" transform="translate(69.824219 0.015625)"/>
      <use xlink:href="#DejaVuSans-28" transform="translate(97.607422 0.015625)"/>
      <use xlink:href="#DejaVuSans-Oblique-78" transform="translate(136.621094 0.015625)"/>
      <use xlink:href="#DejaVuSans-29" transform="translate(195.800781 0.015625)"/>
      <use xlink:href="#DejaVuSans-2212" transform="translate(254.296875 0.015625)"/>
      <use xlink:href="#DejaVuSans-Oblique-43" transform="translate(357.568359 0.015625)"/>
      <use xlink:href="#DejaVuSans-Oblique-69" transform="translate(427.392578 0.015625)"/>
      <use xlink:href="#DejaVuSans-28" transform="translate(455.175781 0.015625)"/>
      <use xlink:href="#DejaVuSans-Oblique-78" transform="translate(494.189453 0.015625)"/>
      <use xlink:href="#DejaVuSans-2f" transform="translate(553.369141 0.015625)"/>
      <use xlink:href="#DejaVuSans-Oblique-62" transform="translate(587.060547 0.015625)"/>
      <use xlink:href="#DejaVuSans-29" transform="translate(650.537109 0.015625)"/>
     </g>
    </g>
   </g>
   <g id="line2d_29">
    <path d="M 48.933181 292.562333 
L 49.041129 295.55995 
L 49.257025 309.729744 
L 49.883124 354.158384 
L 50.09902 357.004777 
L 50.142199 357.013497 
L 50.163789 356.978968 
L 50.401274 356.320416 
L 50.466043 356.446705 
L 50.595581 357.476071 
L 50.833067 361.738395 
L 51.243269 368.595752 
L 51.351217 368.954118 
L 51.394397 368.918995 
L 51.523934 368.362852 
L 51.912547 366.470702 
L 51.998906 366.634559 
L 52.171623 367.65682 
L 52.581825 370.052727 
L 52.668184 369.93935 
L 52.819311 369.141008 
L 53.402231 365.562221 
L 53.510179 365.653905 
L 53.855613 366.20182 
L 53.898792 366.147521 
L 54.049919 365.581549 
L 54.352174 363.130106 
L 54.719197 360.739621 
L 54.913504 360.497758 
L 55.194169 360.421359 
L 55.345296 359.968067 
L 55.604371 358.273615 
L 56.079343 355.306843 
L 56.273649 355.081778 
L 56.597494 354.968988 
L 56.77021 354.443211 
L 57.547437 351.26465 
L 57.590616 351.286699 
L 58.043998 351.538328 
L 58.238304 351.062904 
L 58.756455 349.667222 
L 58.885993 349.779027 
L 59.209837 350.567099 
L 59.447323 350.846595 
L 59.59845 350.727778 
L 60.051832 350.242893 
L 60.202959 350.493855 
L 60.569982 351.764409 
L 60.850647 352.355471 
L 61.044954 352.367603 
L 61.325619 352.350285 
L 61.498336 352.641224 
L 61.80059 353.744671 
L 62.189203 354.923281 
L 62.426689 355.050685 
L 62.707354 355.156369 
L 62.901661 355.551984 
L 63.678887 357.535027 
L 64.175448 357.615656 
L 64.434523 358.202323 
L 64.844726 359.05709 
L 65.017443 359.048557 
L 65.621952 358.743339 
L 66.26964 359.323782 
L 66.29123 359.302523 
L 66.550305 358.857288 
L 66.917329 358.345816 
L 67.133225 358.388613 
L 67.478659 358.478566 
L 67.672965 358.23116 
L 68.471781 356.868056 
L 68.860394 356.762711 
L 69.09788 356.328374 
L 69.702389 355.100679 
L 70.004644 355.069639 
L 70.242129 354.956099 
L 70.501205 354.509654 
L 70.997766 353.656201 
L 71.213662 353.66564 
L 71.623865 353.735425 
L 71.88294 353.434232 
L 72.293143 352.976531 
L 72.487449 353.049144 
L 73.113548 353.455128 
L 73.718057 353.274672 
L 73.998722 353.679939 
L 74.408925 354.181431 
L 74.711179 354.170115 
L 74.970255 354.227219 
L 75.22933 354.58461 
L 75.81225 355.466802 
L 76.546297 355.87767 
L 77.172395 356.759301 
L 77.561008 356.737484 
L 77.798494 356.863574 
L 78.618899 357.563966 
L 79.180229 357.408602 
L 79.892687 357.698883 
L 80.691502 357.203543 
L 81.101705 357.231424 
L 81.36078 356.955299 
L 81.900521 356.339292 
L 82.656157 356.00621 
L 83.303846 355.247018 
L 83.973124 355.015528 
L 84.663991 354.356184 
L 85.376448 354.296669 
L 85.916189 353.940998 
L 86.196854 354.082363 
L 86.607056 354.259917 
L 87.427462 354.244422 
L 88.053561 354.730433 
L 88.679659 354.855685 
L 89.564834 355.589366 
L 89.953447 355.690646 
L 90.32047 356.106655 
L 90.709083 356.430293 
L 91.637436 356.758988 
L 92.026049 357.00725 
L 92.349894 356.918471 
L 92.716917 356.869382 
L 93.537322 357.032155 
L 94.163421 356.717797 
L 94.76793 356.698263 
L 95.761053 356.111104 
L 96.084897 356.008211 
L 96.559868 355.515345 
L 96.905302 355.339072 
L 97.531401 355.183366 
L 98.243858 354.701238 
L 98.956315 354.647917 
L 99.517645 354.40205 
L 99.992617 354.609446 
L 100.316461 354.601666 
L 100.856201 354.53868 
L 101.331173 354.884903 
L 101.676607 354.980318 
L 102.216347 355.053871 
L 103.231059 355.622969 
L 103.598082 355.749333 
L 104.461667 356.262265 
L 104.958228 356.329385 
L 105.757044 356.675064 
L 106.383143 356.619532 
L 107.009241 356.75442 
L 107.937595 356.505436 
L 108.326208 356.459741 
L 109.405688 355.998557 
L 109.751122 355.855802 
L 110.528348 355.398856 
L 111.089678 355.28461 
L 111.845315 354.904757 
L 112.514593 354.864177 
L 113.119102 354.672917 
L 114.069045 354.771862 
L 114.436068 354.779765 
L 115.558728 355.11481 
L 115.904162 355.260377 
L 116.59503 355.634764 
L 117.221129 355.77542 
L 117.955175 356.153369 
L 118.602864 356.24512 
L 119.250552 356.494876 
L 120.092547 356.490895 
L 120.545929 356.555517 
L 123.546885 355.654168 
L 124.021857 355.445273 
L 124.755904 355.289638 
L 125.360413 355.033906 
L 126.202408 354.947286 
L 126.677379 354.843758 
L 127.713681 354.912034 
L 128.102294 354.972298 
L 128.87952 355.216234 
L 129.397671 355.292068 
L 130.304434 355.645758 
L 130.779406 355.756806 
L 131.556632 356.075763 
L 132.182731 356.159944 
L 132.830419 356.36094 
L 133.672414 356.363778 
L 134.147386 356.405116 
L 135.140508 356.244362 
L 135.550711 356.166323 
L 136.349526 355.889599 
L 136.889267 355.786092 
L 137.688082 355.473069 
L 138.271002 355.370004 
L 138.983459 355.129326 
L 139.695916 355.081683 
L 140.278836 354.970785 
L 141.1856 355.038449 
L 141.638982 355.063893 
L 142.524156 355.278721 
L 142.999127 355.364289 
L 143.841122 355.650796 
L 144.359273 355.752878 
L 145.136499 356.019364 
L 145.762598 356.098114 
L 146.410286 356.263636 
L 147.252281 356.271573 
L 147.748842 356.294555 
L 148.655606 356.160255 
L 149.108988 356.10004 
L 149.972572 355.858396 
L 150.469134 355.761426 
L 151.267949 355.496736 
L 151.872458 355.391338 
L 152.541736 355.19776 
L 153.318963 355.137058 
L 153.858703 355.06253 
L 154.765467 355.116773 
L 155.240438 355.153121 
L 156.060844 355.330154 
L 156.578994 355.409579 
L 157.3994 355.654077 
L 157.96073 355.759157 
L 158.694776 355.977066 
L 159.364054 356.059431 
L 159.990153 356.189698 
L 160.832148 356.201621 
L 161.328709 356.21498 
L 162.235473 356.101417 
L 162.710445 356.033864 
L 163.50926 355.833968 
L 164.07059 355.733518 
L 164.826227 355.515152 
L 165.452325 355.416304 
L 166.121603 355.251729 
L 166.89883 355.192887 
L 167.46016 355.137188 
L 168.302154 355.183595 
L 168.820305 355.215983 
L 169.64071 355.367985 
L 170.180451 355.45317 
L 170.957677 355.656325 
L 171.562186 355.764477 
L 172.253054 355.943791 
L 172.965511 356.029406 
L 173.57002 356.131579 
L 174.412015 356.146714 
L 174.930166 356.147363 
L 175.772161 356.052012 
L 176.290311 355.988903 
L 177.089127 355.815377 
L 177.672047 355.711023 
L 178.384504 355.529953 
L 179.053782 355.428129 
L 179.70147 355.294775 
L 180.478697 355.237306 
L 181.040026 355.193601 
L 181.882021 355.230965 
L 182.421762 355.272521 
L 183.198988 355.398853 
L 183.760318 355.480407 
L 184.537544 355.657947 
L 185.163643 355.769032 
L 185.832921 355.916489 
L 186.566968 356.005348 
L 187.171477 356.082324 
L 187.970292 356.098351 
L 188.531622 356.092185 
L 189.330438 356.013694 
L 189.891768 355.945463 
L 190.647405 355.800283 
L 191.251914 355.700649 
L 191.985961 355.54229 
L 192.655239 355.43758 
L 193.281337 355.329924 
L 194.058563 355.2735 
L 194.641483 355.243198 
L 195.440299 355.272177 
L 196.001629 355.312969 
L 196.778855 355.423219 
L 197.361774 355.510107 
L 198.117411 355.659142 
L 198.74351 355.765207 
L 199.412788 355.893938 
L 200.146835 355.97929 
L 200.751344 356.043725 
L 201.550159 356.062333 
L 202.111489 356.051123 
L 202.910305 355.983639 
L 203.493225 355.909281 
L 204.227272 355.788107 
L 204.85337 355.684619 
L 205.544238 355.552377 
L 206.235106 355.452242 
L 206.882794 355.360515 
L 207.63843 355.303576 
L 208.22135 355.281308 
L 209.020166 355.303989 
L 209.603085 355.35231 
L 210.358722 355.443449 
L 210.963231 355.535111 
L 211.697278 355.660056 
L 212.344966 355.769045 
L 213.014244 355.87437 
L 213.726702 355.957452 
L 214.3528 356.009042 
L 215.130026 356.032138 
L 215.712946 356.012178 
L 216.490172 355.958442 
L 217.073092 355.885093 
L 217.828728 355.778047 
L 218.454827 355.671047 
L 219.145695 355.561234 
L 219.836562 355.458362 
L 220.484251 355.386594 
L 221.218297 355.328978 
L 221.822807 355.316818 
L 222.600033 355.330867 
L 223.204542 355.385737 
L 223.938589 355.460529 
L 224.564688 355.556376 
L 225.277145 355.660781 
L 225.946423 355.772249 
L 226.615701 355.857601 
L 227.328158 355.944056 
L 227.954257 355.979348 
L 228.709893 356.006441 
L 229.314403 355.978877 
L 230.070039 355.936995 
L 230.674548 355.858624 
L 231.408595 355.769366 
L 232.056283 355.659519 
L 232.747151 355.568831 
L 233.438019 355.463762 
L 234.085707 355.408998 
L 234.819754 355.346818 
L 235.424263 355.347369 
L 236.201489 355.352142 
L 236.805998 355.414395 
L 237.540045 355.474821 
L 238.166144 355.574574 
L 238.878601 355.661496 
L 239.547879 355.774824 
L 240.217157 355.843187 
L 240.951204 355.936746 
L 241.577303 355.951609 
L 242.33294 355.989306 
L 242.959038 355.942234 
L 243.693085 355.919903 
L 244.319184 355.824997 
L 245.031641 355.76149 
L 245.700919 355.638173 
L 246.370197 355.575215 
L 247.082655 355.458874 
L 247.730343 355.430548 
L 248.485979 355.353599 
L 249.133668 355.38773 
L 249.975663 355.369327 
L 251.681242 355.567464 
L 252.458468 355.662059 
L 253.170926 355.782043 
L 253.840204 355.830462 
L 254.59584 355.932712 
L 255.265118 355.923217 
L 260.403446 355.527658 
L 261.267031 355.444049 
L 262.065846 355.371758 
L 262.756714 355.410895 
L 270.140362 355.900393 
L 271.068715 355.87834 
L 276.034326 355.394095 
L 277.156986 355.407355 
L 280.222712 355.750957 
L 280.978348 355.811277 
L 281.863522 355.915562 
L 283.590691 355.903939 
L 284.497455 355.87519 
L 286.095086 355.709017 
L 287.887024 355.476369 
L 289.355118 355.39622 
L 291.255004 355.501467 
L 294.407088 355.805797 
L 295.357031 355.896097 
L 296.846714 355.924482 
L 299.84767 355.668222 
L 300.689665 355.593344 
L 302.589551 355.439515 
L 303.345188 355.441922 
L 305.309843 355.526479 
L 306.108658 355.621853 
L 307.641521 355.789121 
L 309.606176 355.866894 
L 313.211641 355.706708 
L 315.219475 355.481101 
L 318.630634 355.535475 
L 320.573699 355.67895 
L 323.034915 355.862527 
L 331.627582 355.478263 
L 333.721774 355.663241 
L 334.736486 355.773853 
L 336.571603 355.854945 
L 338.730564 355.8361 
L 340.349785 355.701621 
L 342.400799 355.497512 
L 346.78349 355.624357 
L 348.402711 355.777142 
L 351.533205 355.836952 
L 353.648987 355.724207 
L 355.592053 355.533377 
L 356.520406 355.511259 
L 358.765726 355.495553 
L 360.903098 355.663535 
L 362.025758 355.774901 
L 366.235732 355.789622 
L 368.178797 355.609739 
L 373.684149 355.59066 
L 375.519266 355.767076 
L 378.606581 355.828754 
L 380.657594 355.721406 
L 382.276815 355.601864 
L 384.82439 355.501914 
L 392.208037 355.818637 
L 394.474947 355.709903 
L 398.296308 355.501907 
L 404.211863 355.828316 
L 413.171552 355.537688 
L 415.157797 355.663892 
L 417.014503 355.774323 
L 418.741673 355.837289 
L 420.339304 355.788387 
L 424.916302 355.495241 
L 426.70824 355.538926 
L 428.737664 355.663959 
L 430.61596 355.774001 
L 432.127233 355.820515 
L 433.206714 355.786001 
L 435.581571 355.65558 
L 437.222382 355.54114 
L 440.158569 355.530806 
L 442.555016 355.66817 
L 447.326321 355.787882 
L 450.521584 355.567649 
L 452.011267 355.508226 
L 453.760026 355.538934 
L 456.026935 355.665187 
L 462.395871 355.694897 
L 465.008215 355.552421 
L 467.728506 355.578211 
L 474.658772 355.767886 
L 478.199469 355.552205 
L 488.886327 355.708238 
L 492.66451 355.524776 
L 494.370089 355.542851 
L 498.126682 355.741269 
L 502.941166 355.701983 
L 508.165852 355.567368 
L 511.253167 355.739755 
L 515.808575 355.715243 
L 520.083319 355.528918 
L 529.755466 355.703449 
L 531.7633 355.599371 
L 533.512059 355.531656 
L 536.469836 355.615515 
L 538.671976 355.73507 
L 546.681723 355.556267 
L 548.365713 355.545613 
L 551.215542 355.674635 
L 554.410805 355.791375 
L 556.310691 355.727539 
L 558.512831 355.62777 
L 563.478442 355.607408 
L 567.040729 355.775718 
L 575.957239 355.576951 
L 579.174091 355.731094 
L 585.888461 355.617556 
L 588.133781 355.555197 
L 594.35159 355.764176 
L 603.980558 355.602352 
L 611.428974 355.695877 
L 617.79791 355.617136 
L 621.036352 355.767922 
L 624.317974 355.706587 
L 628.679076 355.556377 
L 637.012666 355.747785 
L 638.955732 355.668761 
L 641.049924 355.584273 
L 652.254934 355.688757 
L 656.292191 355.577957 
L 660.156732 355.706056 
L 662.207745 355.752502 
L 672.290095 355.640249 
L 674.578594 355.721543 
L 678.356776 355.718802 
L 681.400912 355.588815 
L 684.920019 355.61042 
L 688.460716 355.736555 
L 690.403781 355.76025 
L 696.6 355.571112 
L 696.6 355.571112 
" clip-path="url(#p1ed003bf6d)" style="fill: none; stroke: #4878cf; stroke-width: 1.5; stroke-linecap: square"/>
   </g>
   <g id="line2d_30">
    <path d="M 48.933181 229.190529 
L 49.041129 232.218793 
L 49.257025 246.551832 
L 49.904713 292.840771 
L 50.120609 295.832276 
L 50.271737 295.980788 
L 50.358095 296.069593 
L 50.466043 296.621611 
L 50.63876 299.027933 
L 51.502345 314.494418 
L 51.826189 314.865393 
L 51.998906 316.207226 
L 52.365929 321.657055 
L 52.689773 325.025039 
L 52.88408 325.454762 
L 53.143155 325.573211 
L 53.294283 326.171815 
L 53.531768 328.273057 
L 54.049919 332.863749 
L 54.244226 333.156432 
L 54.524891 333.270784 
L 54.676018 333.793212 
L 54.935093 335.676954 
L 55.388475 338.774898 
L 55.582782 339.042339 
L 55.906626 339.158473 
L 56.079343 339.733663 
L 56.424777 341.986109 
L 56.77021 343.609035 
L 56.964517 343.76103 
L 57.245182 343.810448 
L 57.417899 344.236954 
L 57.720153 345.823495 
L 58.108766 347.506098 
L 58.303073 347.655256 
L 58.626917 347.704841 
L 58.799634 348.113277 
L 59.166658 349.828165 
L 59.490502 350.850601 
L 59.684808 350.926642 
L 59.987063 350.955139 
L 60.15978 351.308304 
L 60.526803 352.797805 
L 60.850647 353.66788 
L 61.044954 353.716608 
L 61.347209 353.724597 
L 61.519925 354.033164 
L 61.886949 355.342215 
L 62.210793 356.089133 
L 62.4051 356.114835 
L 62.707354 356.104492 
L 62.901661 356.428142 
L 63.700476 358.206251 
L 64.132269 358.222139 
L 64.348165 358.66363 
L 64.931084 359.995136 
L 65.146981 359.97405 
L 65.449235 359.955671 
L 65.643542 360.240655 
L 66.355999 361.578161 
L 66.938918 361.638756 
L 67.262763 362.359154 
L 67.608196 362.914141 
L 67.824093 362.899599 
L 68.191116 362.843283 
L 68.407012 363.13744 
L 69.011521 364.106042 
L 69.270597 364.016236 
L 69.551262 363.990257 
L 69.767158 364.254964 
L 70.350077 365.112929 
L 70.587563 365.036781 
L 70.911407 364.972665 
L 71.127303 365.210903 
L 71.710223 365.973661 
L 71.969298 365.870838 
L 72.271553 365.806765 
L 72.487449 366.021052 
L 73.070369 366.698011 
L 73.351034 366.568564 
L 73.631699 366.50637 
L 73.869184 366.728172 
L 74.408925 367.299064 
L 74.668 367.184866 
L 74.991844 367.083381 
L 75.22933 367.282631 
L 75.747481 367.787441 
L 76.006556 367.675691 
L 76.35199 367.548195 
L 76.589476 367.726758 
L 77.107626 368.172206 
L 77.366702 368.048213 
L 77.733725 367.915378 
L 77.992801 368.11629 
L 78.446183 368.462173 
L 78.705258 368.341309 
L 79.093871 368.181256 
L 79.352946 368.361491 
L 79.784739 368.664168 
L 80.043814 368.547105 
L 80.454017 368.35984 
L 80.713092 368.520987 
L 81.144884 368.784136 
L 81.425549 368.638816 
L 81.814162 368.457881 
L 82.094827 368.619543 
L 82.50503 368.828045 
L 82.785695 368.671775 
L 83.174308 368.481585 
L 83.454973 368.625185 
L 83.865176 368.801709 
L 84.16743 368.617479 
L 84.556043 368.438841 
L 84.858298 368.593485 
L 85.225321 368.710541 
L 85.527576 368.516729 
L 85.916189 368.329894 
L 86.240033 368.480027 
L 86.585467 368.559615 
L 86.909311 368.338586 
L 87.276334 368.162796 
L 87.621768 368.30648 
L 87.945612 368.353705 
L 88.291046 368.106014 
L 88.65807 367.943553 
L 89.089862 368.107928 
L 89.370527 368.066333 
L 90.169343 367.709309 
L 90.665904 367.794783 
L 91.032927 367.514299 
L 91.378361 367.358614 
L 92.241946 367.297929 
L 92.738507 367.003249 
L 93.580502 366.929859 
L 94.098652 366.611177 
L 94.940647 366.509036 
L 95.458798 366.186111 
L 96.300793 366.057852 
L 96.818944 365.73161 
L 97.639349 365.598914 
L 98.179089 365.251098 
L 98.999495 365.097305 
L 99.539235 364.747867 
L 100.35964 364.575233 
L 100.899381 364.225082 
L 101.698196 364.054753 
L 102.281116 363.683589 
L 103.015163 363.537397 
L 103.662851 363.128939 
L 104.332129 363.006034 
L 105.066176 362.563507 
L 105.649096 362.462886 
L 106.491091 361.992145 
L 106.966062 361.910191 
L 107.959184 361.417519 
L 108.347797 361.312162 
L 109.254561 360.834067 
L 109.686353 360.739748 
L 110.657886 360.253189 
L 111.046499 360.154449 
L 111.996442 359.673366 
L 112.406645 359.572103 
L 113.356588 359.098105 
L 113.76679 358.994837 
L 114.695144 358.529224 
L 115.126936 358.424671 
L 116.055289 357.968701 
L 116.487082 357.863523 
L 117.415435 357.418317 
L 117.847227 357.313205 
L 118.753991 356.879797 
L 119.207373 356.775425 
L 120.114137 356.354772 
L 120.567519 356.251786 
L 121.452693 355.844593 
L 121.927664 355.743785 
L 122.812839 355.350956 
L 123.28781 355.252816 
L 124.151395 354.874658 
L 124.647956 354.780166 
L 125.51154 354.417617 
L 126.008101 354.327016 
L 126.871686 353.980673 
L 127.368247 353.894442 
L 128.210242 353.563869 
L 128.728393 353.483417 
L 129.570388 353.169815 
L 130.088538 353.094808 
L 130.930533 352.798576 
L 131.448684 352.72938 
L 132.269089 352.4492 
L 132.80883 352.387794 
L 133.629235 352.125305 
L 134.168975 352.07061 
L 134.967791 351.823909 
L 135.529121 351.778288 
L 136.327937 351.549322 
L 136.889267 351.511187 
L 137.688082 351.300052 
L 138.249412 351.269572 
L 139.026638 351.073377 
L 139.631148 351.045567 
L 140.365194 350.871869 
L 140.991293 350.855742 
L 141.72534 350.698728 
L 142.351439 350.691628 
L 143.063896 350.547664 
L 143.733174 350.545934 
L 144.402452 350.421609 
L 145.09332 350.433254 
L 145.762598 350.323999 
L 146.453465 350.345705 
L 147.122743 350.251296 
L 147.813611 350.282927 
L 148.482889 350.203104 
L 149.173757 350.244485 
L 149.843035 350.178953 
L 150.533902 350.229868 
L 151.181591 350.173188 
L 151.915638 350.233499 
L 152.541736 350.195075 
L 153.254194 350.269719 
L 153.901882 350.239179 
L 154.614339 350.322826 
L 155.262028 350.30476 
L 155.974485 350.397045 
L 156.622173 350.391021 
L 157.334631 350.491547 
L 157.982319 350.497108 
L 158.694776 350.605452 
L 159.342465 350.622119 
L 160.054922 350.737831 
L 160.681021 350.758135 
L 161.415068 350.887713 
L 162.041166 350.917856 
L 162.775213 351.054085 
L 163.401312 351.093551 
L 164.135359 351.235899 
L 164.761458 351.284158 
L 165.495505 351.432076 
L 166.121603 351.488585 
L 166.85565 351.641509 
L 167.481749 351.705716 
L 168.215796 351.86307 
L 168.841895 351.934413 
L 169.575942 352.095611 
L 170.20204 352.173522 
L 170.914498 352.338747 
L 171.562186 352.421878 
L 172.274643 352.589591 
L 172.922332 352.678304 
L 173.634789 352.847921 
L 174.282477 352.941623 
L 174.994935 353.112557 
L 175.642623 353.210656 
L 176.35508 353.382322 
L 177.002769 353.484229 
L 177.715226 353.656045 
L 178.362914 353.761175 
L 179.075372 353.932563 
L 179.72306 354.040341 
L 180.435517 354.210732 
L 181.083206 354.320586 
L 181.774073 354.489344 
L 182.443351 354.600793 
L 183.134219 354.767433 
L 183.803497 354.879864 
L 184.494365 355.043867 
L 185.163643 355.15673 
L 185.85451 355.317589 
L 186.523788 355.43035 
L 187.214656 355.587576 
L 187.862344 355.691406 
L 188.574802 355.852835 
L 189.22249 355.955656 
L 189.934947 356.112415 
L 190.582636 356.21376 
L 191.295093 356.3654 
L 191.942781 356.464826 
L 192.655239 356.610919 
L 193.302927 356.708002 
L 194.015384 356.848145 
L 194.663073 356.942485 
L 195.37553 357.076298 
L 196.023218 357.167515 
L 196.714086 357.295226 
L 197.383364 357.382387 
L 198.074232 357.503231 
L 198.74351 357.586442 
L 199.434377 357.700128 
L 200.103655 357.779078 
L 200.794523 357.88534 
L 201.463801 357.959744 
L 202.154669 358.058345 
L 202.823947 358.127944 
L 203.514814 358.218677 
L 204.184092 358.28324 
L 204.87496 358.365922 
L 205.544238 358.425248 
L 206.235106 358.499728 
L 206.904384 358.553641 
L 207.573662 358.62171 
L 208.264529 358.668151 
L 208.933807 358.727999 
L 209.624675 358.768566 
L 210.293953 358.820129 
L 210.984821 358.854731 
L 211.654099 358.897973 
L 212.344966 358.926547 
L 213.014244 358.961459 
L 213.705112 358.983972 
L 214.37439 359.010573 
L 215.065258 359.027019 
L 215.734536 359.045355 
L 216.425403 359.055754 
L 217.094681 359.065897 
L 217.785549 359.0703 
L 218.454827 359.072346 
L 219.145695 359.070828 
L 219.814973 359.0649 
L 220.50584 359.057561 
L 221.175118 359.043806 
L 221.865986 359.030772 
L 222.535264 359.009359 
L 223.226132 358.99078 
L 223.89541 358.961902 
L 224.586277 358.93795 
L 225.255555 358.90182 
L 225.946423 358.87269 
L 226.615701 358.829542 
L 227.306568 358.795449 
L 227.975847 358.745537 
L 228.666714 358.706715 
L 229.335992 358.65031 
L 230.02686 358.607012 
L 230.696138 358.544403 
L 231.387005 358.4969 
L 232.056283 358.428391 
L 232.747151 358.376968 
L 233.416429 358.302878 
L 234.107297 358.247835 
L 234.776575 358.168496 
L 235.467442 358.110146 
L 236.13672 358.025901 
L 236.827588 357.96457 
L 237.496866 357.875773 
L 238.187734 357.811796 
L 238.857012 357.718809 
L 239.547879 357.65253 
L 240.217157 357.555724 
L 240.908025 357.487493 
L 241.577303 357.387245 
L 242.268171 357.317418 
L 242.937449 357.214109 
L 243.628316 357.143049 
L 244.297594 357.037063 
L 244.988462 356.965132 
L 245.65774 356.856856 
L 246.348608 356.78442 
L 247.017886 356.674241 
L 247.708753 356.601666 
L 248.399621 356.484288 
L 249.090489 356.417355 
L 249.781356 356.293613 
L 250.472224 356.232266 
L 251.163092 356.10303 
L 251.875549 356.046282 
L 252.609596 355.899449 
L 254.315175 355.683988 
L 255.17876 355.569606 
L 255.891217 355.503317 
L 256.603674 355.37523 
L 257.337721 355.323568 
L 258.978532 355.112374 
L 260.101192 354.979416 
L 262.022667 354.705521 
L 262.756714 354.661815 
L 264.397525 354.477268 
L 265.563364 354.359495 
L 277.50242 353.413132 
L 278.279646 353.359162 
L 279.035283 353.363779 
L 280.762452 353.293978 
L 281.690805 353.273405 
L 282.511211 353.213516 
L 285.598525 353.199692 
L 286.44052 353.183602 
L 287.260926 353.226677 
L 299.156803 353.614403 
L 300.041977 353.654553 
L 301.661198 353.762651 
L 303.971286 353.95139 
L 304.791692 354.040071 
L 306.497271 354.178849 
L 307.619931 354.285818 
L 331.109431 356.530929 
L 332.016195 356.632829 
L 335.233047 356.855104 
L 336.334117 356.957402 
L 338.255593 357.054025 
L 340.824757 357.205748 
L 356.714713 357.58903 
L 358.54983 357.533675 
L 363.666568 357.404972 
L 365.177841 357.333647 
L 367.142496 357.270143 
L 368.804896 357.189521 
L 372.302414 356.956691 
L 374.137531 356.864694 
L 406.478772 354.494495 
L 408.313889 354.401777 
L 410.041058 354.307094 
L 415.783895 354.143197 
L 417.619013 354.129254 
L 421.159709 354.075731 
L 423.167543 354.093968 
L 425.153788 354.087906 
L 427.507056 354.125015 
L 429.320583 354.167118 
L 431.263648 354.237289 
L 433.465789 354.298604 
L 435.279317 354.383208 
L 438.625707 354.506985 
L 445.16736 354.875503 
L 447.088835 355.008804 
L 448.902363 355.133007 
L 451.169272 355.276155 
L 452.9828 355.404089 
L 455.22812 355.549209 
L 457.041647 355.678965 
L 459.373325 355.832125 
L 461.273211 355.949386 
L 463.129918 356.055904 
L 465.526365 356.203368 
L 467.620558 356.347338 
L 470.772641 356.503504 
L 472.672527 356.586113 
L 474.831489 356.690409 
L 476.752964 356.755935 
L 478.868747 356.838552 
L 480.854991 356.88537 
L 482.862825 356.944809 
L 485.086555 356.978408 
L 486.921672 357.002668 
L 489.210171 357.012838 
L 491.110057 357.004969 
L 493.074712 356.985361 
L 495.082546 356.972956 
L 497.284687 356.92963 
L 499.141394 356.890504 
L 501.386714 356.824238 
L 503.2866 356.758995 
L 505.316023 356.676118 
L 507.280678 356.604813 
L 509.547587 356.50051 
L 511.490653 356.398747 
L 513.455308 356.29499 
L 515.463142 356.195157 
L 517.578924 356.072482 
L 519.521989 355.967387 
L 521.659361 355.839103 
L 523.624016 355.728241 
L 525.675029 355.603544 
L 527.704453 355.493391 
L 529.733876 355.374013 
L 531.806479 355.266307 
L 533.792724 355.158407 
L 535.908506 355.057326 
L 537.873161 354.964203 
L 539.988943 354.875653 
L 541.953598 354.797936 
L 544.04779 354.726796 
L 546.012445 354.664483 
L 548.149817 354.609861 
L 550.114472 354.569681 
L 552.208664 354.535449 
L 554.173319 354.513658 
L 556.289101 354.500556 
L 558.275345 354.501233 
L 560.369538 354.507417 
L 562.355782 354.529288 
L 564.449975 354.555107 
L 566.457809 354.59877 
L 568.552002 354.640788 
L 570.603015 354.70874 
L 572.848335 354.763515 
L 584.074934 355.250328 
L 586.169126 355.347933 
L 588.263319 355.46357 
L 591.221096 355.617504 
L 601.821596 356.126429 
L 604.218043 356.214649 
L 607.629202 356.362264 
L 611.12672 356.468274 
L 613.307271 356.528072 
L 615.638949 356.597608 
L 632.392489 356.632375 
L 635.976365 356.583547 
L 656.723984 355.812876 
L 659.660171 355.675005 
L 674.945618 355.06302 
L 677.342065 354.978654 
L 692.69228 354.749653 
L 695.952312 354.752573 
L 696.6 354.753667 
L 696.6 354.753667 
" clip-path="url(#p1ed003bf6d)" style="fill: none; stroke: #6acc65; stroke-width: 1.5; stroke-linecap: square"/>
   </g>
   <g id="line2d_31">
    <path d="M 48.933181 165.816029 
L 49.041129 168.844599 
L 49.257025 183.179272 
L 49.904713 229.481288 
L 50.120609 232.479876 
L 50.271737 232.634155 
L 50.358095 232.726555 
L 50.466043 233.283374 
L 50.63876 235.698083 
L 51.502345 251.219557 
L 51.826189 251.616753 
L 51.998906 252.973819 
L 52.365929 258.458897 
L 52.689773 261.86123 
L 52.88408 262.313024 
L 53.164745 262.515314 
L 53.337462 263.369829 
L 53.639716 266.45318 
L 54.028329 269.794681 
L 54.244226 270.199758 
L 54.524891 270.358937 
L 54.697608 271.023771 
L 54.999862 273.417824 
L 55.388475 276.015155 
L 55.604371 276.325653 
L 55.885036 276.458883 
L 56.057753 277.00677 
L 56.360008 278.967113 
L 56.748621 281.085218 
L 56.964517 281.333682 
L 57.245182 281.44967 
L 57.417899 281.918243 
L 57.741743 283.714366 
L 58.108766 285.364021 
L 58.324663 285.568705 
L 58.605328 285.672475 
L 58.778044 286.083716 
L 59.101889 287.644188 
L 59.468912 289.065017 
L 59.684808 289.237184 
L 59.987063 289.360304 
L 60.181369 289.842347 
L 61.001775 292.466575 
L 61.368798 292.616583 
L 61.584694 293.16766 
L 62.297152 295.338973 
L 62.836892 295.702035 
L 63.139146 296.713785 
L 63.549349 297.871531 
L 63.786835 297.98302 
L 64.0675 298.082949 
L 64.283396 298.511876 
L 65.039032 300.358276 
L 65.514004 300.584519 
L 65.773079 301.24381 
L 66.26964 302.479675 
L 66.528716 302.566197 
L 66.787791 302.657546 
L 67.003687 303.031829 
L 67.737734 304.583557 
L 68.255885 304.825802 
L 68.558139 305.547539 
L 68.968342 306.401234 
L 69.227417 306.488641 
L 69.529672 306.594756 
L 69.767158 307.004346 
L 70.393257 308.221516 
L 71.084124 308.656301 
L 71.796582 309.900918 
L 72.357911 310.149293 
L 72.746525 310.966554 
L 73.091958 311.441435 
L 73.458982 311.491201 
L 73.696468 311.674408 
L 74.041901 312.344395 
L 74.430514 312.911938 
L 74.754359 312.958728 
L 75.013434 313.094734 
L 75.315689 313.606194 
L 75.76907 314.304997 
L 76.071325 314.357726 
L 76.35199 314.470665 
L 76.632655 314.897539 
L 77.129216 315.641364 
L 77.45306 315.69008 
L 77.712136 315.79994 
L 77.992801 316.209917 
L 78.489362 316.914245 
L 78.834796 316.960241 
L 79.093871 317.086821 
L 79.417715 317.576653 
L 79.849507 318.129256 
L 80.216531 318.17393 
L 80.475606 318.317157 
L 80.84263 318.876776 
L 81.209653 319.291294 
L 81.598266 319.336114 
L 81.857341 319.495634 
L 82.332313 320.200281 
L 82.656157 320.429937 
L 83.239077 320.626337 
L 84.124251 321.50347 
L 84.512864 321.605506 
L 84.836708 322.015088 
L 85.2685 322.491355 
L 85.657113 322.533205 
L 85.937778 322.686851 
L 86.866132 323.51359 
L 87.233155 323.613453 
L 87.578589 324.028778 
L 87.988792 324.433386 
L 88.852376 324.848558 
L 89.348937 325.35295 
L 90.190932 325.729202 
L 90.730673 326.247878 
L 91.507899 326.555314 
L 92.112408 327.111456 
L 92.824865 327.358213 
L 93.494143 327.945772 
L 94.141832 328.139791 
L 94.897468 328.754599 
L 95.437208 328.883734 
L 96.387151 329.53518 
L 96.754175 329.629949 
L 97.207557 330.087015 
L 97.57458 330.286835 
L 98.200679 330.452375 
L 98.999495 331.025967 
L 99.496056 331.134218 
L 100.489178 331.739035 
L 100.856201 331.847248 
L 101.849324 332.433096 
L 102.216347 332.540727 
L 103.18788 333.108614 
L 103.576493 333.215615 
L 104.548025 333.76628 
L 104.936638 333.872804 
L 105.886581 334.407281 
L 106.296784 334.51312 
L 107.246727 335.031884 
L 107.65693 335.137331 
L 108.585283 335.641407 
L 108.995486 335.732713 
L 110.010198 336.235344 
L 110.377221 336.340252 
L 111.305574 336.816128 
L 111.737367 336.920251 
L 112.64413 337.383277 
L 113.075923 337.47378 
L 114.047455 337.936332 
L 114.457658 338.040248 
L 115.342832 338.478732 
L 115.796214 338.568649 
L 116.746157 339.007207 
L 117.177949 339.110386 
L 118.063124 339.525778 
L 118.516505 339.615569 
L 119.444859 340.031971 
L 119.898241 340.134407 
L 120.761825 340.528764 
L 121.236797 340.618066 
L 122.16515 341.013473 
L 122.618532 341.115632 
L 123.460527 341.490398 
L 123.978678 341.591134 
L 124.820673 341.956428 
L 125.338823 342.057021 
L 126.180818 342.413146 
L 126.698969 342.513616 
L 127.519374 342.86122 
L 128.059115 342.961222 
L 128.87952 343.300251 
L 129.41926 343.40013 
L 130.239666 343.730843 
L 130.779406 343.830615 
L 131.599811 344.153256 
L 132.139552 344.252937 
L 132.938367 344.568096 
L 133.499697 344.667346 
L 134.298513 344.974926 
L 134.859843 345.074077 
L 135.658659 345.37429 
L 136.219989 345.473357 
L 136.997215 345.76671 
L 137.580134 345.865401 
L 138.35736 346.151821 
L 138.94028 346.250413 
L 139.717506 346.530083 
L 140.300426 346.628591 
L 141.077652 346.901685 
L 141.660571 347.000121 
L 142.416208 347.267099 
L 143.020717 347.365183 
L 143.776353 347.625955 
L 144.380863 347.723949 
L 145.136499 347.978667 
L 145.741008 348.076582 
L 146.496645 348.325392 
L 147.101154 348.42324 
L 147.85679 348.666282 
L 148.4613 348.764074 
L 149.195346 349.001806 
L 149.821445 349.09923 
L 150.555492 349.331501 
L 151.181591 349.428845 
L 151.915638 349.655779 
L 152.541736 349.753054 
L 153.275783 349.974769 
L 153.901882 350.071985 
L 154.635929 350.288596 
L 155.262028 350.385762 
L 155.974485 350.597731 
L 156.622173 350.694503 
L 157.334631 350.901627 
L 157.982319 350.998323 
L 158.694776 351.200702 
L 159.342465 351.297332 
L 160.054922 351.495065 
L 160.70261 351.591636 
L 161.415068 351.784817 
L 162.041166 351.872218 
L 162.775213 352.070058 
L 163.401312 352.157499 
L 164.135359 352.350885 
L 164.761458 352.438369 
L 165.495505 352.627389 
L 166.121603 352.714923 
L 166.85565 352.89966 
L 167.481749 352.987247 
L 168.215796 353.167784 
L 168.841895 353.255429 
L 169.575942 353.431845 
L 170.20204 353.519551 
L 170.914498 353.69252 
L 171.562186 353.779694 
L 172.274643 353.948723 
L 172.922332 354.035934 
L 173.634789 354.201096 
L 174.282477 354.288347 
L 174.994935 354.449711 
L 175.642623 354.537006 
L 176.35508 354.694639 
L 177.002769 354.781981 
L 177.715226 354.935949 
L 178.362914 355.02334 
L 179.075372 355.173708 
L 179.72306 355.261149 
L 180.413928 355.408662 
L 181.083206 355.495472 
L 181.774073 355.639535 
L 182.443351 355.726372 
L 183.134219 355.867043 
L 183.803497 355.953909 
L 184.494365 356.091245 
L 185.163643 356.178141 
L 185.85451 356.312197 
L 186.523788 356.399125 
L 187.214656 356.529956 
L 187.862344 356.609411 
L 188.574802 356.744575 
L 189.22249 356.824132 
L 189.934947 356.956107 
L 190.582636 357.035766 
L 191.295093 357.164603 
L 191.942781 357.244363 
L 192.655239 357.370112 
L 193.302927 357.449973 
L 194.015384 357.572682 
L 194.663073 357.652643 
L 195.37553 357.772362 
L 196.023218 357.852421 
L 196.714086 357.97006 
L 197.383364 358.049351 
L 198.074232 358.164108 
L 198.74351 358.243478 
L 199.434377 358.355397 
L 200.103655 358.434844 
L 200.794523 358.543969 
L 201.463801 358.623492 
L 202.154669 358.729864 
L 202.823947 358.809462 
L 203.514814 358.913124 
L 204.184092 358.992794 
L 204.87496 359.093786 
L 205.544238 359.173526 
L 206.235106 359.271889 
L 206.904384 359.351697 
L 207.595251 359.44747 
L 208.264529 359.527344 
L 208.955397 359.620565 
L 209.624675 359.700502 
L 210.315543 359.791209 
L 210.984821 359.871206 
L 211.675688 359.959438 
L 212.344966 360.039491 
L 213.035834 360.125284 
L 213.705112 360.205389 
L 214.39598 360.28878 
L 215.065258 360.368935 
L 215.756125 360.449959 
L 216.425403 360.530159 
L 217.094681 360.60987 
L 217.763959 360.683081 
L 218.454827 360.766514 
L 219.124105 360.839817 
L 219.814973 360.920931 
L 220.484251 360.994323 
L 221.175118 361.073151 
L 221.844396 361.146627 
L 222.535264 361.223202 
L 223.204542 361.296759 
L 223.89541 361.371113 
L 224.564688 361.444746 
L 225.255555 361.51691 
L 225.924833 361.590615 
L 226.615701 361.660621 
L 227.284979 361.734394 
L 227.975847 361.802272 
L 228.645125 361.876107 
L 229.335992 361.941888 
L 230.00527 362.015781 
L 230.696138 362.079495 
L 231.365416 362.15344 
L 232.056283 362.215117 
L 232.725562 362.289109 
L 233.416429 362.348778 
L 234.085707 362.422812 
L 234.776575 362.480502 
L 235.445853 362.554572 
L 236.13672 362.610311 
L 236.805998 362.684412 
L 237.496866 362.73823 
L 238.166144 362.812355 
L 238.857012 362.864279 
L 239.52629 362.938422 
L 240.217157 362.988481 
L 240.886435 363.062637 
L 241.577303 363.110856 
L 242.268171 363.189903 
L 242.959038 363.230432 
L 243.628316 363.31041 
L 244.319184 363.349226 
L 244.988462 363.429126 
L 245.67933 363.466256 
L 246.348608 363.546071 
L 247.039475 363.581542 
L 247.708753 363.661265 
L 248.399621 363.695104 
L 249.090489 363.77918 
L 249.781356 363.806142 
L 250.472224 363.895102 
L 251.163092 363.915683 
L 251.853959 364.009017 
L 252.566416 364.023544 
L 253.322053 364.133467 
L 255.200349 364.237691 
L 255.891217 364.320822 
L 256.603674 364.339983 
L 257.316131 364.435322 
L 258.114947 364.44457 
L 289.139222 366.385266 
L 289.959627 366.465058 
L 293.111711 366.591316 
L 293.910527 366.650434 
L 294.81729 366.653199 
L 298.595473 366.838513 
L 299.415878 366.906414 
L 301.272585 366.958747 
L 302.09299 367.019242 
L 303.820159 367.082785 
L 304.834871 367.133842 
L 306.669988 367.18297 
L 307.511983 367.237549 
L 309.217563 367.297751 
L 310.340223 367.34917 
L 317.659102 367.566481 
L 319.321502 367.618144 
L 321.458874 367.712381 
L 322.538354 367.756778 
L 328.410729 367.895694 
L 329.317493 367.947301 
L 334.002439 368.025784 
L 335.945504 368.102417 
L 337.564725 368.14575 
L 341.321318 368.21397 
L 342.31444 368.206108 
L 346.006264 368.292104 
L 346.977797 368.331869 
L 361.032635 368.500243 
L 362.716625 368.513178 
L 365.048303 368.545151 
L 366.581166 368.548263 
L 369.754839 368.59398 
L 370.85591 368.582862 
L 373.209177 368.605035 
L 374.849988 368.604485 
L 380.009906 368.634133 
L 381.715485 368.633455 
L 384.047163 368.645888 
L 385.687974 368.637321 
L 392.294396 368.638862 
L 394.237461 368.656532 
L 395.943041 368.659073 
L 398.512205 368.652397 
L 407.277588 368.573405 
L 410.602388 368.576788 
L 412.545453 368.541033 
L 414.294212 368.520158 
L 416.582711 368.506122 
L 418.30988 368.478853 
L 421.893756 368.457743 
L 423.685694 368.417402 
L 430.05463 368.352033 
L 431.824978 368.30959 
L 438.237094 368.225078 
L 440.007442 368.18287 
L 443.720856 368.127724 
L 445.512793 368.089652 
L 447.779703 368.05413 
L 449.571641 368.012989 
L 451.903319 367.970866 
L 453.781615 367.937665 
L 455.638322 367.914658 
L 459.11425 367.819779 
L 461.251622 367.783559 
L 463.129918 367.728211 
L 465.547955 367.672651 
L 468.484142 367.601404 
L 473.384985 367.501686 
L 475.457588 367.438228 
L 477.422242 367.400791 
L 479.624383 367.336626 
L 481.48109 367.294643 
L 483.747999 367.229695 
L 485.626296 367.178096 
L 487.63413 367.111476 
L 489.728322 367.061534 
L 491.692977 366.995999 
L 493.830349 366.941693 
L 495.751824 366.87741 
L 497.932375 366.818721 
L 499.832261 366.756259 
L 501.969633 366.698643 
L 503.912698 366.632138 
L 506.02848 366.573693 
L 507.993135 366.505144 
L 510.087328 366.445932 
L 512.073572 366.375371 
L 514.146175 366.315451 
L 516.154009 366.242912 
L 518.205023 366.182343 
L 520.234446 366.107861 
L 522.28546 366.044752 
L 524.314883 365.970307 
L 526.344307 365.906675 
L 528.39532 365.830342 
L 530.424744 365.764293 
L 532.475757 365.688055 
L 534.483591 365.621607 
L 536.556194 365.543534 
L 538.564028 365.474791 
L 540.615042 365.396446 
L 542.644465 365.325883 
L 544.695478 365.247734 
L 546.724902 365.174972 
L 548.775915 365.09705 
L 550.805339 365.022144 
L 552.834763 364.944113 
L 554.885776 364.867487 
L 556.9152 364.789753 
L 558.944623 364.713078 
L 560.995637 364.633671 
L 563.02506 364.555014 
L 565.076074 364.475951 
L 567.105497 364.395371 
L 569.156511 364.316672 
L 571.207524 364.232251 
L 573.258537 364.156163 
L 575.309551 364.067764 
L 577.403743 363.994382 
L 579.670653 363.88579 
L 591.739247 363.396904 
L 596.208297 363.21961 
L 598.388848 363.127615 
L 600.569399 363.051181 
L 605.211165 362.842044 
L 608.168943 362.713868 
L 618.747853 362.273794 
L 621.057942 362.190888 
L 631.701621 361.7349 
L 634.940063 361.58865 
L 637.142204 361.502799 
L 640.467005 361.347754 
L 643.446371 361.215487 
L 653.895744 360.778087 
L 656.162654 360.688049 
L 660.653293 360.489381 
L 662.984972 360.396285 
L 669.030063 360.121111 
L 672.657118 359.982213 
L 678.918106 359.702353 
L 681.962242 359.585127 
L 687.791438 359.331002 
L 690.209474 359.236258 
L 696.6 358.95542 
L 696.6 358.95542 
" clip-path="url(#p1ed003bf6d)" style="fill: none; stroke: #d65f5f; stroke-width: 1.5; stroke-linecap: square"/>
   </g>
   <g id="line2d_32">
    <path d="M 48.933181 102.441501 
L 49.041129 105.470074 
L 49.257025 119.804764 
L 49.904713 166.106911 
L 50.120609 169.105569 
L 50.271737 169.259906 
L 50.358095 169.352342 
L 50.466043 169.909209 
L 50.63876 172.324002 
L 51.502345 187.846026 
L 51.826189 188.243485 
L 51.998906 189.600704 
L 52.365929 195.086134 
L 52.689773 198.488812 
L 52.88408 198.940827 
L 53.164745 199.143457 
L 53.337462 199.998192 
L 53.639716 203.081949 
L 54.028329 206.424011 
L 54.244226 206.829419 
L 54.524891 206.989049 
L 54.697608 207.654171 
L 54.999862 210.048751 
L 55.388475 212.646798 
L 55.604371 212.957713 
L 55.885036 213.091505 
L 56.057753 213.63975 
L 56.360008 215.600739 
L 56.748621 217.719715 
L 56.964517 217.968682 
L 57.245182 218.085343 
L 57.417899 218.554342 
L 57.741743 220.351288 
L 58.108766 222.001912 
L 58.324663 222.207184 
L 58.605328 222.311739 
L 58.778044 222.723475 
L 59.101889 224.284898 
L 59.468912 225.706842 
L 59.684808 225.879683 
L 59.987063 226.00377 
L 60.181369 226.486448 
L 61.001775 229.113482 
L 61.368798 229.264808 
L 61.584694 229.816679 
L 62.297152 231.990709 
L 62.836892 232.355928 
L 63.139146 233.368923 
L 63.549349 234.528401 
L 63.786835 234.640916 
L 64.0675 234.742077 
L 64.283396 235.171968 
L 65.039032 237.02185 
L 65.514004 237.250367 
L 65.773079 237.910926 
L 66.26964 239.149276 
L 66.528716 239.237123 
L 66.787791 239.329817 
L 67.003687 239.705235 
L 67.737734 241.260925 
L 68.255885 241.506062 
L 68.558139 242.229521 
L 68.968342 243.085597 
L 69.227417 243.174534 
L 69.529672 243.282458 
L 69.767158 243.693487 
L 70.393257 244.914531 
L 71.084124 245.353724 
L 71.796582 246.603033 
L 72.357911 246.855208 
L 72.746525 247.675153 
L 73.091958 248.152459 
L 73.458982 248.204837 
L 73.696468 248.389756 
L 74.041901 249.062262 
L 74.430514 249.632681 
L 74.754359 249.6819 
L 75.013434 249.819872 
L 75.315689 250.33365 
L 75.76907 251.035981 
L 76.071325 251.091094 
L 76.35199 251.206272 
L 76.632655 251.635407 
L 77.129216 252.383289 
L 77.45306 252.434688 
L 77.712136 252.546718 
L 77.992801 252.959068 
L 78.489362 253.667648 
L 78.834796 253.716645 
L 79.093871 253.845499 
L 79.417715 254.3382 
L 79.849507 254.894676 
L 80.216531 254.942685 
L 80.475606 255.08829 
L 80.84263 255.651311 
L 81.209653 256.06927 
L 81.598266 256.117776 
L 81.857341 256.279777 
L 82.332313 256.989024 
L 82.656157 257.221854 
L 83.239077 257.424045 
L 84.124251 258.310159 
L 84.512864 258.41621 
L 84.836708 258.829171 
L 85.2685 259.309991 
L 85.678703 259.359769 
L 85.959368 259.535328 
L 86.822953 260.34921 
L 87.233155 260.453488 
L 87.578589 260.872692 
L 87.988792 261.281949 
L 88.852376 261.707071 
L 89.348937 262.217282 
L 90.190932 262.603564 
L 90.730673 263.128777 
L 91.507899 263.445775 
L 92.112408 264.009475 
L 92.824865 264.265275 
L 93.494143 264.861463 
L 94.141832 265.063956 
L 94.897468 265.688804 
L 95.437208 265.82521 
L 96.387151 266.48966 
L 96.754175 266.589523 
L 97.207557 267.052935 
L 97.57458 267.257936 
L 98.200679 267.432402 
L 98.999495 268.017549 
L 99.496056 268.133074 
L 100.489178 268.752655 
L 100.856201 268.866396 
L 101.849324 269.467396 
L 102.216347 269.580699 
L 103.18788 270.163786 
L 103.576493 270.276943 
L 104.548025 270.843189 
L 104.936638 270.956021 
L 105.886581 271.5061 
L 106.296784 271.618757 
L 107.246727 272.153494 
L 107.65693 272.265919 
L 108.585283 272.785964 
L 108.995486 272.884405 
L 110.010198 273.404894 
L 110.377221 273.516332 
L 111.305574 274.008902 
L 111.737367 274.120873 
L 112.64413 274.600555 
L 113.075923 274.699071 
L 114.047455 275.179848 
L 114.457658 275.29154 
L 115.364422 275.746973 
L 115.796214 275.845649 
L 116.746157 276.302763 
L 117.177949 276.41446 
L 118.063124 276.847483 
L 118.516505 276.94639 
L 119.466448 277.381695 
L 119.898241 277.493373 
L 120.761825 277.905595 
L 121.236797 278.004814 
L 122.16515 278.419789 
L 122.618532 278.531593 
L 123.460527 278.924426 
L 123.978678 279.03638 
L 124.820673 279.420065 
L 125.338823 279.532077 
L 126.180818 279.906917 
L 126.677379 280.006901 
L 127.562554 280.385314 
L 128.037525 280.485471 
L 128.922699 280.855482 
L 129.397671 280.955863 
L 130.282845 281.317738 
L 130.757816 281.418351 
L 131.621401 281.772339 
L 132.117962 281.873196 
L 132.981547 282.219543 
L 133.478108 282.320646 
L 134.341692 282.65958 
L 134.838253 282.760937 
L 135.680248 283.092652 
L 136.198399 283.194294 
L 137.040394 283.51903 
L 137.558545 283.620931 
L 138.40054 283.938886 
L 138.91869 284.041053 
L 139.739096 284.352356 
L 140.278836 284.454857 
L 141.099241 284.759761 
L 141.638982 284.862528 
L 142.459387 285.161204 
L 142.999127 285.264245 
L 143.819533 285.556858 
L 144.359273 285.660179 
L 145.158089 285.946799 
L 145.719419 286.050495 
L 146.518234 286.331376 
L 147.079564 286.435347 
L 147.87838 286.710635 
L 148.43971 286.814888 
L 149.238526 287.084719 
L 149.799856 287.18926 
L 150.577082 287.45365 
L 151.160001 287.558603 
L 151.937227 287.817818 
L 152.520147 287.92305 
L 153.297373 288.177211 
L 153.880293 288.282727 
L 154.657519 288.531952 
L 155.240438 288.637758 
L 156.017664 288.882159 
L 156.600584 288.98826 
L 157.35622 289.227818 
L 157.96073 289.334347 
L 158.716366 289.569318 
L 159.320875 289.67613 
L 160.076512 289.906613 
L 160.681021 290.013712 
L 161.436657 290.239804 
L 162.041166 290.347195 
L 162.796803 290.568991 
L 163.401312 290.676678 
L 164.135359 290.894128 
L 164.761458 291.002254 
L 165.495505 291.215608 
L 166.121603 291.324014 
L 166.85565 291.533357 
L 167.481749 291.642048 
L 168.215796 291.84746 
L 168.841895 291.956438 
L 169.575942 292.157999 
L 170.20204 292.267268 
L 170.936087 292.465054 
L 171.562186 292.574617 
L 172.274643 292.768572 
L 172.922332 292.878561 
L 173.634789 293.068908 
L 174.282477 293.179174 
L 174.994935 293.365983 
L 175.642623 293.476528 
L 176.35508 293.659866 
L 177.002769 293.770693 
L 177.715226 293.950625 
L 178.362914 294.061736 
L 179.075372 294.238326 
L 179.72306 294.349721 
L 180.435517 294.523031 
L 181.083206 294.634713 
L 181.774073 294.804699 
L 182.443351 294.916771 
L 183.134219 295.083615 
L 183.803497 295.195956 
L 184.494365 295.359713 
L 185.163643 295.472325 
L 185.85451 295.633049 
L 186.523788 295.745933 
L 187.214656 295.90368 
L 187.862344 296.008483 
L 188.574802 296.171656 
L 189.22249 296.276792 
L 189.934947 296.43703 
L 190.582636 296.542498 
L 191.295093 296.699852 
L 191.942781 296.805651 
L 192.655239 296.960169 
L 193.302927 297.066299 
L 194.015384 297.21803 
L 194.663073 297.324489 
L 195.37553 297.47348 
L 196.023218 297.580265 
L 196.735676 297.726563 
L 197.383364 297.833674 
L 198.095821 297.977324 
L 198.74351 298.084756 
L 199.434377 298.225788 
L 200.103655 298.333555 
L 200.794523 298.472034 
L 201.463801 298.580111 
L 202.154669 298.716079 
L 202.823947 298.824463 
L 203.514814 298.957961 
L 204.184092 299.066651 
L 204.87496 299.197719 
L 205.544238 299.306712 
L 206.235106 299.435389 
L 206.904384 299.544682 
L 207.595251 299.671008 
L 208.264529 299.780597 
L 208.955397 299.904609 
L 209.624675 300.014491 
L 210.315543 300.136228 
L 210.984821 300.2464 
L 211.675688 300.365898 
L 212.344966 300.476355 
L 213.035834 300.593651 
L 213.705112 300.704389 
L 214.39598 300.819518 
L 215.065258 300.930533 
L 215.756125 301.043531 
L 216.425403 301.154819 
L 217.116271 301.26572 
L 217.763959 301.370252 
L 218.476417 301.486114 
L 219.124105 301.590963 
L 219.836562 301.704742 
L 220.484251 301.809903 
L 221.196708 301.921631 
L 221.844396 302.027099 
L 222.535264 302.136809 
L 223.204542 302.242578 
L 223.89541 302.350299 
L 224.564688 302.456367 
L 225.255555 302.562129 
L 225.924833 302.668493 
L 226.615701 302.772326 
L 227.284979 302.878979 
L 227.975847 302.980914 
L 228.645125 303.087852 
L 229.335992 303.187918 
L 230.00527 303.295135 
L 230.696138 303.393362 
L 231.365416 303.500851 
L 232.056283 303.597268 
L 232.725562 303.705024 
L 233.416429 303.79966 
L 234.085707 303.907677 
L 234.776575 304.000559 
L 235.445853 304.108831 
L 236.13672 304.199989 
L 236.805998 304.308509 
L 237.496866 304.397968 
L 238.166144 304.50673 
L 238.857012 304.59452 
L 239.52629 304.703517 
L 240.217157 304.789663 
L 240.886435 304.898888 
L 241.577303 304.983419 
L 242.246581 305.092865 
L 242.937449 305.175806 
L 243.628316 305.291434 
L 244.319184 305.367008 
L 244.988462 305.482623 
L 245.67933 305.55673 
L 246.348608 305.672473 
L 247.039475 305.745141 
L 247.708753 305.861004 
L 248.399621 305.932259 
L 249.090489 306.053861 
L 249.781356 306.118461 
L 250.472224 306.245168 
L 251.184681 306.304331 
L 251.897138 306.444671 
L 252.695954 306.499731 
L 280.956758 310.073825 
L 281.712395 310.191907 
L 282.597569 310.252492 
L 286.570058 310.714502 
L 289.765321 311.113443 
L 290.564136 311.174402 
L 292.269716 311.37363 
L 293.327607 311.482873 
L 295.270672 311.738606 
L 296.825124 311.917734 
L 304.683744 312.755514 
L 305.525739 312.815712 
L 307.447214 313.053783 
L 308.353978 313.113446 
L 315.003579 313.808153 
L 316.860286 314.022497 
L 317.74546 314.08704 
L 319.818063 314.338704 
L 324.395061 314.763008 
L 325.366594 314.890878 
L 328.92888 315.211495 
L 330.008361 315.304232 
L 341.494035 316.436744 
L 344.667708 316.707417 
L 345.617651 316.819149 
L 358.398702 317.932485 
L 360.320178 318.125542 
L 361.89622 318.273453 
L 375.972648 319.440297 
L 377.742996 319.589836 
L 379.599703 319.769558 
L 384.845979 320.194551 
L 386.810634 320.328188 
L 388.559393 320.467778 
L 390.588816 320.65226 
L 392.661419 320.796287 
L 394.582895 320.971697 
L 397.195238 321.178234 
L 477.681318 326.783739 
L 479.602793 326.911873 
L 481.48109 327.037839 
L 483.747999 327.174875 
L 485.647885 327.290878 
L 487.61254 327.401056 
L 489.771501 327.540831 
L 491.671387 327.648767 
L 493.895118 327.788386 
L 495.795004 327.901482 
L 497.846017 328.033688 
L 499.853851 328.144399 
L 501.948043 328.276631 
L 503.912698 328.385062 
L 506.05007 328.517259 
L 507.993135 328.625925 
L 510.087328 328.755728 
L 512.073572 328.864567 
L 514.146175 328.991975 
L 516.154009 329.101025 
L 518.226612 329.226059 
L 520.212857 329.332912 
L 522.307049 329.45802 
L 524.293294 329.565111 
L 526.365897 329.687919 
L 528.373731 329.795232 
L 530.446333 329.91575 
L 532.454168 330.02331 
L 534.505181 330.141588 
L 536.534605 330.249376 
L 538.585618 330.365424 
L 540.615042 330.473462 
L 542.644465 330.587331 
L 544.695478 330.695597 
L 546.724902 330.8073 
L 548.754326 330.913471 
L 550.805339 331.025378 
L 552.834763 331.131811 
L 554.885776 331.241596 
L 556.9152 331.348291 
L 558.966213 331.455985 
L 560.995637 331.562938 
L 563.04665 331.668575 
L 565.076074 331.775779 
L 567.127087 331.879394 
L 569.1781 331.989076 
L 571.229114 332.088472 
L 573.301717 332.202667 
L 575.417499 332.296694 
L 578.591172 332.463738 
L 580.706954 332.569693 
L 582.779557 332.679989 
L 584.895339 332.773728 
L 587.982654 332.927887 
L 590.508639 333.048254 
L 609.270013 333.960493 
L 612.141431 334.091899 
L 620.842046 334.516519 
L 624.015719 334.659058 
L 626.282628 334.768333 
L 629.54266 334.908166 
L 631.723211 335.017577 
L 635.091191 335.155442 
L 638.329633 335.309219 
L 640.531773 335.399912 
L 643.878164 335.562691 
L 646.965478 335.70081 
L 650.462996 335.845387 
L 652.816264 335.942339 
L 659.962426 336.259912 
L 662.337283 336.35565 
L 672.462812 336.805626 
L 678.18406 337.044139 
L 681.638398 337.178675 
L 684.617764 337.313013 
L 688.072103 337.440443 
L 694.030836 337.696964 
L 696.6 337.795503 
L 696.6 337.795503 
" clip-path="url(#p1ed003bf6d)" style="fill: none; stroke: #b47cc7; stroke-width: 1.5; stroke-linecap: square"/>
   </g>
   <g id="line2d_33">
    <path d="M 48.933181 27.907273 
L 49.041129 30.935846 
L 49.257025 45.270536 
L 49.904713 91.572684 
L 50.120609 94.571343 
L 50.271737 94.725681 
L 50.358095 94.818117 
L 50.466043 95.374984 
L 50.63876 97.789778 
L 51.502345 113.311808 
L 51.826189 113.70927 
L 51.998906 115.06649 
L 52.365929 120.551924 
L 52.689773 123.954605 
L 52.88408 124.406622 
L 53.164745 124.609255 
L 53.337462 125.463993 
L 53.639716 128.547754 
L 54.028329 131.889821 
L 54.244226 132.295233 
L 54.524891 132.454868 
L 54.697608 133.119993 
L 54.999862 135.514578 
L 55.388475 138.112632 
L 55.604371 138.423551 
L 55.885036 138.557349 
L 56.057753 139.105597 
L 56.360008 141.066593 
L 56.748621 143.185578 
L 56.964517 143.434549 
L 57.245182 143.551218 
L 57.417899 144.020221 
L 57.741743 145.817175 
L 58.108766 147.467808 
L 58.324663 147.673086 
L 58.605328 147.777649 
L 58.778044 148.189391 
L 59.101889 149.750823 
L 59.468912 151.172778 
L 59.684808 151.345626 
L 59.987063 151.469722 
L 60.181369 151.952407 
L 61.001775 154.579469 
L 61.368798 154.730808 
L 61.584694 155.282688 
L 62.297152 157.456745 
L 62.836892 157.821985 
L 63.139146 158.834993 
L 63.549349 159.994489 
L 63.786835 160.107014 
L 64.0675 160.208187 
L 64.283396 160.638088 
L 65.039032 162.488005 
L 65.514004 162.716545 
L 65.773079 163.377117 
L 66.26964 164.615491 
L 66.528716 164.703352 
L 66.787791 164.796059 
L 67.003687 165.171489 
L 67.737734 166.727219 
L 68.255885 166.972385 
L 68.558139 167.695862 
L 68.968342 168.551962 
L 69.227417 168.640914 
L 69.529672 168.748855 
L 69.767158 169.1599 
L 70.393257 170.380982 
L 71.084124 170.82022 
L 71.796582 172.069576 
L 72.357911 172.321789 
L 72.746525 173.141762 
L 73.091958 173.619091 
L 73.458982 173.671496 
L 73.696468 173.856432 
L 74.041901 174.528963 
L 74.430514 175.099411 
L 74.754359 175.148655 
L 75.013434 175.286647 
L 75.315689 175.800448 
L 75.76907 176.502814 
L 76.071325 176.557952 
L 76.35199 176.673152 
L 76.632655 177.10231 
L 77.129216 177.850232 
L 77.45306 177.901659 
L 77.712136 178.01371 
L 77.992801 178.426084 
L 78.489362 179.134707 
L 78.834796 179.183735 
L 79.093871 179.312611 
L 79.417715 179.805341 
L 79.849507 180.361856 
L 80.216531 180.409899 
L 80.475606 180.555528 
L 80.84263 181.118583 
L 81.209653 181.536576 
L 81.598266 181.585119 
L 81.857341 181.747146 
L 82.332313 182.456439 
L 82.656157 182.689302 
L 83.239077 182.89155 
L 84.124251 183.777755 
L 84.512864 183.883846 
L 84.836708 184.296841 
L 85.2685 184.777708 
L 85.678703 184.82753 
L 85.959368 185.003119 
L 86.822953 185.817097 
L 87.233155 185.921421 
L 87.578589 186.340663 
L 87.988792 186.749968 
L 88.852376 187.17519 
L 89.348937 187.685459 
L 90.190932 188.071842 
L 90.730673 188.597121 
L 91.507899 188.914216 
L 92.112408 189.477992 
L 92.824865 189.733883 
L 93.494143 190.330159 
L 94.141832 190.532737 
L 94.897468 191.157686 
L 95.437208 191.294166 
L 96.387151 191.958747 
L 96.754175 192.058661 
L 97.207557 192.522137 
L 97.57458 192.72719 
L 98.200679 192.901747 
L 98.999495 193.48701 
L 99.496056 193.60261 
L 100.489178 194.222339 
L 100.856201 194.336136 
L 101.849324 194.937289 
L 102.216347 195.050649 
L 103.18788 195.633891 
L 103.576493 195.74711 
L 104.548025 196.313513 
L 104.936638 196.426409 
L 105.886581 196.976645 
L 106.296784 197.089371 
L 107.246727 197.62427 
L 107.65693 197.736765 
L 108.585283 198.256973 
L 108.995486 198.355485 
L 110.010198 198.876155 
L 110.377221 198.98766 
L 111.305574 199.480399 
L 111.737367 199.592449 
L 112.64413 200.072299 
L 113.075923 200.170897 
L 114.047455 200.651859 
L 114.457658 200.76363 
L 115.364422 201.219238 
L 115.796214 201.317999 
L 116.746157 201.775301 
L 117.177949 201.887085 
L 118.063124 202.320286 
L 118.516505 202.419286 
L 119.466448 202.854786 
L 119.898241 202.966554 
L 120.761825 203.378958 
L 121.236797 203.478277 
L 122.16515 203.893451 
L 122.618532 204.005353 
L 123.460527 204.39837 
L 123.978678 204.510437 
L 124.820673 204.894309 
L 125.338823 205.006437 
L 126.180818 205.381467 
L 126.677379 205.481564 
L 127.562554 205.860181 
L 128.037525 205.960448 
L 128.922699 206.330666 
L 129.397671 206.431159 
L 130.282845 206.793244 
L 130.757816 206.893972 
L 131.621401 207.248168 
L 132.117962 207.349147 
L 132.981547 207.695706 
L 133.478108 207.796932 
L 134.341692 208.136082 
L 134.838253 208.237563 
L 135.680248 208.569492 
L 136.198399 208.671266 
L 137.040394 208.99622 
L 137.558545 209.098256 
L 138.40054 209.416431 
L 138.91869 209.518735 
L 139.739096 209.830256 
L 140.278836 209.932901 
L 141.099241 210.238027 
L 141.638982 210.34094 
L 142.459387 210.639841 
L 142.999127 210.743031 
L 143.819533 211.035871 
L 144.359273 211.139344 
L 145.158089 211.426189 
L 145.719419 211.530044 
L 146.518234 211.811154 
L 147.079564 211.915286 
L 147.87838 212.190805 
L 148.43971 212.295222 
L 149.238526 212.565288 
L 149.799856 212.669995 
L 150.577082 212.934616 
L 151.160001 213.039744 
L 151.937227 213.299193 
L 152.520147 213.404602 
L 153.297373 213.659001 
L 153.880293 213.764696 
L 154.657519 214.014161 
L 155.240438 214.120149 
L 156.017664 214.364794 
L 156.600584 214.471079 
L 157.35622 214.710877 
L 157.96073 214.8176 
L 158.716366 215.052813 
L 159.320875 215.159821 
L 160.076512 215.39055 
L 160.681021 215.497847 
L 161.436657 215.724188 
L 162.041166 215.83178 
L 162.796803 216.053828 
L 163.401312 216.161717 
L 164.135359 216.379415 
L 164.761458 216.487753 
L 165.495505 216.701359 
L 166.121603 216.80998 
L 166.85565 217.019577 
L 167.481749 217.128484 
L 168.215796 217.334153 
L 168.841895 217.443352 
L 169.575942 217.645172 
L 170.20204 217.754664 
L 170.936087 217.952713 
L 171.562186 218.0625 
L 172.274643 218.256713 
L 172.922332 218.366937 
L 173.634789 218.557545 
L 174.282477 218.668049 
L 174.994935 218.855121 
L 175.642623 218.965907 
L 176.35508 219.149511 
L 177.002769 219.260581 
L 177.715226 219.440782 
L 178.362914 219.552138 
L 179.075372 219.729 
L 179.72306 219.840644 
L 180.435517 220.014228 
L 181.083206 220.126161 
L 181.774073 220.296417 
L 182.443351 220.40875 
L 183.134219 220.575866 
L 183.803497 220.688472 
L 184.494365 220.852503 
L 185.163643 220.965382 
L 185.85451 221.126384 
L 186.523788 221.239538 
L 187.214656 221.397564 
L 187.862344 221.502631 
L 188.574802 221.666096 
L 189.22249 221.771499 
L 189.934947 221.932031 
L 190.582636 222.037768 
L 191.295093 222.195419 
L 191.942781 222.30149 
L 192.655239 222.456309 
L 193.302927 222.562713 
L 194.015384 222.714747 
L 194.663073 222.821482 
L 195.37553 222.970779 
L 196.023218 223.077844 
L 196.735676 223.224451 
L 197.383364 223.331843 
L 198.095821 223.475805 
L 198.74351 223.583522 
L 199.434377 223.724859 
L 200.103655 223.832922 
L 200.794523 223.971709 
L 201.463801 224.080085 
L 202.154669 224.216363 
L 202.823947 224.32505 
L 203.514814 224.458861 
L 204.184092 224.567855 
L 204.87496 224.699239 
L 205.544238 224.808539 
L 206.235106 224.937535 
L 206.904384 225.047138 
L 207.595251 225.173785 
L 208.264529 225.283687 
L 208.955397 225.408024 
L 209.624675 225.518221 
L 210.315543 225.640285 
L 210.984821 225.750774 
L 211.675688 225.870602 
L 212.344966 225.98138 
L 213.035834 226.099008 
L 213.705112 226.21007 
L 214.39598 226.325535 
L 215.065258 226.436876 
L 215.756125 226.550212 
L 216.425403 226.661828 
L 217.116271 226.77307 
L 217.763959 226.877922 
L 218.476417 226.994139 
L 219.124105 227.099311 
L 219.836562 227.213446 
L 220.484251 227.318933 
L 221.196708 227.431021 
L 221.844396 227.536818 
L 222.535264 227.64688 
L 223.204542 227.752991 
L 223.89541 227.861066 
L 224.564688 227.967479 
L 225.255555 228.073598 
L 225.924833 228.180309 
L 226.615701 228.284503 
L 227.284979 228.391506 
L 227.975847 228.493804 
L 228.645125 228.601094 
L 229.335992 228.701526 
L 230.00527 228.809098 
L 230.696138 228.907693 
L 231.365416 229.01554 
L 232.056283 229.112328 
L 232.725562 229.220445 
L 233.416429 229.315455 
L 234.085707 229.423835 
L 234.776575 229.517094 
L 235.445853 229.625732 
L 236.13672 229.717269 
L 236.805998 229.826157 
L 237.496866 229.915999 
L 238.166144 230.025132 
L 238.857012 230.113307 
L 239.52629 230.222678 
L 240.217157 230.309212 
L 240.886435 230.418814 
L 241.577303 230.503735 
L 242.246581 230.61356 
L 242.937449 230.696894 
L 243.628316 230.812917 
L 244.319184 230.888886 
L 244.988462 231.004886 
L 245.67933 231.079392 
L 246.348608 231.195523 
L 247.039475 231.268592 
L 247.708753 231.384845 
L 248.399621 231.456504 
L 249.090489 231.578512 
L 249.781356 231.643518 
L 250.472224 231.770634 
L 251.184681 231.83022 
L 251.897138 231.970984 
L 252.695954 232.026521 
L 280.978348 235.619003 
L 281.755574 235.745579 
L 283.461154 235.937765 
L 284.454276 236.061499 
L 286.116676 236.252704 
L 287.325694 236.39955 
L 295.313851 237.301486 
L 297.041021 237.484597 
L 298.034143 237.603869 
L 299.782901 237.784005 
L 300.711255 237.895409 
L 302.352065 238.076426 
L 304.532616 238.285189 
L 305.482559 238.37593 
L 307.209729 238.568459 
L 308.24603 238.668323 
L 310.232274 238.917836 
L 311.981033 239.091314 
L 312.974155 239.206479 
L 314.852452 239.373963 
L 315.716036 239.491778 
L 318.781761 239.791772 
L 319.753294 239.903395 
L 321.63159 240.067229 
L 322.516765 240.184505 
L 325.798386 240.476526 
L 327.482376 240.642727 
L 329.511799 240.874442 
L 331.584402 241.047515 
L 333.441109 241.261892 
L 348.186815 242.645929 
L 349.935574 242.80159 
L 351.619564 242.928862 
L 353.51945 243.124771 
L 354.965954 243.261806 
L 356.736302 243.414762 
L 357.9885 243.533647 
L 360.19064 243.711136 
L 361.270121 243.790251 
L 367.811774 244.368916 
L 369.495764 244.508573 
L 371.892211 244.718201 
L 373.61938 244.863341 
L 375.713573 245.061745 
L 377.5271 245.187281 
L 389.574105 246.182867 
L 391.473991 246.353381 
L 393.093212 246.496152 
L 405.852673 247.468068 
L 407.795738 247.637231 
L 409.522908 247.775999 
L 411.984123 247.963164 
L 414.099906 248.093443 
L 421.526733 248.678335 
L 425.931014 248.992712 
L 427.80931 249.109523 
L 431.393186 249.386001 
L 433.206714 249.49818 
L 438.129146 249.869511 
L 440.072211 249.988611 
L 442.425479 250.156477 
L 444.303775 250.29458 
L 446.117303 250.435728 
L 449.830716 250.683417 
L 451.644244 250.811597 
L 453.803205 250.948206 
L 455.638322 251.086469 
L 459.09266 251.297133 
L 461.33798 251.453467 
L 463.151508 251.567677 
L 465.461596 251.723977 
L 467.339893 251.851386 
L 469.261368 251.990342 
L 471.549868 252.135853 
L 473.428164 252.256303 
L 475.392819 252.371004 
L 477.57337 252.518888 
L 479.430076 252.628786 
L 481.783344 252.779684 
L 483.791178 252.923232 
L 485.734244 253.036542 
L 487.61254 253.149195 
L 489.771501 253.291752 
L 491.671387 253.402146 
L 493.895118 253.544656 
L 495.795004 253.660233 
L 497.846017 253.79513 
L 499.853851 253.908486 
L 501.948043 254.043491 
L 503.912698 254.154534 
L 506.05007 254.289585 
L 507.971546 254.398415 
L 510.152097 254.533496 
L 512.073572 254.645009 
L 514.146175 254.775234 
L 516.154009 254.887025 
L 518.226612 255.0149 
L 520.212857 255.124488 
L 522.307049 255.252492 
L 524.293294 255.362341 
L 526.365897 255.488039 
L 528.373731 255.598165 
L 530.446333 255.721598 
L 532.454168 255.831994 
L 534.505181 255.95318 
L 536.534605 256.063859 
L 538.585618 256.182839 
L 540.615042 256.293792 
L 542.644465 256.410587 
L 544.695478 256.521823 
L 546.724902 256.636476 
L 548.754326 256.745609 
L 550.805339 256.860522 
L 552.834763 256.969941 
L 554.885776 257.082756 
L 556.9152 257.192461 
L 558.966213 257.30321 
L 560.995637 257.413197 
L 563.04665 257.521913 
L 565.076074 257.632176 
L 567.127087 257.738893 
L 569.1781 257.85169 
L 571.229114 257.954213 
L 573.301717 258.071581 
L 575.417499 258.168859 
L 578.591172 258.340805 
L 580.706954 258.450044 
L 582.779557 258.563569 
L 584.895339 258.660618 
L 587.982654 258.819629 
L 590.508639 258.943987 
L 609.270013 259.886444 
L 612.141431 260.022565 
L 620.842046 260.461615 
L 624.015719 260.609473 
L 626.282628 260.722564 
L 629.54266 260.867912 
L 631.723211 260.981029 
L 635.091191 261.124644 
L 638.329633 261.283982 
L 640.531773 261.378473 
L 643.878164 261.54705 
L 646.965478 261.690548 
L 650.462996 261.841251 
L 652.816264 261.942344 
L 659.962426 262.272593 
L 662.337283 262.372576 
L 672.462812 262.840833 
L 678.18406 263.089805 
L 681.638398 263.230703 
L 684.617764 263.370554 
L 688.072103 263.504409 
L 694.030836 263.772093 
L 696.6 263.875477 
L 696.6 263.875477 
" clip-path="url(#p1ed003bf6d)" style="fill: none; stroke: #c4ad66; stroke-width: 1.5; stroke-linecap: square"/>
   </g>
   <g id="patch_3">
    <path d="M 48.89 387.16 
L 48.89 10.8 
" style="fill: none; stroke: #000000; stroke-width: 0.8; stroke-linejoin: miter; stroke-linecap: square"/>
   </g>
   <g id="patch_4">
    <path d="M 696.6 387.16 
L 696.6 10.8 
" style="fill: none; stroke: #000000; stroke-width: 0.8; stroke-linejoin: miter; stroke-linecap: square"/>
   </g>
   <g id="patch_5">
    <path d="M 48.89 387.16 
L 696.6 387.16 
" style="fill: none; stroke: #000000; stroke-width: 0.8; stroke-linejoin: miter; stroke-linecap: square"/>
   </g>
   <g id="patch_6">
    <path d="M 48.89 10.8 
L 696.6 10.8 
" style="fill: none; stroke: #000000; stroke-width: 0.8; stroke-linejoin: miter; stroke-linecap: square"/>
   </g>
   <g id="legend_1">
    <g id="patch_7">
     <path d="M 600.8 106.86875 
L 689.6 106.86875 
Q 691.6 106.86875 691.6 104.86875 
L 691.6 17.8 
Q 691.6 15.8 689.6 15.8 
L 600.8 15.8 
Q 598.8 15.8 598.8 17.8 
L 598.8 104.86875 
Q 598.8 106.86875 600.8 106.86875 
z
" style="fill: #ffffff; opacity: 0.8; stroke: #cccccc; stroke-linejoin: miter"/>
    </g>
    <g id="text_17">
     <!-- RoPE base -->
     <g transform="translate(619.208594 27.398438) scale(0.1 -0.1)">
      <defs>
       <path id="DejaVuSans-52" d="M 2841 2188 
Q 3044 2119 3236 1894 
Q 3428 1669 3622 1275 
L 4263 0 
L 3584 0 
L 2988 1197 
Q 2756 1666 2539 1819 
Q 2322 1972 1947 1972 
L 1259 1972 
L 1259 0 
L 628 0 
L 628 4666 
L 2053 4666 
Q 2853 4666 3247 4331 
Q 3641 3997 3641 3322 
Q 3641 2881 3436 2590 
Q 3231 2300 2841 2188 
z
M 1259 4147 
L 1259 2491 
L 2053 2491 
Q 2509 2491 2742 2702 
Q 2975 2913 2975 3322 
Q 2975 3731 2742 3939 
Q 2509 4147 2053 4147 
L 1259 4147 
z
" transform="scale(0.015625)"/>
       <path id="DejaVuSans-6f" d="M 1959 3097 
Q 1497 3097 1228 2736 
Q 959 2375 959 1747 
Q 959 1119 1226 758 
Q 1494 397 1959 397 
Q 2419 397 2687 759 
Q 2956 1122 2956 1747 
Q 2956 2369 2687 2733 
Q 2419 3097 1959 3097 
z
M 1959 3584 
Q 2709 3584 3137 3096 
Q 3566 2609 3566 1747 
Q 3566 888 3137 398 
Q 2709 -91 1959 -91 
Q 1206 -91 779 398 
Q 353 888 353 1747 
Q 353 2609 779 3096 
Q 1206 3584 1959 3584 
z
" transform="scale(0.015625)"/>
       <path id="DejaVuSans-50" d="M 1259 4147 
L 1259 2394 
L 2053 2394 
Q 2494 2394 2734 2622 
Q 2975 2850 2975 3272 
Q 2975 3691 2734 3919 
Q 2494 4147 2053 4147 
L 1259 4147 
z
M 628 4666 
L 2053 4666 
Q 2838 4666 3239 4311 
Q 3641 3956 3641 3272 
Q 3641 2581 3239 2228 
Q 2838 1875 2053 1875 
L 1259 1875 
L 1259 0 
L 628 0 
L 628 4666 
z
" transform="scale(0.015625)"/>
       <path id="DejaVuSans-45" d="M 628 4666 
L 3578 4666 
L 3578 4134 
L 1259 4134 
L 1259 2753 
L 3481 2753 
L 3481 2222 
L 1259 2222 
L 1259 531 
L 3634 531 
L 3634 0 
L 628 0 
L 628 4666 
z
" transform="scale(0.015625)"/>
       <path id="DejaVuSans-20" transform="scale(0.015625)"/>
       <path id="DejaVuSans-62" d="M 3116 1747 
Q 3116 2381 2855 2742 
Q 2594 3103 2138 3103 
Q 1681 3103 1420 2742 
Q 1159 2381 1159 1747 
Q 1159 1113 1420 752 
Q 1681 391 2138 391 
Q 2594 391 2855 752 
Q 3116 1113 3116 1747 
z
M 1159 2969 
Q 1341 3281 1617 3432 
Q 1894 3584 2278 3584 
Q 2916 3584 3314 3078 
Q 3713 2572 3713 1747 
Q 3713 922 3314 415 
Q 2916 -91 2278 -91 
Q 1894 -91 1617 61 
Q 1341 213 1159 525 
L 1159 0 
L 581 0 
L 581 4863 
L 1159 4863 
L 1159 2969 
z
" transform="scale(0.015625)"/>
       <path id="DejaVuSans-61" d="M 2194 1759 
Q 1497 1759 1228 1600 
Q 959 1441 959 1056 
Q 959 750 1161 570 
Q 1363 391 1709 391 
Q 2188 391 2477 730 
Q 2766 1069 2766 1631 
L 2766 1759 
L 2194 1759 
z
M 3341 1997 
L 3341 0 
L 2766 0 
L 2766 531 
Q 2569 213 2275 61 
Q 1981 -91 1556 -91 
Q 1019 -91 701 211 
Q 384 513 384 1019 
Q 384 1609 779 1909 
Q 1175 2209 1959 2209 
L 2766 2209 
L 2766 2266 
Q 2766 2663 2505 2880 
Q 2244 3097 1772 3097 
Q 1472 3097 1187 3025 
Q 903 2953 641 2809 
L 641 3341 
Q 956 3463 1253 3523 
Q 1550 3584 1831 3584 
Q 2591 3584 2966 3190 
Q 3341 2797 3341 1997 
z
" transform="scale(0.015625)"/>
       <path id="DejaVuSans-73" d="M 2834 3397 
L 2834 2853 
Q 2591 2978 2328 3040 
Q 2066 3103 1784 3103 
Q 1356 3103 1142 2972 
Q 928 2841 928 2578 
Q 928 2378 1081 2264 
Q 1234 2150 1697 2047 
L 1894 2003 
Q 2506 1872 2764 1633 
Q 3022 1394 3022 966 
Q 3022 478 2636 193 
Q 2250 -91 1575 -91 
Q 1294 -91 989 -36 
Q 684 19 347 128 
L 347 722 
Q 666 556 975 473 
Q 1284 391 1588 391 
Q 1994 391 2212 530 
Q 2431 669 2431 922 
Q 2431 1156 2273 1281 
Q 2116 1406 1581 1522 
L 1381 1569 
Q 847 1681 609 1914 
Q 372 2147 372 2553 
Q 372 3047 722 3315 
Q 1072 3584 1716 3584 
Q 2034 3584 2315 3537 
Q 2597 3491 2834 3397 
z
" transform="scale(0.015625)"/>
       <path id="DejaVuSans-65" d="M 3597 1894 
L 3597 1613 
L 953 1613 
Q 991 1019 1311 708 
Q 1631 397 2203 397 
Q 2534 397 2845 478 
Q 3156 559 3463 722 
L 3463 178 
Q 3153 47 2828 -22 
Q 2503 -91 2169 -91 
Q 1331 -91 842 396 
Q 353 884 353 1716 
Q 353 2575 817 3079 
Q 1281 3584 2069 3584 
Q 2775 3584 3186 3129 
Q 3597 2675 3597 1894 
z
M 3022 2063 
Q 3016 2534 2758 2815 
Q 2500 3097 2075 3097 
Q 1594 3097 1305 2825 
Q 1016 2553 972 2059 
L 3022 2063 
z
" transform="scale(0.015625)"/>
      </defs>
      <use xlink:href="#DejaVuSans-52"/>
      <use xlink:href="#DejaVuSans-6f" transform="translate(64.982422 0)"/>
      <use xlink:href="#DejaVuSans-50" transform="translate(126.164062 0)"/>
      <use xlink:href="#DejaVuSans-45" transform="translate(186.466797 0)"/>
      <use xlink:href="#DejaVuSans-20" transform="translate(249.650391 0)"/>
      <use xlink:href="#DejaVuSans-62" transform="translate(281.4375 0)"/>
      <use xlink:href="#DejaVuSans-61" transform="translate(344.914062 0)"/>
      <use xlink:href="#DejaVuSans-73" transform="translate(406.193359 0)"/>
      <use xlink:href="#DejaVuSans-65" transform="translate(458.292969 0)"/>
     </g>
    </g>
    <g id="line2d_34">
     <path d="M 602.8 38.576563 
L 612.8 38.576563 
L 622.8 38.576563 
" style="fill: none; stroke: #4878cf; stroke-width: 1.5; stroke-linecap: square"/>
    </g>
    <g id="text_18">
     <!-- $b = 10$ -->
     <g transform="translate(630.8 42.076563) scale(0.1 -0.1)">
      <defs>
       <path id="DejaVuSans-3d" d="M 678 2906 
L 4684 2906 
L 4684 2381 
L 678 2381 
L 678 2906 
z
M 678 1631 
L 4684 1631 
L 4684 1100 
L 678 1100 
L 678 1631 
z
" transform="scale(0.015625)"/>
      </defs>
      <use xlink:href="#DejaVuSans-Oblique-62" transform="translate(0 0.015625)"/>
      <use xlink:href="#DejaVuSans-3d" transform="translate(82.958984 0.015625)"/>
      <use xlink:href="#DejaVuSans-31" transform="translate(186.230469 0.015625)"/>
      <use xlink:href="#DejaVuSans-30" transform="translate(249.853516 0.015625)"/>
     </g>
    </g>
    <g id="line2d_35">
     <path d="M 602.8 53.254688 
L 612.8 53.254688 
L 622.8 53.254688 
" style="fill: none; stroke: #6acc65; stroke-width: 1.5; stroke-linecap: square"/>
    </g>
    <g id="text_19">
     <!-- $b = 100$ -->
     <g transform="translate(630.8 56.754688) scale(0.1 -0.1)">
      <use xlink:href="#DejaVuSans-Oblique-62" transform="translate(0 0.015625)"/>
      <use xlink:href="#DejaVuSans-3d" transform="translate(82.958984 0.015625)"/>
      <use xlink:href="#DejaVuSans-31" transform="translate(186.230469 0.015625)"/>
      <use xlink:href="#DejaVuSans-30" transform="translate(249.853516 0.015625)"/>
      <use xlink:href="#DejaVuSans-30" transform="translate(313.476562 0.015625)"/>
     </g>
    </g>
    <g id="line2d_36">
     <path d="M 602.8 67.932813 
L 612.8 67.932813 
L 622.8 67.932813 
" style="fill: none; stroke: #d65f5f; stroke-width: 1.5; stroke-linecap: square"/>
    </g>
    <g id="text_20">
     <!-- $b = 1000$ -->
     <g transform="translate(630.8 71.432813) scale(0.1 -0.1)">
      <use xlink:href="#DejaVuSans-Oblique-62" transform="translate(0 0.015625)"/>
      <use xlink:href="#DejaVuSans-3d" transform="translate(82.958984 0.015625)"/>
      <use xlink:href="#DejaVuSans-31" transform="translate(186.230469 0.015625)"/>
      <use xlink:href="#DejaVuSans-30" transform="translate(249.853516 0.015625)"/>
      <use xlink:href="#DejaVuSans-30" transform="translate(313.476562 0.015625)"/>
      <use xlink:href="#DejaVuSans-30" transform="translate(377.099609 0.015625)"/>
     </g>
    </g>
    <g id="line2d_37">
     <path d="M 602.8 82.610938 
L 612.8 82.610938 
L 622.8 82.610938 
" style="fill: none; stroke: #b47cc7; stroke-width: 1.5; stroke-linecap: square"/>
    </g>
    <g id="text_21">
     <!-- $b = 10000$ -->
     <g transform="translate(630.8 86.110938) scale(0.1 -0.1)">
      <use xlink:href="#DejaVuSans-Oblique-62" transform="translate(0 0.015625)"/>
      <use xlink:href="#DejaVuSans-3d" transform="translate(82.958984 0.015625)"/>
      <use xlink:href="#DejaVuSans-31" transform="translate(186.230469 0.015625)"/>
      <use xlink:href="#DejaVuSans-30" transform="translate(249.853516 0.015625)"/>
      <use xlink:href="#DejaVuSans-30" transform="translate(313.476562 0.015625)"/>
      <use xlink:href="#DejaVuSans-30" transform="translate(377.099609 0.015625)"/>
      <use xlink:href="#DejaVuSans-30" transform="translate(440.722656 0.015625)"/>
     </g>
    </g>
    <g id="line2d_38">
     <path d="M 602.8 97.289063 
L 612.8 97.289063 
L 622.8 97.289063 
" style="fill: none; stroke: #c4ad66; stroke-width: 1.5; stroke-linecap: square"/>
    </g>
    <g id="text_22">
     <!-- $b = 150000$ -->
     <g transform="translate(630.8 100.789063) scale(0.1 -0.1)">
      <use xlink:href="#DejaVuSans-Oblique-62" transform="translate(0 0.015625)"/>
      <use xlink:href="#DejaVuSans-3d" transform="translate(82.958984 0.015625)"/>
      <use xlink:href="#DejaVuSans-31" transform="translate(186.230469 0.015625)"/>
      <use xlink:href="#DejaVuSans-35" transform="translate(249.853516 0.015625)"/>
      <use xlink:href="#DejaVuSans-30" transform="translate(313.476562 0.015625)"/>
      <use xlink:href="#DejaVuSans-30" transform="translate(377.099609 0.015625)"/>
      <use xlink:href="#DejaVuSans-30" transform="translate(440.722656 0.015625)"/>
      <use xlink:href="#DejaVuSans-30" transform="translate(504.345703 0.015625)"/>
     </g>
    </g>
   </g>
  </g>
 </g>
 <defs>
  <clipPath id="p1ed003bf6d">
   <rect x="48.89" y="10.8" width="647.71" height="376.36"/>
  </clipPath>
 </defs>
</svg>
